version 1
nodes
0 "Bone01" -1
1 "Bone02" 0
2 "fjg01" 0
3 "Bone03" -1
4 "Bone04" 3
5 "gfere02" 3
end
skeleton
time 0
0 0.000000 0.466969 0.192154 0.000000 0.000000 0.000000
1 -0.000000 -0.361496 -2.484877 0.000000 0.000000 0.000000
2 -0.000000 -0.466969 -0.102472 0.000000 0.000000 0.000000
3 0.000000 0.019081 35.614971 0.000000 0.000000 0.000000
4 -0.000000 -7.903028 0.000000 0.000000 0.000000 0.000000
5 0.066696 -0.019082 -35.525291 0.000000 0.000000 0.000000
time 1
0 0.000000 0.466969 0.192154 0.000000 0.000000 0.000000
1 -0.000000 -0.361496 -2.484877 0.000000 0.000000 0.000000
2 -0.000000 -0.466969 -0.102472 -1.570796 -1.570796 0.000000
3 0.000000 0.019081 35.614971 0.000000 0.000000 1.570796
4 -0.000000 -7.903028 0.000000 0.000000 0.000000 0.000000
5 0.066696 -0.019082 -35.525291 0.000000 0.000000 0.785398
time 2
0 0.000000 0.466969 0.192154 0.000000 0.000000 0.000000
1 -0.000000 -0.361496 -2.484877 0.000000 0.000000 0.000000
2 -0.000000 -0.466969 -0.102472 3.141593 -1.570796 0.000000
3 0.000000 0.019081 35.614971 0.000000 0.000000 2.356194
4 -0.000000 -7.903028 0.000000 0.000000 0.000000 0.000000
5 0.066696 -0.019082 -35.525291 0.000000 0.000000 1.570796
time 3
0 0.000000 0.466969 0.192154 0.000000 0.000000 0.000000
1 -0.000000 -0.361496 -2.484877 0.000000 0.000000 0.000000
2 -0.000000 -0.466969 -0.102472 1.570796 -1.570796 0.000000
3 0.000000 0.019081 35.614971 0.000000 0.000000 3.141593
4 -0.000000 -7.903028 0.000000 0.000000 0.000000 0.000000
5 0.066696 -0.019082 -35.525291 0.000000 0.000000 1.570796
time 4
0 0.000000 0.466969 0.192154 0.000000 0.000000 0.000000
1 -0.000000 -0.361496 -2.484877 0.000000 0.000000 0.000000
2 -0.000000 -0.466969 -0.102472 -1.570796 -0.000000 -3.141592
3 0.000000 0.019081 35.614971 0.000000 0.000000 -1.570796
4 -0.000000 -7.903028 0.000000 0.000000 0.000000 0.000000
5 0.066696 -0.019082 -35.525291 0.000000 0.000000 1.570796
end
