version 1
nodes
0 "Bip01" -1
1 "Bip01 Footsteps" 0
2 "Bip01 Pelvis" 0
3 "Bip01 L Thigh" 2
4 "Bip01 L Calf" 3
5 "Bip01 L Foot" 4
6 "Bip01 L Toe0" 5
7 "Bip01 L Toe01" 6
8 "Bip01 L Toe02" 7
9 "Null 9" -1
10 "Bip01 R Thigh" 2
11 "Bip01 R Calf" 10
12 "Bip01 R Foot" 11
13 "Bip01 R Toe0" 12
14 "Bip01 R Toe01" 13
15 "Bip01 R Toe02" 14
16 "Null 16" -1
17 "Bip01 Spine" 2
18 "Bip01 Spine1" 17
19 "Bip01 Neck" 18
20 "Bip01 Head" 19
21 "Null 21" -1
22 "Box03" 20
23 "Box04" 22
24 "Bip01 R Clavicle" 19
25 "Bip01 R UpperArm" 24
26 "Bip01 R Forearm" 25
27 "Bip01 R Hand" 26
28 "Bip01 R Finger0" 27
29 "Bip01 R Finger01" 28
30 "Bip01 R Finger02" 29
31 "Null 31" -1
32 "Box08" 24
33 "Box09" 32
34 "Box10" 33
35 "Box11" 34
36 "Box12" 35
37 "Bip01 L Clavicle" 19
38 "Bip01 L UpperArm" 37
39 "Bip01 L Forearm" 38
40 "Bip01 L Hand" 39
41 "Bip01 L Finger0" 40
42 "Bip01 L Finger01" 41
43 "Bip01 L Finger02" 42
44 "Null 44" -1
45 "Box01" 37
46 "Box02" 45
47 "Box05" 46
48 "Box06" 47
49 "Box07" 48
50 "ewr" 2
end
skeleton
time 0
0 -0.225072 3.207345 97.569626 0.000000 0.000000 -1.570795
1 -0.000000 0.000000 -96.745026 0.000000 0.000000 1.570795
2 -13.820677 -0.430119 0.000000 0.000000 -1.483529 -1.570795
3 -0.000017 0.000019 10.281537 -0.049285 3.069545 -0.600749
4 57.833660 -0.000000 -0.000000 -0.000000 -0.000000 -0.287271
5 41.126141 -0.000000 0.000000 0.000000 -0.000000 -0.136133
6 11.591198 22.213261 -0.000000 -0.000000 -0.000000 1.570796
7 4.161456 0.000001 -0.000000 0.000000 0.000000 0.000000
8 4.161463 -0.000001 -0.000001 0.000000 0.000000 0.000000
9 0.0 0.0 0.0 0.0 0.0 0.0
10 0.000011 -0.000011 -10.281536 0.374497 3.080329 0.408500
11 57.833656 -0.000000 0.000001 0.000000 -0.000000 -0.810866
12 41.126141 0.000003 0.000003 -0.288261 -0.149136 0.459597
13 11.591201 22.213264 -0.000000 0.000000 0.000000 1.570796
14 4.161464 0.000005 -0.000000 0.000000 0.000000 0.523599
15 4.161457 -0.000002 0.000000 0.000000 0.000000 0.000000
16 0.0 0.0 0.0 0.0 0.0 0.0
17 3.592020 -0.007112 0.313641 -0.000341 -0.123335 0.790028
18 12.695190 -0.022115 -0.001935 0.087272 0.079270 0.094527
19 27.984341 -0.007275 0.000000 -0.000001 -0.000002 0.815398
20 13.320761 0.000000 -0.000000 -0.101076 -0.101722 -1.518120
21 0.0 0.0 0.0 0.0 0.0 0.0
22 0.782558 8.800550 0.115179 0.000000 0.000030 -1.570794
23 -17.597872 -1.948085 -1.525802 0.000000 0.000000 0.000000
24 0.000006 0.010633 -9.133089 -1.071151 1.170538 1.289627
25 24.790308 0.000000 -0.000004 0.716696 -0.592053 -0.624207
26 42.522388 0.000000 0.000004 -0.000000 -0.000000 -0.813909
27 29.671488 -0.000003 -0.000000 1.569921 -0.000000 0.000000
28 12.717154 -2.207697 -0.037937 0.000670 -0.000562 0.698132
29 5.726301 -0.000000 0.000002 -0.000000 0.000000 0.523599
30 5.726303 -0.000005 -0.000002 -0.000000 -0.000000 0.523599
31 0.0 0.0 0.0 0.0 0.0 0.0
32 21.251347 5.875729 -5.732559 0.651124 3.085027 -0.949594
33 -31.702120 -1.096459 0.492830 0.000000 1.047197 0.000000
34 -30.644951 0.216283 -0.985436 -0.000000 0.000000 0.523599
35 -15.820283 -0.434251 0.497698 0.000000 0.000000 1.483530
36 -17.006531 -0.978975 -0.002430 -0.000000 -0.000000 0.000000
37 0.000006 0.010583 9.133088 1.071155 -1.170543 1.289623
38 24.790306 0.000003 0.000004 -0.678550 0.607338 -0.966196
39 42.522385 -0.000002 -0.000001 0.000000 0.000000 -0.596883
40 29.671488 -0.000001 0.000000 -1.569921 -0.000000 -0.000000
41 12.717154 -2.207697 0.037933 -0.000670 0.000562 0.698132
42 5.726298 -0.000004 0.000001 -0.000000 -0.000000 0.523599
43 5.726305 -0.000003 0.000004 0.000000 -0.000000 0.523599
44 0.0 0.0 0.0 0.0 0.0 0.0
45 20.623091 6.852359 7.043077 0.795756 0.268530 -0.801856
46 31.575485 0.620259 0.492829 0.000000 -1.396264 -0.000000
47 30.971260 0.930375 0.494043 -0.000000 -0.000000 -0.610865
48 15.321677 -1.085425 0.492618 0.000000 0.000000 -1.047197
49 16.917143 -1.550605 -4.950782 -0.000000 0.000000 0.000000
50 -51.843418 0.032810 88.547806 -1.570796 -1.570796 0.000000
time 1
0 -0.225072 -48.360310 104.596191 0.000000 0.000000 -1.570795
1 -0.000000 -0.000000 -104.631767 0.000000 0.000000 1.570795
2 -11.237180 -0.435309 0.000000 0.000000 -1.554631 -1.570794
3 -0.000018 0.000015 10.281536 -0.004876 3.126119 -0.305370
4 57.833664 0.000002 0.000000 0.000000 0.000000 -0.723278
5 41.126148 0.000001 -0.000001 -0.086939 0.008146 0.423042
6 11.591197 22.213259 -0.000000 -0.000000 -0.000000 1.570796
7 4.161459 0.000000 0.000000 0.000000 0.000000 0.000000
8 4.161457 0.000000 -0.000000 0.000000 0.000000 0.000000
9 0.0 0.0 0.0 0.0 0.0 0.0
10 0.000014 -0.000011 -10.281536 -0.006907 3.126981 -0.441655
11 57.833664 -0.000003 -0.000000 0.000000 0.000000 -1.710787
12 41.126144 -0.000003 -0.000000 0.000000 0.000000 0.492478
13 11.591202 22.213261 0.000001 0.000000 -0.000000 1.570796
14 4.161459 -0.000001 -0.000001 0.000000 0.000000 0.000000
15 4.161458 -0.000003 0.000001 0.000000 0.000000 0.000000
16 0.0 0.0 0.0 0.0 0.0 0.0
17 3.605227 -0.007112 0.057649 0.050286 -0.073152 0.785060
18 12.687743 -0.021515 0.001751 -0.078764 0.055826 -0.254555
19 27.984337 -0.007273 0.000000 -0.000001 -0.000002 0.815398
20 13.320758 0.000000 -0.000000 0.007370 -0.009479 -1.175093
21 0.0 0.0 0.0 0.0 0.0 0.0
22 0.782552 8.800552 0.115179 0.000000 0.000030 -1.570794
23 -17.597872 -1.948095 -1.525802 0.000000 0.000000 0.000000
24 0.000006 0.010631 -9.133089 -1.071151 1.170538 1.289627
25 24.790306 0.000005 -0.000005 0.586934 -0.733838 -0.722341
26 42.522381 0.000001 -0.000000 0.000000 -0.000000 -0.602068
27 29.671501 0.000011 0.000006 1.569921 0.000000 0.000000
28 12.717149 -2.207698 -0.037933 0.000670 -0.000562 0.698132
29 5.726305 -0.000004 -0.000001 0.000000 -0.000000 0.523599
30 5.726305 0.000001 0.000000 -0.000000 0.000000 0.523599
31 0.0 0.0 0.0 0.0 0.0 0.0
32 21.251345 5.875727 -5.732562 0.706091 2.934641 -1.012185
33 -31.702129 -1.096460 0.492823 0.000000 0.504206 -0.000000
34 -30.644951 0.216292 -0.985434 -0.000000 0.000000 0.523599
35 -15.820282 -0.434246 0.497704 0.000000 0.000000 1.483530
36 -17.006533 -0.978979 -0.002433 0.000000 -0.000000 0.000000
37 0.000004 0.010576 9.133089 1.071155 -1.170543 1.289623
38 24.790308 -0.000001 -0.000001 -0.636066 0.726595 -0.776348
39 42.522385 -0.000000 0.000002 0.000000 0.000000 -0.529075
40 29.671503 0.000011 -0.000006 -1.569921 -0.000000 -0.000000
41 12.717147 -2.207702 0.037932 -0.000670 0.000562 0.698132
42 5.726305 -0.000002 0.000000 -0.000000 -0.000000 0.523599
43 5.726303 -0.000001 0.000003 0.000000 0.000000 0.523599
44 0.0 0.0 0.0 0.0 0.0 0.0
45 20.623091 6.852355 7.043068 0.903371 0.397808 -0.660623
46 31.575485 0.620251 0.492835 0.000000 -0.940538 -0.000000
47 30.971251 0.930381 0.494044 0.000000 -0.000000 -0.610865
48 15.321676 -1.085430 0.492619 0.000000 0.000000 -1.047197
49 16.917141 -1.550604 -4.950785 -0.000000 0.000000 -0.000000
50 -51.843414 0.032811 88.547813 -1.570796 -1.570796 0.000000
time 2
0 -0.225072 -71.388672 105.685379 0.000000 0.000000 -1.570795
1 -0.000000 0.000000 -105.259125 0.000000 0.000000 1.570795
2 -12.627519 -0.544897 0.000000 -0.000001 -1.625741 -1.570795
3 -0.000016 0.000019 10.281536 -0.159896 -3.029723 -0.093959
4 57.833664 -0.000003 0.000001 0.000000 0.000000 -0.717443
5 41.126144 0.000001 0.000001 -0.001840 -0.040980 0.542736
6 11.591198 22.213257 0.000000 -0.000000 -0.000000 1.570796
7 4.161461 -0.000000 0.000000 0.000000 0.000000 0.000000
8 4.161454 -0.000000 -0.000002 0.000000 0.000000 0.000000
9 0.0 0.0 0.0 0.0 0.0 0.0
10 0.000019 -0.000008 -10.281536 0.034719 -3.099000 -0.684229
11 57.833652 -0.000004 -0.000000 0.000000 0.000000 -1.160977
12 41.126144 0.000002 -0.000000 0.000000 0.000000 0.320076
13 11.591198 22.213261 -0.000000 0.000000 -0.000000 1.570796
14 4.161462 -0.000001 -0.000001 0.000000 0.000000 0.000000
15 4.161460 0.000001 0.000000 0.000000 0.000000 0.000000
16 0.0 0.0 0.0 0.0 0.0 0.0
17 3.600216 -0.007113 -0.198634 0.100540 -0.022784 0.782648
18 12.691786 -0.021778 0.004436 -0.200803 0.057149 -0.079205
19 27.984331 -0.007275 -0.000000 -0.000001 -0.000002 0.815398
20 13.320765 -0.000008 -0.000000 0.116110 0.068018 -1.345836
21 0.0 0.0 0.0 0.0 0.0 0.0
22 0.782552 8.800550 0.115179 0.000000 0.000030 -1.570794
23 -17.597872 -1.948089 -1.525802 0.000000 0.000000 0.000000
24 0.000011 0.010625 -9.133089 -1.071151 1.170538 1.289627
25 24.790310 0.000002 -0.000003 0.712385 -0.487360 -1.032770
26 42.522392 -0.000004 0.000006 0.000000 -0.000000 -0.446026
27 29.671484 0.000006 0.000006 1.569921 0.000000 -0.000000
28 12.717151 -2.207705 -0.037928 0.000670 -0.000562 0.698131
29 5.726300 -0.000008 0.000005 0.000000 0.000000 0.523599
30 5.726310 0.000006 -0.000008 -0.000000 0.000000 0.523599
31 0.0 0.0 0.0 0.0 0.0 0.0
32 21.251347 5.875731 -5.732559 0.753433 2.781282 -1.068731
33 -31.702127 -1.096463 0.492826 0.000000 0.595836 0.000000
34 -30.644947 0.216290 -0.985442 0.000000 -0.000000 0.523599
35 -15.820279 -0.434251 0.497698 0.000000 0.000000 1.483530
36 -17.006535 -0.978976 -0.002437 -0.000000 -0.000000 0.000000
37 0.000010 0.010568 9.133089 1.071155 -1.170543 1.289623
38 24.790312 -0.000009 -0.000005 -0.778691 0.441769 -0.771003
39 42.522385 0.000004 -0.000004 0.000000 0.000000 -0.517327
40 29.671494 0.000005 -0.000002 -1.569921 -0.000000 0.000000
41 12.717155 -2.207698 0.037934 -0.000670 0.000562 0.698132
42 5.726301 0.000006 0.000009 0.000000 -0.000000 0.523599
43 5.726295 -0.000018 -0.000006 -0.000000 0.000000 0.523599
44 0.0 0.0 0.0 0.0 0.0 0.0
45 20.623095 6.852354 7.043075 1.037130 0.510123 -0.495870
46 31.575487 0.620251 0.492828 0.000000 -0.992898 -0.000000
47 30.971258 0.930382 0.494051 0.000000 -0.000000 -0.610865
48 15.321680 -1.085427 0.492617 -0.000000 0.000000 -1.047197
49 16.917149 -1.550609 -4.950783 -0.000000 -0.000000 0.000000
50 -51.843414 0.032811 88.547813 -1.570796 -1.570796 0.000000
time 3
0 -0.225072 -117.932785 97.569626 0.000000 0.000000 -1.570795
1 -0.000000 0.000000 -95.072708 0.000000 0.000000 1.570795
2 -13.820672 -0.430119 0.000000 0.000000 -1.658061 -1.570795
3 -0.000022 0.000019 10.281537 -0.370311 -3.057759 0.375249
4 57.833652 -0.000004 -0.000002 0.000000 -0.000000 -0.810870
5 41.126144 0.000002 -0.000001 0.298857 0.110910 0.518869
6 11.591199 22.213266 0.000000 -0.000000 -0.000000 1.570796
7 4.161463 0.000000 0.000000 -0.000000 0.000000 0.523599
8 4.161458 -0.000000 0.000000 0.000000 0.000000 0.000000
9 0.0 0.0 0.0 0.0 0.0 0.0
10 0.000008 -0.000007 -10.281536 0.049286 -3.069549 -0.600749
11 57.833660 0.000005 0.000000 0.000000 -0.000000 -0.287271
12 41.126141 0.000005 0.000000 0.000000 -0.000000 -0.136133
13 11.591197 22.213251 0.000000 0.000000 0.000000 1.570796
14 4.161463 0.000001 0.000000 0.000000 0.000000 0.000000
15 4.161455 0.000001 -0.000000 0.000000 0.000000 0.000000
16 0.0 0.0 0.0 0.0 0.0 0.0
17 3.591908 -0.007112 -0.314871 0.123329 0.000137 0.782390
18 12.695724 -0.021388 0.005748 -0.261795 0.079546 0.094503
19 27.984327 -0.007283 -0.000002 -0.000001 -0.000002 0.815398
20 13.320768 0.000002 0.000001 0.165269 0.124597 -1.515036
21 0.0 0.0 0.0 0.0 0.0 0.0
22 0.782563 8.800558 0.115179 0.000000 0.000030 -1.570794
23 -17.597868 -1.948088 -1.525802 0.000000 0.000000 0.000000
24 0.000019 0.010626 -9.133088 -1.071151 1.170538 1.289627
25 24.790306 -0.000007 -0.000003 0.643321 -0.608242 -1.007495
26 42.522388 -0.000006 0.000001 -0.000000 0.000000 -0.596883
27 29.671490 -0.000002 0.000001 1.569921 0.000000 -0.000000
28 12.717155 -2.207699 -0.037937 0.000670 -0.000562 0.698131
29 5.726302 0.000004 -0.000001 0.000000 0.000000 0.523599
30 5.726299 -0.000016 0.000009 -0.000000 0.000000 0.523599
31 0.0 0.0 0.0 0.0 0.0 0.0
32 21.251347 5.875723 -5.732563 0.772774 2.710796 -1.092963
33 -31.702129 -1.096453 0.492836 0.000000 0.785398 0.000000
34 -30.644947 0.216290 -0.985442 0.000000 0.000000 0.523599
35 -15.820284 -0.434252 0.497705 0.000000 -0.000000 1.483530
36 -17.006529 -0.978977 -0.002436 -0.000000 0.000000 0.000000
37 0.000014 0.010585 9.133090 1.071155 -1.170543 1.289623
38 24.790312 -0.000004 0.000005 -0.755140 0.595281 -0.585851
39 42.522396 0.000004 -0.000004 -0.000000 0.000000 -0.813909
40 29.671490 -0.000005 0.000000 -1.569921 -0.000000 -0.000000
41 12.717158 -2.207702 0.037936 -0.000670 0.000562 0.698131
42 5.726300 -0.000004 0.000000 0.000000 0.000000 0.523599
43 5.726304 -0.000016 -0.000005 -0.000000 0.000000 0.523599
44 0.0 0.0 0.0 0.0 0.0 0.0
45 20.623093 6.852360 7.043073 1.107871 0.554723 -0.412977
46 31.575485 0.620249 0.492826 0.000000 -1.134464 -0.000000
47 30.971254 0.930372 0.494045 0.000000 -0.000000 -0.610865
48 15.321675 -1.085428 0.492622 0.000000 0.000000 -1.047197
49 16.917139 -1.550605 -4.950782 -0.000000 -0.000000 -0.000000
50 -51.843418 0.032807 88.547806 -1.570796 -1.570796 0.000000
time 4
0 -0.225072 -170.036438 104.596191 0.000000 0.000000 -1.570795
1 -0.000000 -0.000000 -104.631775 0.000000 0.000000 1.570795
2 -11.237184 -0.435309 0.000000 -0.000001 -1.625741 -1.570795
3 -0.000029 0.000011 10.281537 0.023503 -3.091925 -0.442188
4 57.833664 0.000008 0.000000 0.000000 0.000000 -1.710787
5 41.126144 -0.000002 0.000000 0.000000 0.000000 0.492472
6 11.591205 22.213257 -0.000000 -0.000000 0.000000 1.570796
7 4.161458 0.000001 0.000000 0.000000 0.000000 0.000000
8 4.161459 0.000002 0.000001 0.000000 0.000000 0.000000
9 0.0 0.0 0.0 0.0 0.0 0.0
10 0.000007 -0.000015 -10.281536 0.016546 -3.089112 -0.305561
11 57.833652 0.000006 0.000000 0.000000 -0.000000 -0.723276
12 41.126144 0.000001 0.000000 0.087591 -0.005767 0.393812
13 11.591198 22.213263 -0.000001 0.000000 0.000000 1.570796
14 4.161467 0.000000 -0.000001 0.000000 0.000000 0.000000
15 4.161461 0.000000 0.000000 0.000000 0.000000 0.000000
16 0.0 0.0 0.0 0.0 0.0 0.0
17 3.600203 -0.007128 -0.198633 0.100540 -0.022784 0.782649
18 12.687746 -0.021510 0.001750 -0.078764 0.055826 -0.254555
19 27.984318 -0.007277 0.000000 -0.000001 -0.000002 0.815398
20 13.320764 0.000000 -0.000000 0.007370 -0.009479 -1.175093
21 0.0 0.0 0.0 0.0 0.0 0.0
22 0.782553 8.800563 0.115179 0.000000 0.000030 -1.570794
23 -17.597879 -1.948100 -1.525802 0.000000 0.000000 0.000000
24 0.000004 0.010629 -9.133089 -1.071151 1.170538 1.289627
25 24.790310 -0.000009 -0.000008 0.583717 -0.750024 -0.736839
26 42.522377 0.000006 -0.000007 -0.000000 0.000000 -0.544962
27 29.671480 0.000010 -0.000003 1.569921 0.000000 -0.000000
28 12.717155 -2.207696 -0.037941 0.000670 -0.000562 0.698132
29 5.726304 -0.000005 0.000008 0.000000 0.000000 0.523599
30 5.726306 0.000002 -0.000009 -0.000000 0.000000 0.523599
31 0.0 0.0 0.0 0.0 0.0 0.0
32 21.251347 5.875723 -5.732559 0.753433 2.781282 -1.068731
33 -31.702126 -1.096463 0.492839 0.000000 0.882145 0.000000
34 -30.644957 0.216293 -0.985439 0.000000 0.000000 0.523599
35 -15.820283 -0.434253 0.497701 0.000000 0.000000 1.483530
36 -17.006531 -0.978974 -0.002437 -0.000000 -0.000000 0.000000
37 0.000016 0.010577 9.133089 1.071155 -1.170543 1.289623
38 24.790306 0.000008 -0.000008 -0.588053 0.779750 -0.698422
39 42.522373 -0.000001 -0.000003 0.000000 0.000000 -0.642111
40 29.671490 0.000006 -0.000001 -1.569921 -0.000000 0.000000
41 12.717151 -2.207704 0.037932 -0.000670 0.000562 0.698132
42 5.726302 -0.000009 -0.000009 0.000000 -0.000000 0.523599
43 5.726308 0.000005 0.000009 -0.000000 0.000000 0.523599
44 0.0 0.0 0.0 0.0 0.0 0.0
45 20.623093 6.852354 7.043070 1.038630 0.512869 -0.499166
46 31.575491 0.620253 0.492833 0.000000 -1.223454 -0.000000
47 30.971254 0.930377 0.494048 0.000000 -0.000000 -0.610865
48 15.321678 -1.085430 0.492614 -0.000000 0.000000 -1.047197
49 16.917137 -1.550605 -4.950780 -0.000000 -0.000000 0.000000
50 -51.843418 0.032812 88.547806 -1.570796 -1.570796 0.000000
time 5
0 -0.225072 -194.163376 105.685379 0.000000 0.000000 -1.570795
1 -0.000000 -0.000000 -104.860779 0.000000 0.000000 1.570795
2 -12.295960 -0.343261 0.000000 0.000000 -1.554631 -1.570794
3 -0.000024 0.000012 10.281536 -0.010206 3.129061 -0.683552
4 57.833656 -0.000014 -0.000000 -0.000000 -0.000000 -1.160976
5 41.126141 0.000009 -0.000000 0.000000 0.000000 0.320076
6 11.591197 22.213272 0.000000 -0.000000 0.000000 1.570796
7 4.161450 -0.000003 0.000000 0.000000 0.000000 0.000000
8 4.161464 0.000002 0.000001 0.000000 0.000000 0.000000
9 0.0 0.0 0.0 0.0 0.0 0.0
10 0.000008 -0.000015 -10.281536 0.167827 3.078845 -0.030607
11 57.833656 -0.000004 -0.000000 -0.000000 -0.000000 -0.717442
12 41.126141 0.000005 -0.000001 0.001161 0.041103 0.597229
13 11.591198 22.213255 0.000001 0.000000 0.000000 1.570796
14 4.161448 -0.000001 0.000002 0.000000 0.000000 0.000000
15 4.161461 0.000001 -0.000001 0.000000 0.000000 0.000000
16 0.0 0.0 0.0 0.0 0.0 0.0
17 3.605221 -0.007127 0.057649 0.050286 -0.073152 0.785060
18 12.690479 -0.022088 -0.000261 0.011690 0.074583 -0.124174
19 27.984320 -0.007286 0.000001 -0.000001 -0.000002 0.815398
20 13.320767 -0.000004 -0.000000 -0.061289 -0.056216 -1.303608
21 0.0 0.0 0.0 0.0 0.0 0.0
22 0.782547 8.800556 0.115179 0.000000 0.000030 -1.570794
23 -17.597868 -1.948099 -1.525802 0.000000 0.000000 0.000000
24 0.000021 0.010629 -9.133089 -1.071151 1.170538 1.289627
25 24.790312 -0.000003 0.000006 0.732818 -0.482921 -0.793396
26 42.522373 0.000006 -0.000006 0.000000 0.000000 -0.517327
27 29.671505 -0.000006 -0.000008 1.569921 0.000000 -0.000000
28 12.717158 -2.207699 -0.037926 0.000670 -0.000562 0.698132
29 5.726302 -0.000000 -0.000005 -0.000000 -0.000000 0.523599
30 5.726305 0.000001 -0.000006 0.000000 0.000000 0.523599
31 0.0 0.0 0.0 0.0 0.0 0.0
32 21.251348 5.875723 -5.732557 0.706091 2.934641 -1.012185
33 -31.702129 -1.096455 0.492826 0.000000 0.964671 0.000000
34 -30.644947 0.216284 -0.985444 0.000000 0.000000 0.523599
35 -15.820272 -0.434252 0.497700 0.000000 0.000000 1.483530
36 -17.006536 -0.978974 -0.002434 0.000000 -0.000000 -0.000000
37 0.000016 0.010594 9.133088 1.071155 -1.170543 1.289623
38 24.790306 -0.000003 0.000012 -0.726447 0.525800 -0.979703
39 42.522377 -0.000009 -0.000007 0.000000 0.000000 -0.446026
40 29.671486 0.000007 -0.000004 -1.569921 -0.000000 -0.000000
41 12.717160 -2.207704 0.037926 -0.000670 0.000562 0.698132
42 5.726303 -0.000009 -0.000003 -0.000000 -0.000000 0.523599
43 5.726300 0.000003 -0.000001 -0.000000 0.000000 0.523599
44 0.0 0.0 0.0 0.0 0.0 0.0
45 20.623095 6.852356 7.043073 0.906027 0.403070 -0.667783
46 31.575487 0.620265 0.492832 0.000001 -1.309859 -0.000001
47 30.971262 0.930380 0.494043 0.000000 -0.000000 -0.610865
48 15.321681 -1.085427 0.492625 -0.000000 0.000000 -1.047197
49 16.917141 -1.550611 -4.950781 -0.000000 -0.000000 -0.000000
50 -51.843418 0.032807 88.547806 -1.570796 -1.570796 0.000000
time 6
0 -0.225072 -239.914001 97.569626 0.000000 0.000000 -1.570795
1 -0.000000 -0.000000 -93.351440 0.000000 0.000000 1.570795
2 -13.820680 -0.430119 0.000000 0.000000 -1.483529 -1.570795
3 -0.000019 0.000011 10.281536 -0.049285 3.069545 -0.600747
4 57.833652 -0.000003 -0.000000 0.000000 -0.000000 -0.287268
5 41.126133 -0.000022 -0.000000 0.000000 -0.000000 -0.136256
6 11.591200 22.213261 0.000000 -0.000000 -0.000000 1.570796
7 4.161468 -0.000004 0.000000 0.000000 0.000000 0.000000
8 4.161447 0.000001 -0.000000 0.000000 0.000000 0.000000
9 0.0 0.0 0.0 0.0 0.0 0.0
10 0.000008 -0.000015 -10.281537 0.374497 3.080329 0.408498
11 57.833641 0.000001 -0.000001 -0.000000 0.000000 -0.810868
12 41.126148 0.000002 0.000003 -0.288261 -0.149137 0.459596
13 11.591199 22.213266 -0.000000 0.000000 0.000000 1.570796
14 4.161455 -0.000012 0.000000 -0.000000 -0.000000 0.523599
15 4.161470 0.000001 -0.000000 0.000000 0.000000 0.000000
16 0.0 0.0 0.0 0.0 0.0 0.0
17 3.592017 -0.007128 0.313641 -0.000341 -0.123335 0.790028
18 12.695190 -0.022112 -0.001935 0.087272 0.079270 0.094527
19 27.984352 -0.007269 -0.000001 -0.000001 -0.000002 0.815398
20 13.320744 0.000007 -0.000000 -0.101076 -0.101722 -1.518120
21 0.0 0.0 0.0 0.0 0.0 0.0
22 0.782547 8.800538 0.115179 0.000000 0.000030 -1.570794
23 -17.597855 -1.948096 -1.525802 0.000000 0.000000 0.000000
24 -0.000007 0.010632 -9.133089 -1.071151 1.170538 1.289627
25 24.790304 0.000010 0.000015 0.716696 -0.592053 -0.624207
26 42.522388 -0.000004 0.000005 -0.000000 -0.000000 -0.813909
27 29.671501 -0.000012 -0.000008 1.569921 -0.000000 0.000000
28 12.717147 -2.207698 -0.037943 0.000670 -0.000562 0.698132
29 5.726300 0.000007 0.000000 -0.000000 0.000000 0.523599
30 5.726302 -0.000011 0.000004 -0.000000 -0.000000 0.523599
31 0.0 0.0 0.0 0.0 0.0 0.0
32 21.251347 5.875731 -5.732550 0.651124 3.085027 -0.949594
33 -31.702118 -1.096470 0.492824 0.000000 1.047197 0.000000
34 -30.644947 0.216277 -0.985436 0.000000 -0.000000 0.523599
35 -15.820271 -0.434257 0.497699 0.000000 0.000000 1.483530
36 -17.006538 -0.978988 -0.002429 -0.000000 0.000000 0.000000
37 -0.000014 0.010591 9.133089 1.071155 -1.170543 1.289623
38 24.790304 0.000006 -0.000007 -0.678550 0.607338 -0.966196
39 42.522381 -0.000005 -0.000004 0.000000 0.000000 -0.596883
40 29.671495 -0.000012 0.000005 -1.569921 -0.000000 -0.000000
41 12.717152 -2.207689 0.037936 -0.000670 0.000562 0.698132
42 5.726296 -0.000004 0.000009 -0.000000 -0.000000 0.523599
43 5.726304 0.000006 0.000004 0.000000 -0.000000 0.523599
44 0.0 0.0 0.0 0.0 0.0 0.0
45 20.623093 6.852358 7.043060 0.799636 0.276065 -0.813153
46 31.575487 0.620259 0.492845 -0.000000 -1.396264 0.000000
47 30.971256 0.930374 0.494046 0.000000 -0.000000 -0.610865
48 15.321685 -1.085418 0.492618 -0.000000 0.000000 -1.047198
49 16.917139 -1.550608 -4.950778 -0.000000 -0.000000 -0.000000
50 -51.843414 0.032816 88.547806 -1.570796 -1.570796 0.000000
end
