version 1
nodes
0 "Bip01" -1
1 "Bip01 Footsteps" 0
2 "Bip01 Pelvis" 0
3 "Bip01 L Thigh" 2
4 "Bip01 L Calf" 3
5 "Bip01 L Foot" 4
6 "Bip01 L Toe0" 5
7 "Bip01 L Toe01" 6
8 "Bip01 L Toe02" 7
9 "Null 9" -1
10 "Bip01 R Thigh" 2
11 "Bip01 R Calf" 10
12 "Bip01 R Foot" 11
13 "Bip01 R Toe0" 12
14 "Bip01 R Toe01" 13
15 "Bip01 R Toe02" 14
16 "Null 16" -1
17 "Bip01 Spine" 2
18 "Bip01 Spine1" 17
19 "Bip01 Neck" 18
20 "Bip01 Head" 19
21 "Null 21" -1
22 "Box03" 20
23 "Box04" 22
24 "Bip01 R Clavicle" 19
25 "Bip01 R UpperArm" 24
26 "Bip01 R Forearm" 25
27 "Bip01 R Hand" 26
28 "Bip01 R Finger0" 27
29 "Bip01 R Finger01" 28
30 "Bip01 R Finger02" 29
31 "Null 31" -1
32 "Box08" 24
33 "Box09" 32
34 "Box10" 33
35 "Box11" 34
36 "Box12" 35
37 "Bip01 L Clavicle" 19
38 "Bip01 L UpperArm" 37
39 "Bip01 L Forearm" 38
40 "Bip01 L Hand" 39
41 "Bip01 L Finger0" 40
42 "Bip01 L Finger01" 41
43 "Bip01 L Finger02" 42
44 "Null 44" -1
45 "Box01" 37
46 "Box02" 45
47 "Box05" 46
48 "Box06" 47
49 "Box07" 48
50 "ewr" 2
end
skeleton
time 0
0 -0.225072 3.207345 99.988083 0.000000 -0.087266 -1.570795
1 -8.827487 -0.000000 -100.898643 0.087266 0.000000 1.570795
2 -13.820677 -0.430119 0.000000 0.000000 -1.483529 -1.570795
3 -0.000015 0.000019 10.281537 -0.118870 -3.044289 -0.078584
4 57.833652 0.000000 0.000003 0.000000 -0.000000 -0.787723
5 41.126144 0.000001 0.000002 -0.046461 -0.173501 0.684163
6 11.591199 22.213264 0.000000 -0.000000 -0.000000 1.570796
7 4.161460 -0.000000 0.000001 0.000000 0.000000 0.000000
8 4.161460 0.000000 -0.000002 0.000000 0.000000 0.000000
9 0.0 0.0 0.0 0.0 0.0 0.0
10 0.000013 -0.000011 -10.281536 0.352580 2.837004 -0.637738
11 57.833660 0.000005 -0.000003 0.000000 -0.000000 -0.860604
12 41.126148 0.000002 -0.000002 -0.113255 -0.056631 0.211253
13 11.591197 22.213261 -0.000000 0.000000 0.000000 1.570796
14 4.161460 -0.000000 -0.000001 -0.000000 -0.000000 0.523599
15 4.161458 0.000000 0.000001 0.000000 0.000000 0.000000
16 0.0 0.0 0.0 0.0 0.0 0.0
17 3.592020 -0.007113 0.313641 -0.000341 -0.123334 0.790028
18 12.695188 -0.022107 -0.001935 0.087272 0.079270 0.094527
19 27.984337 -0.007270 -0.000001 -0.000001 -0.000002 0.815398
20 13.320763 -0.000007 0.000000 -0.101076 -0.101722 -1.518120
21 0.0 0.0 0.0 0.0 0.0 0.0
22 0.782549 8.800554 0.115179 0.000000 0.000030 -1.570794
23 -17.597870 -1.948086 -1.525803 0.000000 0.000000 0.000000
24 0.000006 0.010623 -9.133089 -1.071151 1.170538 1.289627
25 24.790310 0.000004 -0.000004 0.716696 -0.592053 -0.624207
26 42.522385 -0.000001 0.000000 -0.000000 -0.000000 -0.813909
27 29.671495 0.000002 0.000001 1.569921 0.000000 0.000000
28 12.717156 -2.207699 -0.037934 0.000670 -0.000562 0.698132
29 5.726300 0.000002 -0.000001 0.000000 -0.000000 0.523599
30 5.726305 -0.000002 -0.000005 -0.000000 0.000000 0.523599
31 0.0 0.0 0.0 0.0 0.0 0.0
32 21.251354 5.875728 -5.732554 1.324930 -2.592969 -0.459508
33 -31.702127 -1.096458 0.492829 0.000000 0.872665 0.000000
34 -30.644955 0.216293 -0.985439 0.000000 0.000000 0.523599
35 -15.820279 -0.434255 0.497699 0.000000 0.000000 0.349066
36 -17.006536 -0.978972 -0.002436 -0.000000 0.000000 0.000000
37 0.000005 0.010574 9.133090 1.071155 -1.170543 1.289623
38 24.790310 0.000001 0.000005 -0.678550 0.607338 -0.966196
39 42.522385 -0.000001 0.000001 -0.000000 -0.000000 -0.596883
40 29.671490 -0.000001 0.000001 -1.569921 0.000000 0.000000
41 12.717157 -2.207699 0.037934 -0.000670 0.000562 0.698132
42 5.726298 -0.000001 -0.000003 -0.000000 -0.000000 0.523599
43 5.726305 0.000001 0.000004 0.000000 0.000000 0.523599
44 0.0 0.0 0.0 0.0 0.0 0.0
45 20.623098 6.852352 7.043073 1.456947 -0.399988 -0.592835
46 31.575485 0.620255 0.492829 -0.000000 -1.134464 0.000000
47 30.971252 0.930379 0.494048 0.000000 -0.000000 -0.610865
48 15.321683 -1.085430 0.492618 0.000000 0.000000 -0.261799
49 16.917137 -1.550605 -4.950777 -0.000000 -0.000000 0.000000
50 -51.843414 0.032811 88.547813 -1.570796 -1.570796 0.000000
time 1
0 -0.111224 13.801762 99.371864 0.000000 -0.087266 -1.570795
1 -8.791879 -0.000000 -100.491646 0.087266 0.000000 1.570795
2 -6.157461 -0.131405 -0.000004 0.000000 -1.483529 -1.570795
3 -0.000017 0.000019 10.281536 -0.117889 -3.047752 -0.115792
4 57.833664 0.000001 0.000002 -0.000000 0.000000 -0.817374
5 41.126148 -0.000002 0.000000 -0.044837 -0.165434 0.677171
6 11.591199 22.213264 -0.000001 -0.000000 -0.000000 1.570796
7 4.161460 0.000000 0.000000 0.000000 0.000000 0.000000
8 4.161460 -0.000000 -0.000001 0.000000 0.000000 0.000000
9 0.0 0.0 0.0 0.0 0.0 0.0
10 0.000012 -0.000011 -10.281537 0.351994 2.840794 -0.647544
11 57.833660 0.000002 -0.000003 -0.000000 -0.000000 -0.818881
12 41.126148 0.000001 0.000002 -0.110982 -0.063441 0.161916
13 11.591197 22.213261 0.000000 0.000000 0.000000 1.570796
14 4.161462 -0.000000 -0.000001 -0.000000 -0.000000 0.523599
15 4.161460 0.000000 0.000001 0.000000 0.000000 0.000000
16 0.0 0.0 0.0 0.0 0.0 0.0
17 3.588828 -0.009273 0.313172 0.046349 -0.114334 0.401119
18 12.690558 -0.022105 -0.000563 0.025281 0.041430 -0.120381
19 27.984341 -0.007278 -0.000000 -0.000001 -0.000002 0.815398
20 13.320763 -0.000003 0.000000 -0.102175 -0.042176 -1.048688
21 0.0 0.0 0.0 0.0 0.0 0.0
22 0.782559 8.800552 0.115179 0.000000 0.000030 -1.570794
23 -17.597872 -1.948081 -1.525803 0.000000 0.000000 0.000000
24 0.000001 0.010636 -9.133090 -1.071151 1.170538 1.289627
25 24.790308 0.000001 0.000000 1.619245 -0.432467 -0.463065
26 42.522381 -0.000002 0.000003 0.000000 -0.000000 -2.192409
27 29.671490 0.000001 0.000000 1.569921 0.000000 0.000000
28 12.717157 -2.207699 -0.037933 0.000670 -0.000562 0.698131
29 5.726299 0.000003 0.000001 -0.000000 0.000000 0.523599
30 5.726308 0.000002 -0.000003 0.000000 -0.000000 0.523599
31 0.0 0.0 0.0 0.0 0.0 0.0
32 21.251345 5.875731 -5.732561 -0.369531 -2.934635 0.121717
33 -31.702127 -1.096460 0.492823 0.291438 0.509682 0.675835
34 -30.644953 0.216290 -0.985438 -0.000000 0.000000 0.523599
35 -15.820285 -0.434253 0.497701 -0.000000 0.000000 0.349066
36 -17.006535 -0.978977 -0.002443 -0.000000 -0.000000 0.000000
37 0.000006 0.010581 9.133090 1.071155 -1.170543 1.289623
38 24.790310 0.000000 -0.000006 -1.609068 0.476950 -0.674914
39 42.522377 0.000004 -0.000004 -0.000000 0.000000 -2.192409
40 29.671488 -0.000000 -0.000004 -1.569921 0.000000 -0.000000
41 12.717149 -2.207698 0.037932 -0.000670 0.000562 0.698132
42 5.726301 0.000001 0.000003 0.000000 0.000000 0.523599
43 5.726305 0.000001 0.000001 -0.000000 -0.000000 0.523599
44 0.0 0.0 0.0 0.0 0.0 0.0
45 20.623096 6.852355 7.043066 -0.668065 -0.275645 0.005725
46 31.575485 0.620259 0.492825 0.367903 -0.562552 -0.787242
47 30.971256 0.930379 0.494048 0.000000 -0.000000 -0.610865
48 15.321684 -1.085428 0.492625 -0.000000 -0.000000 -0.261799
49 16.917147 -1.550606 -4.950779 -0.000000 0.000000 -0.000000
50 -51.843418 0.032811 88.547821 -1.570796 -1.570796 0.000000
time 2
0 0.002624 22.888382 98.625359 0.000000 -0.087266 -1.570795
1 -8.708717 -0.000000 -99.541107 0.087266 0.000000 1.570795
2 2.956514 0.173318 -0.000005 0.000000 -1.483529 -1.570795
3 -0.000017 0.000018 10.281536 -0.119922 -3.052418 -0.107679
4 57.833656 0.000000 0.000000 0.000000 0.000000 -0.811737
5 41.126144 -0.000000 -0.000001 -0.044045 -0.161619 0.679980
6 11.591199 22.213264 -0.000000 -0.000000 -0.000000 1.570796
7 4.161460 -0.000000 0.000001 0.000000 0.000000 0.000000
8 4.161460 0.000000 -0.000002 0.000000 0.000000 0.000000
9 0.0 0.0 0.0 0.0 0.0 0.0
10 0.000011 -0.000012 -10.281537 0.350814 2.835202 -0.643949
11 57.833660 0.000005 -0.000003 0.000000 -0.000000 -0.823277
12 41.126152 0.000002 0.000002 -0.113123 -0.056971 0.167737
13 11.591196 22.213261 -0.000000 0.000000 0.000000 1.570796
14 4.161462 -0.000001 -0.000001 -0.000000 -0.000000 0.523599
15 4.161459 0.000002 0.000000 0.000000 0.000000 0.000000
16 0.0 0.0 0.0 0.0 0.0 0.0
17 3.585057 -0.010065 0.312773 0.086057 -0.088456 0.013726
18 12.685974 -0.021042 0.000605 -0.027184 -0.008660 -0.332410
19 27.984346 -0.007270 -0.000000 -0.000001 -0.000002 0.815398
20 13.320758 0.000004 0.000000 -0.058634 -0.003516 -0.551452
21 0.0 0.0 0.0 0.0 0.0 0.0
22 0.782550 8.800553 0.115179 0.000000 0.000030 -1.570794
23 -17.597874 -1.948081 -1.525803 0.000000 0.000000 0.000000
24 -0.000001 0.010635 -9.133090 -1.071151 1.170538 1.289627
25 24.790308 0.000001 -0.000006 1.138176 -0.542173 0.125575
26 42.522388 0.000002 0.000003 0.000000 -0.000000 -1.498281
27 29.671490 -0.000002 0.000005 1.569921 0.000000 0.000000
28 12.717145 -2.207698 -0.037932 0.000670 -0.000562 0.698132
29 5.726302 -0.000004 -0.000006 -0.000000 -0.000000 0.523599
30 5.726304 0.000005 0.000003 0.000000 -0.000000 0.523599
31 0.0 0.0 0.0 0.0 0.0 0.0
32 21.251347 5.875726 -5.732564 -0.509068 3.086197 0.042847
33 -31.702124 -1.096457 0.492830 0.289756 0.197455 0.988832
34 -30.644949 0.216287 -0.985438 -0.000000 0.000000 0.523599
35 -15.820281 -0.434243 0.497702 0.000000 -0.000000 0.349066
36 -17.006536 -0.978971 -0.002430 0.000000 -0.000000 0.000000
37 -0.000003 0.010591 9.133089 1.071155 -1.170543 1.289623
38 24.790308 0.000001 0.000006 -1.123883 0.576566 0.021480
39 42.522388 0.000006 -0.000003 -0.000000 0.000000 -1.498281
40 29.671490 0.000001 -0.000001 -1.569921 -0.000000 0.000000
41 12.717146 -2.207696 0.037934 -0.000670 0.000562 0.698131
42 5.726302 0.000006 0.000006 0.000000 -0.000000 0.523599
43 5.726309 0.000008 -0.000009 -0.000000 0.000000 0.523599
44 0.0 0.0 0.0 0.0 0.0 0.0
45 20.623095 6.852356 7.043076 -0.421881 0.055849 0.053811
46 31.575489 0.620261 0.492830 0.305349 -0.171855 -1.073705
47 30.971254 0.930377 0.494042 0.000000 -0.000000 -0.610865
48 15.321676 -1.085431 0.492615 0.000000 0.000000 -0.261799
49 16.917150 -1.550609 -4.950778 -0.000000 0.000000 -0.000000
50 -51.843418 0.032810 88.547821 -1.570796 -1.570796 0.000000
time 3
0 0.116472 39.406761 96.079498 0.000000 -0.087266 -1.570795
1 -8.490879 -0.000000 -97.051193 0.087266 0.000000 1.570795
2 7.840900 0.101512 0.000000 0.000000 -1.483529 -1.570795
3 -0.000018 0.000019 10.281537 -0.104202 -3.042635 -0.321504
4 57.833652 -0.000000 0.000002 0.000000 0.000000 -1.004208
5 41.126144 0.000000 -0.000001 -0.043067 -0.146880 0.659665
6 11.591198 22.213264 -0.000001 -0.000000 -0.000000 1.570796
7 4.161460 0.000000 0.000000 0.000000 0.000000 0.000000
8 4.161460 -0.000000 -0.000001 0.000000 0.000000 0.000000
9 0.0 0.0 0.0 0.0 0.0 0.0
10 0.000011 -0.000011 -10.281537 0.322651 2.826916 -0.767904
11 57.833660 0.000001 0.000001 0.000000 -0.000000 -0.928330
12 41.126156 0.000001 0.000002 -0.100070 -0.086917 0.157715
13 11.591196 22.213259 0.000001 0.000000 0.000000 1.570796
14 4.161458 -0.000001 0.000000 -0.000000 -0.000000 0.523599
15 4.161464 -0.000000 -0.000000 0.000000 0.000000 0.000000
16 0.0 0.0 0.0 0.0 0.0 0.0
17 3.583173 -0.009912 0.312621 0.101003 -0.070896 -0.173509
18 12.682083 -0.019220 0.001369 -0.061603 -0.059448 -0.522808
19 27.984325 -0.007275 0.000000 -0.000001 -0.000002 0.815398
20 13.320753 -0.000001 -0.000000 -0.001892 0.005991 -0.116767
21 0.0 0.0 0.0 0.0 0.0 0.0
22 0.782547 8.800554 0.115179 0.000000 0.000030 -1.570794
23 -17.597874 -1.948097 -1.525803 0.000000 0.000000 0.000000
24 -0.000004 0.010630 -9.133089 -1.071151 1.170538 1.289627
25 24.790308 -0.000004 -0.000011 0.962964 -0.000514 0.927107
26 42.522385 -0.000006 -0.000000 -0.000000 -0.000000 -1.032436
27 29.671490 0.000007 0.000003 1.569921 0.000000 0.000000
28 12.717149 -2.207701 -0.037933 0.000670 -0.000562 0.698132
29 5.726304 -0.000009 0.000002 -0.000000 0.000000 0.523599
30 5.726307 -0.000004 -0.000003 0.000000 0.000000 0.523599
31 0.0 0.0 0.0 0.0 0.0 0.0
32 21.251348 5.875725 -5.732561 -0.308709 -2.540539 -0.140411
33 -31.702124 -1.096453 0.492824 0.209088 0.218142 0.705814
34 -30.644955 0.216291 -0.985442 0.000000 0.000000 0.523599
35 -15.820285 -0.434250 0.497699 0.000000 -0.000000 0.349066
36 -17.006538 -0.978969 -0.002433 0.000000 0.000000 -0.000000
37 0.000011 0.010583 9.133089 1.071155 -1.170543 1.289623
38 24.790308 0.000005 0.000003 -0.965369 -0.006786 0.917176
39 42.522385 0.000002 0.000001 0.000000 0.000000 -1.032436
40 29.671488 0.000002 -0.000004 -1.569921 -0.000000 0.000000
41 12.717148 -2.207699 0.037934 -0.000670 0.000562 0.698132
42 5.726305 0.000002 -0.000001 0.000000 -0.000000 0.523599
43 5.726301 0.000007 -0.000003 -0.000000 0.000000 0.523599
44 0.0 0.0 0.0 0.0 0.0 0.0
45 20.623095 6.852359 7.043076 -0.887890 -0.297591 0.400730
46 31.575487 0.620264 0.492833 0.331975 -0.524706 -0.824566
47 30.971252 0.930375 0.494040 0.000000 -0.000000 -0.610865
48 15.321671 -1.085430 0.492619 0.000000 -0.000000 -0.261799
49 16.917137 -1.550606 -4.950778 -0.000000 -0.000000 -0.000000
50 -51.843418 0.032811 88.547813 -1.570796 -1.570796 0.000000
time 4
0 0.230320 45.830193 81.990120 -1.570795 -1.570796 0.000000
1 -82.234390 0.000000 -0.000000 1.570796 0.000001 1.570796
2 -6.490387 -1.202695 0.000001 0.000000 -1.483529 -1.570795
3 -0.000015 0.000012 10.281537 -0.082973 -3.003640 0.014436
4 57.833649 -0.000002 -0.000001 0.000000 -0.000000 -1.215930
5 41.126133 0.000005 -0.000001 0.152725 -0.190003 0.136995
6 11.591203 22.213261 -0.000002 -0.000000 0.000000 1.570796
7 4.161464 0.000003 0.000001 0.000000 0.000000 0.000000
8 4.161464 -0.000001 -0.000001 0.000000 0.000000 0.000000
9 0.0 0.0 0.0 0.0 0.0 0.0
10 0.000011 -0.000015 -10.281538 0.466722 2.738569 0.328789
11 57.833652 0.000003 -0.000003 0.000000 0.000000 -1.203906
12 41.126141 -0.000001 -0.000002 -0.408865 0.074095 -0.026391
13 11.591199 22.213261 -0.000001 0.000000 0.000000 1.570796
14 4.161461 0.000001 0.000001 -0.000000 -0.000000 0.523599
15 4.161459 0.000001 -0.000001 0.000000 0.000000 0.000000
16 0.0 0.0 0.0 0.0 0.0 0.0
17 3.591376 -0.007707 0.313532 0.010464 -0.122892 0.702096
18 12.680429 -0.018183 0.001248 -0.056190 -0.064587 -0.610091
19 27.984335 -0.007271 -0.000001 -0.000001 -0.000002 0.815398
20 13.320760 0.000008 -0.000001 -0.004138 0.078327 -0.463228
21 0.0 0.0 0.0 0.0 0.0 0.0
22 0.782553 8.800553 0.115178 0.000000 0.000030 -1.570794
23 -17.597872 -1.948097 -1.525803 0.000000 0.000000 0.000000
24 0.000005 0.010632 -9.133089 -1.071151 1.170538 1.289627
25 24.790310 -0.000003 0.000007 1.660536 -0.408610 0.764648
26 42.522377 -0.000006 0.000006 -0.000000 -0.000000 -0.997817
27 29.671484 0.000006 0.000001 1.569921 0.000000 -0.000000
28 12.717149 -2.207695 -0.037934 0.000670 -0.000562 0.698131
29 5.726301 0.000003 -0.000001 0.000000 -0.000000 0.523599
30 5.726303 0.000003 0.000001 0.000000 -0.000000 0.523599
31 0.0 0.0 0.0 0.0 0.0 0.0
32 21.251348 5.875723 -5.732553 0.265531 -2.048268 -0.628552
33 -31.702126 -1.096462 0.492826 0.123848 0.327201 0.369536
34 -30.644953 0.216285 -0.985441 0.000000 0.000000 0.523599
35 -15.820276 -0.434254 0.497702 -0.000000 0.000000 0.349066
36 -17.006536 -0.978970 -0.002441 -0.000000 -0.000000 -0.000000
37 0.000007 0.010577 9.133088 1.071155 -1.170543 1.289623
38 24.790308 0.000008 -0.000012 -1.708525 0.267304 0.697704
39 42.522388 -0.000004 0.000007 0.000000 -0.000000 -0.997817
40 29.671492 -0.000009 0.000006 -1.569921 -0.000000 0.000000
41 12.717151 -2.207699 0.037932 -0.000670 0.000562 0.698132
42 5.726305 -0.000001 -0.000002 -0.000000 -0.000000 0.523599
43 5.726303 -0.000005 0.000007 0.000000 -0.000000 0.523599
44 0.0 0.0 0.0 0.0 0.0 0.0
45 20.623095 6.852356 7.043069 -0.054685 -0.871300 -0.528593
46 31.575491 0.620257 0.492829 0.123172 -0.911531 -0.293554
47 30.971249 0.930379 0.494043 0.000000 -0.000000 -0.610865
48 15.321668 -1.085432 0.492620 0.000000 0.000000 -0.261799
49 16.917147 -1.550601 -4.950776 -0.000000 -0.000000 -0.000000
50 -51.843422 0.032806 88.547829 -1.570796 -1.570796 0.000000
time 5
0 0.344168 72.541847 59.956341 -0.000000 -1.919862 -1.570795
1 -49.091652 -0.000003 17.867901 -1.221730 3.141591 -1.570796
2 -6.490378 -1.202695 0.000002 -0.000001 -1.483529 -1.570795
3 -0.000014 0.000018 10.281537 -0.089057 -2.990862 0.081016
4 57.833656 -0.000004 0.000006 0.000000 0.000000 -1.268845
5 41.126137 -0.000002 -0.000002 0.225778 -0.133362 -0.095566
6 11.591194 22.213261 0.000002 -0.000000 0.000000 1.570796
7 4.161462 0.000001 -0.000000 0.000000 0.000000 0.000000
8 4.161459 -0.000001 0.000000 0.000000 0.000000 0.000000
9 0.0 0.0 0.0 0.0 0.0 0.0
10 0.000011 -0.000015 -10.281537 0.228495 2.698766 -0.739708
11 57.833656 -0.000009 -0.000006 0.000000 -0.000000 -1.770116
12 41.126141 -0.000002 0.000003 -0.107339 -0.091816 -0.309519
13 11.591197 22.213264 0.000001 0.000000 0.000000 1.570796
14 4.161462 0.000003 -0.000001 -0.000000 0.000000 0.523599
15 4.161459 0.000000 -0.000001 0.000000 0.000000 0.000000
16 0.0 0.0 0.0 0.0 0.0 0.0
17 3.591381 -0.007709 0.313533 0.010464 -0.122892 0.702096
18 12.680443 -0.018176 0.001248 -0.056190 -0.064587 -0.610091
19 27.984339 -0.007277 0.000001 -0.000001 -0.000002 0.815398
20 13.320764 -0.000002 0.000000 -0.074515 0.024520 -1.663894
21 0.0 0.0 0.0 0.0 0.0 0.0
22 0.782555 8.800557 0.115179 0.000000 0.000030 -1.570794
23 -17.597866 -1.948091 -1.525802 0.000000 0.000000 0.000000
24 0.000005 0.010633 -9.133088 -1.071151 1.170538 1.289627
25 24.790306 -0.000003 0.000005 1.656544 -0.418259 0.706858
26 42.522377 0.000002 0.000004 -0.000000 -0.000000 -1.040838
27 29.671488 -0.000002 0.000006 1.569921 0.000000 0.000000
28 12.717152 -2.207700 -0.037930 0.000670 -0.000562 0.698131
29 5.726305 -0.000005 0.000001 0.000000 0.000000 0.523599
30 5.726302 0.000005 0.000003 0.000000 -0.000000 0.523599
31 0.0 0.0 0.0 0.0 0.0 0.0
32 21.251347 5.875725 -5.732548 -0.191986 -2.714865 0.104646
33 -31.702122 -1.096460 0.492833 0.112165 0.400691 0.336739
34 -30.644949 0.216286 -0.985438 0.000000 0.000000 0.523599
35 -15.820290 -0.434250 0.497700 -0.000000 0.000000 0.349066
36 -17.006529 -0.978980 -0.002434 0.000000 -0.000000 -0.000000
37 0.000007 0.010583 9.133088 1.071155 -1.170543 1.289623
38 24.790308 -0.000004 -0.000002 -1.696117 0.274626 0.642394
39 42.522377 0.000002 0.000006 0.000000 0.000000 -1.040839
40 29.671495 -0.000001 -0.000002 -1.569921 -0.000000 0.000000
41 12.717149 -2.207704 0.037931 -0.000670 0.000562 0.698132
42 5.726299 -0.000000 -0.000004 -0.000000 -0.000000 0.523599
43 5.726307 -0.000001 0.000003 0.000000 -0.000000 0.523599
44 0.0 0.0 0.0 0.0 0.0 0.0
45 20.623091 6.852352 7.043074 -0.677724 -0.885923 0.438920
46 31.575493 0.620256 0.492832 0.123848 -0.327201 -0.369536
47 30.971245 0.930379 0.494045 0.000000 -0.000000 -0.610865
48 15.321673 -1.085428 0.492619 0.000000 0.000000 -0.261799
49 16.917143 -1.550604 -4.950777 -0.000000 -0.000000 -0.000000
50 -51.843414 0.032811 88.547813 -1.570796 -1.570796 0.000000
time 6
0 0.458016 92.539536 27.123915 -0.000000 -1.919862 -1.570795
1 -4.406787 -0.000000 1.603939 -1.221730 3.141591 -1.570796
2 -6.490385 -1.202695 0.000003 -0.000001 -1.483529 -1.570795
3 -0.000015 0.000017 10.281536 -0.111978 -3.036479 0.082536
4 57.833652 -0.000004 0.000005 0.000000 0.000000 -0.838729
5 41.126137 0.000000 0.000001 0.165815 -0.132260 -0.341928
6 11.591198 22.213261 0.000001 -0.000000 -0.000000 1.570796
7 4.161458 -0.000000 0.000000 0.000000 0.000000 0.000000
8 4.161460 0.000001 -0.000000 0.000000 0.000000 0.000000
9 0.0 0.0 0.0 0.0 0.0 0.0
10 0.000008 -0.000013 -10.281537 0.450752 2.800781 0.072673
11 57.833660 -0.000003 -0.000002 0.000000 -0.000000 -0.893567
12 41.126141 0.000002 0.000002 -0.274284 -0.016776 -0.437396
13 11.591198 22.213259 0.000002 0.000000 -0.000000 1.570796
14 4.161463 -0.000001 -0.000000 -0.000000 0.000000 0.523599
15 4.161458 -0.000002 -0.000001 0.000000 0.000000 0.000000
16 0.0 0.0 0.0 0.0 0.0 0.0
17 3.591378 -0.007706 0.313533 0.010464 -0.122892 0.702096
18 12.680442 -0.018178 0.001248 -0.056190 -0.064587 -0.610091
19 27.984337 -0.007278 0.000001 -0.000001 -0.000002 0.815398
20 13.320760 -0.000002 0.000000 1.371957 0.074584 -0.725771
21 0.0 0.0 0.0 0.0 0.0 0.0
22 0.782554 8.800552 0.115178 0.000000 0.000030 -1.570794
23 -17.597872 -1.948098 -1.525803 0.000000 0.000000 0.000000
24 0.000008 0.010629 -9.133089 -1.071151 1.170538 1.289627
25 24.790306 -0.000000 0.000002 1.650395 -0.402553 0.679193
26 42.522381 0.000008 -0.000003 0.000000 0.000000 -1.032436
27 29.671492 -0.000010 -0.000007 1.569921 0.000000 -0.000000
28 12.717152 -2.207700 -0.037933 0.000670 -0.000562 0.698131
29 5.726291 0.000003 0.000002 0.000000 0.000000 0.523599
30 5.726308 -0.000005 0.000002 0.000000 -0.000000 0.523599
31 0.0 0.0 0.0 0.0 0.0 0.0
32 21.251347 5.875728 -5.732551 -0.784592 -2.736399 0.553159
33 -31.702126 -1.096456 0.492833 0.103787 0.476217 0.318380
34 -30.644951 0.216292 -0.985440 -0.000000 0.000000 0.523599
35 -15.820283 -0.434251 0.497702 -0.000000 0.000000 0.349066
36 -17.006535 -0.978978 -0.002437 -0.000000 -0.000000 -0.000000
37 0.000010 0.010579 9.133087 1.071155 -1.170543 1.289623
38 24.790306 -0.000001 -0.000000 -1.685685 0.257982 0.616728
39 42.522381 0.000004 0.000003 0.000000 0.000000 -1.032436
40 29.671490 0.000001 -0.000003 -1.569921 -0.000000 0.000000
41 12.717155 -2.207701 0.037935 -0.000670 0.000562 0.698132
42 5.726307 0.000001 -0.000001 -0.000000 -0.000000 0.523599
43 5.726303 -0.000004 -0.000001 -0.000000 -0.000000 0.523599
44 0.0 0.0 0.0 0.0 0.0 0.0
45 20.623093 6.852353 7.043076 -0.791991 -0.483064 0.475193
46 31.575485 0.620264 0.492827 0.125032 -0.348361 -0.382974
47 30.971256 0.930379 0.494044 0.000000 -0.000000 -0.610865
48 15.321681 -1.085430 0.492619 0.000000 -0.000000 -0.261799
49 16.917137 -1.550605 -4.950782 -0.000000 -0.000000 0.000000
50 -51.843414 0.032808 88.547813 -1.570796 -1.570796 0.000000
time 7
0 0.458016 92.539536 43.194904 -0.000000 -1.919862 -1.570795
1 -38.735725 -0.000002 14.098652 -1.221730 3.141591 -1.570796
2 -6.490384 -1.202695 0.000005 -0.000001 -1.483529 -1.570795
3 -0.000014 0.000019 10.281536 -0.122793 -3.035676 0.250071
4 57.833656 -0.000002 0.000004 -0.000000 0.000000 -0.745588
5 41.126144 0.000002 0.000003 0.180919 -0.147578 -0.271809
6 11.591198 22.213261 0.000001 -0.000000 -0.000000 1.570796
7 4.161458 -0.000000 0.000002 0.000000 0.000000 0.000000
8 4.161461 0.000001 -0.000000 0.000000 0.000000 0.000000
9 0.0 0.0 0.0 0.0 0.0 0.0
10 0.000010 -0.000014 -10.281537 0.483206 2.813084 0.237282
11 57.833664 -0.000003 -0.000002 0.000000 0.000000 -0.822681
12 41.126133 0.000002 0.000005 -0.323763 0.021947 -0.364019
13 11.591200 22.213259 0.000003 0.000000 -0.000000 1.570796
14 4.161459 0.000001 -0.000000 -0.000000 0.000000 0.523599
15 4.161460 -0.000001 -0.000002 0.000000 0.000000 0.000000
16 0.0 0.0 0.0 0.0 0.0 0.0
17 3.591380 -0.007707 0.313533 0.010464 -0.122892 0.702096
18 12.680438 -0.018176 0.001248 -0.056190 -0.064587 -0.610091
19 27.984333 -0.007275 0.000001 -0.000001 -0.000002 0.815398
20 13.320753 -0.000002 0.000001 1.521289 0.020234 -0.667212
21 0.0 0.0 0.0 0.0 0.0 0.0
22 0.782556 8.800552 0.115176 0.000000 0.000030 -1.570794
23 -17.597874 -1.948107 -1.525803 0.000000 0.000000 0.000000
24 0.000002 0.010628 -9.133089 -1.071151 1.170538 1.289627
25 24.790306 0.000002 0.000000 1.651155 -0.249001 0.854679
26 42.522385 0.000005 -0.000007 0.000000 0.000000 -0.723891
27 29.671490 -0.000002 0.000002 1.569921 -0.000000 0.000000
28 12.717157 -2.207703 -0.037930 0.000670 -0.000562 0.698131
29 5.726306 0.000002 0.000003 -0.000000 0.000000 0.523599
30 5.726299 0.000003 0.000001 -0.000000 -0.000000 0.523599
31 0.0 0.0 0.0 0.0 0.0 0.0
32 21.251347 5.875730 -5.732553 -0.786513 -2.732253 0.583334
33 -31.702127 -1.096462 0.492834 0.099655 0.553563 0.313157
34 -30.644958 0.216291 -0.985443 0.000000 0.000000 0.523599
35 -15.820283 -0.434250 0.497699 0.000000 -0.000000 0.349066
36 -17.006533 -0.978974 -0.002434 -0.000000 0.000000 0.000000
37 0.000004 0.010579 9.133088 1.071155 -1.170543 1.289623
38 24.790306 -0.000001 -0.000000 -1.710265 0.112482 0.793036
39 42.522377 0.000001 -0.000000 0.000000 0.000000 -0.723890
40 29.671488 -0.000005 -0.000001 -1.569921 0.000000 -0.000000
41 12.717155 -2.207695 0.037928 -0.000670 0.000562 0.698132
42 5.726298 0.000001 0.000003 -0.000000 -0.000000 0.523599
43 5.726298 0.000001 0.000001 0.000000 -0.000000 0.523599
44 0.0 0.0 0.0 0.0 0.0 0.0
45 20.623091 6.852352 7.043077 -0.790134 -0.476632 0.425932
46 31.575481 0.620260 0.492828 0.127586 -0.389684 -0.395006
47 30.971258 0.930371 0.494052 0.000000 -0.000000 -0.610865
48 15.321684 -1.085426 0.492619 0.000000 -0.000000 -0.261799
49 16.917149 -1.550609 -4.950777 -0.000000 0.000000 0.000000
50 -51.843414 0.032808 88.547813 -1.570796 -1.570796 0.000000
time 8
0 0.458016 92.539536 26.622431 -0.000000 -1.919862 -1.570795
1 -19.327341 -0.000001 7.034577 -1.221730 3.141591 -1.570796
2 -6.490385 -1.202695 0.000004 -0.000001 -1.483529 -1.570795
3 -0.000011 0.000017 10.281536 -0.103704 -3.047414 -0.113442
4 57.833652 -0.000001 0.000005 0.000000 -0.000000 -0.816246
5 41.126137 0.000002 0.000002 0.138482 -0.112262 -0.553795
6 11.591197 22.213261 0.000002 -0.000000 -0.000000 1.570796
7 4.161460 0.000001 0.000002 0.000000 0.000000 0.000000
8 4.161456 -0.000001 -0.000001 0.000000 0.000000 0.000000
9 0.0 0.0 0.0 0.0 0.0 0.0
10 0.000013 -0.000012 -10.281537 0.420459 2.815639 -0.124348
11 57.833664 0.000000 0.000000 0.000000 -0.000000 -0.846275
12 41.126148 0.000005 0.000001 -0.188819 -0.064960 -0.650832
13 11.591195 22.213263 0.000001 0.000000 -0.000000 1.570796
14 4.161459 -0.000001 -0.000000 -0.000000 0.000000 0.523599
15 4.161461 -0.000001 -0.000001 0.000000 0.000000 0.000000
16 0.0 0.0 0.0 0.0 0.0 0.0
17 3.591383 -0.007706 0.313533 0.010464 -0.122892 0.702096
18 12.680441 -0.018178 0.001248 -0.056190 -0.064587 -0.610091
19 27.984333 -0.007276 0.000002 -0.000001 -0.000002 0.815398
20 13.320758 0.000000 0.000001 1.622207 -0.012830 -0.640733
21 0.0 0.0 0.0 0.0 0.0 0.0
22 0.782552 8.800551 0.115178 0.000000 0.000030 -1.570794
23 -17.597874 -1.948094 -1.525803 0.000000 0.000000 0.000000
24 0.000006 0.010631 -9.133089 -1.071151 1.170538 1.289627
25 24.790306 0.000001 0.000006 1.660967 -0.519905 0.377273
26 42.522381 -0.000001 -0.000000 -0.000000 0.000000 -1.190377
27 29.671476 0.000001 -0.000001 1.569921 -0.000000 0.000000
28 12.717153 -2.207697 -0.037927 0.000670 -0.000562 0.698131
29 5.726295 0.000001 -0.000005 -0.000000 -0.000000 0.523599
30 5.726302 0.000005 0.000007 0.000000 -0.000000 0.523599
31 0.0 0.0 0.0 0.0 0.0 0.0
32 21.251345 5.875729 -5.732547 -0.765764 -2.721826 0.597742
33 -31.702122 -1.096452 0.492826 0.100668 0.632408 0.319911
34 -30.644943 0.216295 -0.985442 -0.000000 -0.000000 0.523599
35 -15.820274 -0.434248 0.497699 0.000000 0.000000 0.349066
36 -17.006535 -0.978978 -0.002433 0.000000 -0.000000 -0.000000
37 0.000009 0.010581 9.133088 1.071155 -1.170543 1.289623
38 24.790306 0.000000 -0.000002 -1.650022 0.371867 0.331017
39 42.522377 0.000002 -0.000000 -0.000000 -0.000000 -1.190377
40 29.671492 0.000000 0.000001 -1.569921 -0.000000 -0.000000
41 12.717159 -2.207701 0.037934 -0.000670 0.000562 0.698132
42 5.726301 -0.000001 -0.000001 0.000000 0.000000 0.523599
43 5.726300 0.000000 -0.000001 0.000000 0.000000 0.523599
44 0.0 0.0 0.0 0.0 0.0 0.0
45 20.623093 6.852353 7.043075 -0.783956 -0.485847 0.374115
46 31.575493 0.620259 0.492829 0.131685 -0.447594 -0.406136
47 30.971258 0.930376 0.494045 0.000000 0.000000 -0.610865
48 15.321675 -1.085427 0.492620 0.000000 0.000000 -0.261799
49 16.917152 -1.550609 -4.950778 -0.000000 -0.000000 -0.000000
50 -51.843410 0.032808 88.547813 -1.570796 -1.570796 0.000000
time 9
0 0.458016 92.539536 35.870655 -0.000000 -1.919862 -1.570795
1 -14.890907 -0.000001 5.419847 -1.221730 3.141591 -1.570796
2 -6.490384 -1.202695 0.000003 -0.000001 -1.483529 -1.570795
3 -0.000012 0.000018 10.281536 -0.117835 -3.035252 0.177954
4 57.833645 -0.000001 0.000001 0.000000 -0.000000 -0.794785
5 41.126137 0.000004 0.000003 0.175077 -0.141194 -0.293015
6 11.591199 22.213259 0.000001 -0.000000 -0.000000 1.570796
7 4.161460 -0.000002 0.000002 0.000000 0.000000 0.000000
8 4.161460 0.000001 -0.000000 0.000000 0.000000 0.000000
9 0.0 0.0 0.0 0.0 0.0 0.0
10 0.000011 -0.000011 -10.281537 0.468897 2.805689 0.167116
11 57.833652 -0.000005 0.000000 0.000000 -0.000000 -0.861689
12 41.126144 0.000002 0.000003 -0.304374 0.005661 -0.387088
13 11.591199 22.213259 0.000002 0.000000 -0.000000 1.570796
14 4.161459 0.000000 0.000000 -0.000000 0.000000 0.523599
15 4.161458 -0.000001 -0.000000 0.000000 0.000000 0.000000
16 0.0 0.0 0.0 0.0 0.0 0.0
17 3.591380 -0.007703 0.313533 0.010464 -0.122892 0.702096
18 12.680434 -0.018182 0.001248 -0.056190 -0.064587 -0.610091
19 27.984331 -0.007272 0.000002 -0.000001 -0.000002 0.815398
20 13.320760 0.000001 -0.000000 1.686101 -0.024483 -0.635402
21 0.0 0.0 0.0 0.0 0.0 0.0
22 0.782544 8.800553 0.115179 0.000000 0.000030 -1.570794
23 -17.597874 -1.948100 -1.525804 0.000000 0.000000 0.000000
24 0.000006 0.010628 -9.133090 -1.071151 1.170538 1.289627
25 24.790306 0.000001 0.000002 1.650318 -0.322258 0.785348
26 42.522385 0.000003 -0.000006 0.000000 0.000000 -0.877217
27 29.671486 0.000005 -0.000002 1.569921 0.000000 0.000000
28 12.717149 -2.207700 -0.037938 0.000670 -0.000562 0.698131
29 5.726298 0.000000 0.000003 0.000000 0.000000 0.523599
30 5.726307 -0.000005 0.000008 0.000000 0.000000 0.523599
31 0.0 0.0 0.0 0.0 0.0 0.0
32 21.251345 5.875729 -5.732551 -0.726606 -2.706317 0.598911
33 -31.702127 -1.096462 0.492831 0.107697 0.712316 0.337619
34 -30.644955 0.216296 -0.985440 0.000000 -0.000000 0.523599
35 -15.820283 -0.434248 0.497697 0.000000 -0.000000 0.349066
36 -17.006542 -0.978974 -0.002435 0.000000 -0.000000 0.000000
37 0.000008 0.010579 9.133087 1.071155 -1.170543 1.289623
38 24.790306 -0.000001 -0.000000 -1.700327 0.182001 0.721850
39 42.522377 0.000005 0.000006 -0.000000 -0.000000 -0.877216
40 29.671490 -0.000005 0.000002 -1.569921 -0.000000 -0.000000
41 12.717157 -2.207699 0.037935 -0.000670 0.000562 0.698132
42 5.726303 -0.000000 0.000000 -0.000000 -0.000000 0.523599
43 5.726301 0.000001 -0.000004 0.000000 -0.000000 0.523599
44 0.0 0.0 0.0 0.0 0.0 0.0
45 20.623093 6.852351 7.043076 -0.772975 -0.507280 0.319533
46 31.575481 0.620260 0.492828 0.137464 -0.518515 -0.416962
47 30.971254 0.930381 0.494051 0.000000 -0.000000 -0.610865
48 15.321679 -1.085428 0.492618 0.000000 0.000000 -0.261799
49 16.917152 -1.550607 -4.950779 -0.000000 0.000000 -0.000000
50 -51.843414 0.032811 88.547813 -1.570796 -1.570796 0.000000
time 10
0 0.458016 92.539536 27.656796 -0.000000 -1.919862 -1.570795
1 -22.599483 -0.000001 8.225541 -1.221730 3.141591 -1.570796
2 -6.490385 -1.202695 0.000005 -0.000001 -1.483529 -1.570795
3 -0.000013 0.000017 10.281536 -0.110991 -3.036950 0.064724
4 57.833656 -0.000000 0.000005 0.000000 0.000000 -0.843910
5 41.126144 -0.000000 0.000001 0.163861 -0.130538 -0.354043
6 11.591197 22.213259 0.000001 -0.000000 -0.000000 1.570796
7 4.161460 -0.000002 0.000002 0.000000 0.000000 0.000000
8 4.161460 0.000001 -0.000001 0.000000 0.000000 0.000000
9 0.0 0.0 0.0 0.0 0.0 0.0
10 0.000010 -0.000012 -10.281537 0.447523 2.800557 0.054893
11 57.833652 -0.000002 0.000004 -0.000000 0.000000 -0.896587
12 41.126141 0.000008 -0.000002 -0.268024 -0.021047 -0.449687
13 11.591200 22.213261 0.000002 0.000000 -0.000000 1.570796
14 4.161459 0.000000 0.000000 -0.000000 0.000000 0.523599
15 4.161458 -0.000002 -0.000000 0.000000 0.000000 0.000000
16 0.0 0.0 0.0 0.0 0.0 0.0
17 3.591380 -0.007706 0.313533 0.010464 -0.122892 0.702096
18 12.680436 -0.018178 0.001248 -0.056190 -0.064587 -0.610091
19 27.984335 -0.007277 0.000001 -0.000001 -0.000002 0.815398
20 13.320765 -0.000001 0.000000 1.722530 -0.018500 -0.643895
21 0.0 0.0 0.0 0.0 0.0 0.0
22 0.782553 8.800552 0.115177 0.000000 0.000030 -1.570794
23 -17.597874 -1.948090 -1.525804 0.000000 0.000000 0.000000
24 0.000013 0.010629 -9.133089 -1.071151 1.170538 1.289627
25 24.790306 0.000001 0.000000 1.650635 -0.415874 0.657155
26 42.522381 0.000009 0.000001 -0.000000 -0.000000 -1.056200
27 29.671488 -0.000009 -0.000000 1.569921 -0.000000 -0.000000
28 12.717153 -2.207703 -0.037938 0.000670 -0.000562 0.698131
29 5.726296 -0.000000 -0.000003 -0.000000 0.000000 0.523599
30 5.726304 0.000003 0.000002 -0.000000 -0.000000 0.523599
31 0.0 0.0 0.0 0.0 0.0 0.0
32 21.251347 5.875728 -5.732553 -0.673076 -2.687500 0.589256
33 -31.702122 -1.096459 0.492832 0.121577 0.792753 0.365376
34 -30.644953 0.216288 -0.985439 0.000000 0.000000 0.523599
35 -15.820284 -0.434251 0.497697 0.000000 0.000000 0.349066
36 -17.006535 -0.978978 -0.002434 -0.000000 0.000000 0.000000
37 0.000015 0.010580 9.133087 1.071155 -1.170543 1.289623
38 24.790306 -0.000001 0.000002 -1.682747 0.270614 0.595329
39 42.522377 0.000001 0.000001 0.000000 0.000000 -1.056199
40 29.671495 -0.000005 -0.000002 -1.569921 0.000000 0.000000
41 12.717155 -2.207699 0.037933 -0.000670 0.000562 0.698132
42 5.726292 0.000004 -0.000002 -0.000000 0.000000 0.523599
43 5.726308 -0.000003 0.000007 -0.000000 -0.000000 0.523599
44 0.0 0.0 0.0 0.0 0.0 0.0
45 20.623093 6.852352 7.043078 -0.756918 -0.537465 0.261892
46 31.575493 0.620250 0.492834 0.145086 -0.598870 -0.428171
47 30.971258 0.930377 0.494048 0.000000 -0.000000 -0.610865
48 15.321684 -1.085424 0.492617 0.000000 0.000000 -0.261799
49 16.917137 -1.550607 -4.950781 -0.000000 0.000000 0.000000
50 -51.843414 0.032810 88.547813 -1.570796 -1.570796 0.000000
time 11
0 0.458016 92.539536 27.656796 -0.000000 -1.919862 -1.570795
1 -22.294199 -0.000001 8.114427 -1.221730 3.141591 -1.570796
2 -6.490385 -1.202695 0.000005 -0.000001 -1.483529 -1.570795
3 -0.000013 0.000017 10.281536 -0.126230 -3.060075 0.210828
4 57.833656 -0.000000 0.000006 0.000000 -0.000000 -0.509343
5 41.126148 -0.000002 0.000002 0.159387 -0.126604 -0.540853
6 11.591198 22.213259 0.000002 -0.000000 -0.000000 1.570796
7 4.161459 -0.000001 0.000001 0.000000 0.000000 0.000000
8 4.161461 0.000002 -0.000001 0.000000 0.000000 0.000000
9 0.0 0.0 0.0 0.0 0.0 0.0
10 0.000010 -0.000012 -10.281537 0.486419 2.860615 0.183321
11 57.833652 -0.000002 -0.000001 0.000000 0.000000 -0.590680
12 41.126141 0.000001 0.000002 -0.269319 -0.020164 -0.619382
13 11.591198 22.213259 0.000002 0.000000 -0.000000 1.570796
14 4.161460 0.000000 0.000001 -0.000000 0.000000 0.523599
15 4.161459 -0.000000 -0.000001 0.000000 0.000000 0.000000
16 0.0 0.0 0.0 0.0 0.0 0.0
17 3.591380 -0.007706 0.313533 0.010464 -0.122892 0.702096
18 12.680436 -0.018178 0.001248 -0.056190 -0.064587 -0.610091
19 27.984335 -0.007277 0.000001 -0.000001 -0.000002 0.815398
20 13.320765 -0.000001 0.000000 1.740373 -0.000371 -0.660977
21 0.0 0.0 0.0 0.0 0.0 0.0
22 0.782554 8.800553 0.115178 0.000000 0.000030 -1.570794
23 -17.597874 -1.948082 -1.525803 0.000000 0.000000 0.000000
24 0.000013 0.010629 -9.133089 -1.071151 1.170538 1.289627
25 24.790306 0.000001 0.000000 1.651023 -0.460248 0.691338
26 42.522385 0.000003 -0.000003 0.000000 0.000000 -0.971838
27 29.671488 0.000004 -0.000004 1.569921 0.000000 0.000000
28 12.717153 -2.207702 -0.037932 0.000670 -0.000562 0.698131
29 5.726299 0.000003 0.000001 -0.000000 0.000000 0.523599
30 5.726309 -0.000001 -0.000001 0.000000 -0.000000 0.523599
31 0.0 0.0 0.0 0.0 0.0 0.0
32 21.251347 5.875728 -5.732553 -0.609256 -2.667283 0.571368
33 -31.702120 -1.096461 0.492831 0.143096 0.873134 0.402353
34 -30.644951 0.216286 -0.985441 0.000000 0.000000 0.523599
35 -15.820284 -0.434249 0.497702 0.000000 0.000000 0.349066
36 -17.006521 -0.978974 -0.002437 -0.000000 -0.000000 -0.000000
37 0.000015 0.010580 9.133087 1.071155 -1.170543 1.289623
38 24.790306 -0.000001 0.000002 -1.688760 0.316041 0.626028
39 42.522385 0.000002 0.000005 -0.000000 -0.000000 -0.971838
40 29.671495 -0.000009 -0.000003 -1.569921 0.000000 0.000000
41 12.717155 -2.207697 0.037931 -0.000670 0.000562 0.698132
42 5.726298 0.000002 -0.000002 0.000000 0.000000 0.523599
43 5.726307 0.000000 0.000011 0.000000 -0.000000 0.523599
44 0.0 0.0 0.0 0.0 0.0 0.0
45 20.623093 6.852352 7.043078 -0.735795 -0.572933 0.200948
46 31.575481 0.620262 0.492826 0.154808 -0.685078 -0.440548
47 30.971252 0.930386 0.494046 0.000000 -0.000000 -0.610865
48 15.321683 -1.085429 0.492621 0.000000 0.000000 -0.261799
49 16.917139 -1.550613 -4.950778 -0.000000 -0.000000 -0.000000
50 -51.843414 0.032810 88.547813 -1.570796 -1.570796 0.000000
time 12
0 0.458016 92.539536 27.656796 -0.000000 -1.919862 -1.570795
1 -23.552803 -0.000001 8.572521 -1.221730 3.141591 -1.570796
2 -6.490385 -1.202695 0.000005 -0.000001 -1.483529 -1.570795
3 -0.000013 0.000017 10.281536 -0.128832 -3.064865 0.240699
4 57.833664 0.000000 0.000004 0.000000 -0.000000 -0.440449
5 41.126156 0.000002 0.000004 0.158675 -0.125906 -0.579512
6 11.591196 22.213259 0.000003 -0.000000 -0.000000 1.570796
7 4.161460 -0.000001 0.000002 0.000000 0.000000 0.000000
8 4.161460 0.000001 -0.000001 0.000000 0.000000 0.000000
9 0.0 0.0 0.0 0.0 0.0 0.0
10 0.000010 -0.000012 -10.281537 0.493022 2.872928 0.207950
11 57.833656 -0.000001 -0.000001 -0.000000 -0.000000 -0.530388
12 41.126141 -0.000003 0.000003 -0.269556 -0.019985 -0.652959
13 11.591199 22.213259 0.000002 0.000000 -0.000000 1.570796
14 4.161458 -0.000000 0.000000 -0.000000 0.000000 0.523599
15 4.161458 0.000000 -0.000001 0.000000 0.000000 0.000000
16 0.0 0.0 0.0 0.0 0.0 0.0
17 3.591380 -0.007706 0.313533 0.010464 -0.122892 0.702096
18 12.680436 -0.018178 0.001248 -0.056190 -0.064587 -0.610091
19 27.984335 -0.007277 0.000001 -0.000001 -0.000002 0.815398
20 13.320765 -0.000001 0.000000 1.748477 0.023860 -0.682244
21 0.0 0.0 0.0 0.0 0.0 0.0
22 0.782545 8.800552 0.115177 0.000000 0.000030 -1.570794
23 -17.597874 -1.948090 -1.525804 0.000000 0.000000 0.000000
24 0.000013 0.010629 -9.133089 -1.071151 1.170538 1.289627
25 24.790306 0.000001 0.000000 1.650792 -0.467220 0.697473
26 42.522385 0.000006 -0.000008 0.000000 -0.000000 -0.955741
27 29.671480 0.000002 -0.000001 1.569921 0.000000 -0.000000
28 12.717152 -2.207701 -0.037929 0.000670 -0.000562 0.698131
29 5.726308 -0.000001 0.000003 0.000000 0.000000 0.523599
30 5.726303 0.000002 0.000002 -0.000000 -0.000000 0.523599
31 0.0 0.0 0.0 0.0 0.0 0.0
32 21.251347 5.875728 -5.732553 -0.539481 -2.647360 0.548224
33 -31.702120 -1.096458 0.492832 0.172945 0.952892 0.447728
34 -30.644955 0.216287 -0.985439 0.000000 0.000000 0.523599
35 -15.820272 -0.434249 0.497701 0.000000 0.000000 0.349066
36 -17.006531 -0.978973 -0.002436 0.000000 0.000000 0.000000
37 0.000015 0.010580 9.133087 1.071155 -1.170543 1.289623
38 24.790306 -0.000001 0.000002 -1.689547 0.323217 0.631523
39 42.522385 -0.000000 0.000006 -0.000000 0.000000 -0.955741
40 29.671488 -0.000004 -0.000000 -1.569921 -0.000000 0.000000
41 12.717155 -2.207700 0.037940 -0.000670 0.000562 0.698132
42 5.726294 0.000002 0.000008 -0.000000 -0.000000 0.523599
43 5.726303 -0.000001 -0.000002 0.000000 0.000000 0.523599
44 0.0 0.0 0.0 0.0 0.0 0.0
45 20.623093 6.852352 7.043078 -0.710027 -0.610252 0.136681
46 31.575481 0.620256 0.492826 0.167017 -0.773546 -0.454991
47 30.971266 0.930377 0.494045 0.000000 -0.000000 -0.610865
48 15.321683 -1.085425 0.492618 0.000000 0.000000 -0.261799
49 16.917145 -1.550605 -4.950782 -0.000000 -0.000000 0.000000
50 -51.843414 0.032810 88.547813 -1.570796 -1.570796 0.000000
time 13
0 0.458016 92.539536 27.656796 -0.000000 -1.919862 -1.570795
1 -23.756523 -0.000002 8.646668 -1.221730 3.141591 -1.570796
2 -6.490385 -1.202695 0.000005 -0.000001 -1.483529 -1.570795
3 -0.000013 0.000017 10.281536 -0.129903 -3.066920 0.254245
4 57.833664 -0.000001 0.000006 0.000000 0.000000 -0.408974
5 41.126156 0.000002 0.000002 0.158447 -0.125710 -0.597299
6 11.591197 22.213259 0.000002 -0.000000 -0.000000 1.570796
7 4.161459 -0.000001 0.000001 0.000000 0.000000 0.000000
8 4.161462 0.000001 -0.000001 0.000000 0.000000 0.000000
9 0.0 0.0 0.0 0.0 0.0 0.0
10 0.000010 -0.000012 -10.281537 0.495720 2.878185 0.218308
11 57.833652 -0.000001 -0.000000 -0.000000 -0.000000 -0.504690
12 41.126144 0.000001 0.000001 -0.269652 -0.019917 -0.667364
13 11.591199 22.213261 0.000002 0.000000 -0.000000 1.570796
14 4.161459 0.000000 0.000000 -0.000000 0.000000 0.523599
15 4.161459 -0.000001 -0.000001 0.000000 0.000000 0.000000
16 0.0 0.0 0.0 0.0 0.0 0.0
17 3.591380 -0.007706 0.313533 0.010464 -0.122892 0.702096
18 12.680436 -0.018178 0.001248 -0.056190 -0.064587 -0.610091
19 27.984335 -0.007277 0.000001 -0.000001 -0.000002 0.815398
20 13.320765 -0.000001 0.000000 1.756020 0.048216 -0.703296
21 0.0 0.0 0.0 0.0 0.0 0.0
22 0.782546 8.800553 0.115181 0.000000 0.000030 -1.570794
23 -17.597874 -1.948091 -1.525803 0.000000 0.000000 0.000000
24 0.000013 0.010629 -9.133089 -1.071151 1.170538 1.289627
25 24.790306 0.000001 0.000000 1.650605 -0.468923 0.699602
26 42.522381 0.000002 -0.000004 0.000000 0.000000 -0.949259
27 29.671490 -0.000004 0.000000 1.569921 -0.000000 -0.000000
28 12.717149 -2.207701 -0.037934 0.000670 -0.000562 0.698131
29 5.726309 0.000000 0.000006 0.000000 -0.000000 0.523599
30 5.726300 0.000005 -0.000002 -0.000000 -0.000000 0.523599
31 0.0 0.0 0.0 0.0 0.0 0.0
32 21.251347 5.875728 -5.732553 -0.468456 -2.628932 0.523284
33 -31.702122 -1.096458 0.492827 0.211642 1.031557 0.500586
34 -30.644958 0.216290 -0.985439 0.000000 0.000000 0.523599
35 -15.820285 -0.434249 0.497699 -0.000000 0.000000 0.349066
36 -17.006525 -0.978978 -0.002434 -0.000000 0.000000 0.000000
37 0.000015 0.010580 9.133087 1.071155 -1.170543 1.289623
38 24.790306 -0.000001 0.000002 -1.689704 0.324993 0.633455
39 42.522381 -0.000004 -0.000000 0.000000 -0.000000 -0.949259
40 29.671484 0.000002 0.000005 -1.569921 0.000000 -0.000000
41 12.717148 -2.207701 0.037935 -0.000670 0.000562 0.698132
42 5.726295 -0.000001 0.000003 -0.000000 0.000000 0.523599
43 5.726309 0.000001 0.000001 -0.000000 -0.000000 0.523599
44 0.0 0.0 0.0 0.0 0.0 0.0
45 20.623093 6.852352 7.043078 -0.680620 -0.646092 0.069516
46 31.575483 0.620250 0.492831 0.182247 -0.860673 -0.472515
47 30.971256 0.930376 0.494046 -0.000000 -0.000000 -0.610865
48 15.321677 -1.085425 0.492614 0.000000 0.000000 -0.261799
49 16.917131 -1.550608 -4.950783 -0.000000 0.000000 0.000000
50 -51.843414 0.032810 88.547813 -1.570796 -1.570796 0.000000
time 14
0 0.458016 92.539536 27.656796 -0.000000 -1.919862 -1.570795
1 -23.837221 -0.000002 8.676041 -1.221730 3.141591 -1.570796
2 -6.490385 -1.202695 0.000005 -0.000001 -1.483529 -1.570795
3 -0.000013 0.000017 10.281536 -0.130394 -3.067864 0.261267
4 57.833652 -0.000000 0.000007 0.000000 0.000000 -0.392466
5 41.126144 -0.000001 0.000002 0.158408 -0.125721 -0.606736
6 11.591198 22.213259 0.000002 -0.000000 -0.000000 1.570796
7 4.161461 -0.000001 0.000001 0.000000 0.000000 0.000000
8 4.161461 0.000001 -0.000001 0.000000 0.000000 0.000000
9 0.0 0.0 0.0 0.0 0.0 0.0
10 0.000010 -0.000012 -10.281537 0.496931 2.880584 0.222995
11 57.833668 0.000000 -0.000004 0.000000 -0.000000 -0.492829
12 41.126156 0.000003 0.000004 -0.269693 -0.019895 -0.674101
13 11.591199 22.213259 0.000002 0.000000 -0.000000 1.570796
14 4.161458 0.000000 0.000000 -0.000000 0.000000 0.523599
15 4.161458 -0.000000 -0.000001 0.000000 0.000000 0.000000
16 0.0 0.0 0.0 0.0 0.0 0.0
17 3.591380 -0.007706 0.313533 0.010464 -0.122892 0.702096
18 12.680436 -0.018178 0.001248 -0.056190 -0.064587 -0.610091
19 27.984335 -0.007277 0.000001 -0.000001 -0.000002 0.815398
20 13.320765 -0.000001 0.000000 1.772638 0.067001 -0.719410
21 0.0 0.0 0.0 0.0 0.0 0.0
22 0.782558 8.800552 0.115177 0.000000 0.000030 -1.570794
23 -17.597872 -1.948097 -1.525802 0.000000 0.000000 0.000000
24 0.000013 0.010629 -9.133089 -1.071151 1.170538 1.289627
25 24.790306 0.000001 0.000000 1.650447 -0.468518 0.700122
26 42.522385 -0.000000 -0.000004 0.000000 0.000000 -0.946623
27 29.671486 0.000000 -0.000002 1.569921 -0.000000 0.000000
28 12.717155 -2.207700 -0.037935 0.000670 -0.000562 0.698131
29 5.726298 0.000001 -0.000005 0.000000 0.000000 0.523599
30 5.726304 -0.000001 0.000005 -0.000000 0.000000 0.523599
31 0.0 0.0 0.0 0.0 0.0 0.0
32 21.251347 5.875728 -5.732553 -0.401263 -2.612554 0.500460
33 -31.702116 -1.096454 0.492825 0.259409 1.108859 0.559766
34 -30.644958 0.216289 -0.985442 -0.000000 -0.000000 0.523599
35 -15.820274 -0.434249 0.497698 -0.000000 0.000000 0.349066
36 -17.006521 -0.978974 -0.002433 -0.000000 0.000000 -0.000000
37 0.000015 0.010580 9.133087 1.071155 -1.170543 1.289623
38 24.790306 -0.000001 0.000002 -1.689620 0.324607 0.633961
39 42.522377 -0.000004 0.000001 0.000000 -0.000000 -0.946624
40 29.671488 0.000006 0.000002 -1.569921 -0.000000 0.000000
41 12.717155 -2.207699 0.037932 -0.000670 0.000562 0.698132
42 5.726310 -0.000000 -0.000005 0.000000 -0.000000 0.523599
43 5.726304 -0.000002 0.000013 0.000000 0.000000 0.523599
44 0.0 0.0 0.0 0.0 0.0 0.0
45 20.623093 6.852352 7.043078 -0.649354 -0.677311 0.000549
46 31.575483 0.620258 0.492831 0.201111 -0.942838 -0.494196
47 30.971254 0.930375 0.494050 0.000000 -0.000000 -0.610865
48 15.321679 -1.085425 0.492622 0.000000 -0.000000 -0.261799
49 16.917154 -1.550606 -4.950784 0.000000 -0.000000 0.000000
50 -51.843414 0.032810 88.547813 -1.570796 -1.570796 0.000000
time 15
0 0.458016 92.539536 27.656796 -0.000000 -1.919862 -1.570795
1 -23.871626 -0.000002 8.688563 -1.221730 3.141591 -1.570796
2 -6.490385 -1.202695 0.000005 -0.000001 -1.483529 -1.570795
3 -0.000013 0.000017 10.281536 -0.131151 -3.069375 0.271548
4 57.833649 0.000001 0.000005 0.000000 -0.000000 -0.368475
5 41.126144 -0.000001 0.000001 0.158276 -0.125626 -0.620348
6 11.591197 22.213259 0.000001 -0.000000 -0.000000 1.570796
7 4.161460 -0.000001 0.000002 0.000000 0.000000 0.000000
8 4.161460 0.000001 -0.000001 0.000000 0.000000 0.000000
9 0.0 0.0 0.0 0.0 0.0 0.0
10 0.000010 -0.000012 -10.281537 0.498838 2.884432 0.230495
11 57.833649 0.000001 -0.000000 -0.000000 -0.000000 -0.474050
12 41.126144 -0.000001 0.000002 -0.269761 -0.019850 -0.684672
13 11.591198 22.213257 0.000002 0.000000 -0.000000 1.570796
14 4.161458 0.000000 -0.000000 -0.000000 0.000000 0.523599
15 4.161457 -0.000000 -0.000001 0.000000 0.000000 0.000000
16 0.0 0.0 0.0 0.0 0.0 0.0
17 3.591380 -0.007706 0.313533 0.010464 -0.122892 0.702096
18 12.680436 -0.018178 0.001248 -0.056190 -0.064587 -0.610091
19 27.984335 -0.007277 0.000001 -0.000001 -0.000002 0.815398
20 13.320765 -0.000001 0.000000 1.808289 0.074584 -0.725770
21 0.0 0.0 0.0 0.0 0.0 0.0
22 0.782549 8.800551 0.115180 0.000000 0.000030 -1.570794
23 -17.597872 -1.948099 -1.525803 0.000000 0.000000 0.000000
24 0.000013 0.010629 -9.133089 -1.071151 1.170538 1.289627
25 24.790306 0.000001 0.000000 1.650273 -0.469168 0.701447
26 42.522377 0.000002 -0.000005 0.000000 -0.000000 -0.942064
27 29.671490 -0.000000 0.000001 1.569921 -0.000000 0.000000
28 12.717151 -2.207701 -0.037939 0.000670 -0.000562 0.698131
29 5.726301 0.000001 0.000005 0.000000 0.000000 0.523599
30 5.726305 -0.000001 -0.000006 -0.000000 -0.000000 0.523599
31 0.0 0.0 0.0 0.0 0.0 0.0
32 21.251347 5.875728 -5.732553 -0.343280 -2.598144 0.484000
33 -31.702122 -1.096455 0.492831 0.315965 1.184828 0.623634
34 -30.644953 0.216287 -0.985439 0.000000 0.000000 0.523599
35 -15.820290 -0.434250 0.497702 -0.000000 0.000000 0.349066
36 -17.006521 -0.978976 -0.002438 0.000000 -0.000000 -0.000000
37 0.000015 0.010580 9.133087 1.071155 -1.170543 1.289623
38 24.790306 -0.000001 0.000002 -1.689655 0.325302 0.635181
39 42.522373 -0.000002 0.000002 -0.000000 0.000000 -0.942065
40 29.671484 0.000006 0.000001 -1.569921 0.000000 -0.000000
41 12.717151 -2.207699 0.037930 -0.000670 0.000562 0.698132
42 5.726304 0.000000 0.000002 -0.000000 -0.000000 0.523599
43 5.726305 -0.000004 -0.000007 0.000000 0.000000 0.523599
44 0.0 0.0 0.0 0.0 0.0 0.0
45 20.623093 6.852352 7.043078 -0.618932 -0.701049 -0.068286
46 31.575485 0.620252 0.492831 0.224085 -1.016412 -0.520953
47 30.971262 0.930376 0.494044 0.000000 -0.000000 -0.610865
48 15.321673 -1.085427 0.492618 0.000000 0.000000 -0.261799
49 16.917150 -1.550604 -4.950784 0.000000 -0.000000 -0.000000
50 -51.843414 0.032810 88.547813 -1.570796 -1.570796 0.000000
end
