version 1
nodes
0 "Bip01" -1
1 "Bip01 Footsteps" 0
2 "Bip01 Pelvis" 0
3 "Bip01 L Thigh" 2
4 "Bip01 L Calf" 3
5 "Bip01 L Foot" 4
6 "Bip01 L Toe0" 5
7 "Bip01 L Toe01" 6
8 "Bip01 L Toe02" 7
9 "Null 9" -1
10 "Bip01 R Thigh" 2
11 "Bip01 R Calf" 10
12 "Bip01 R Foot" 11
13 "Bip01 R Toe0" 12
14 "Bip01 R Toe01" 13
15 "Bip01 R Toe02" 14
16 "Null 16" -1
17 "Bip01 Spine" 2
18 "Bip01 Spine1" 17
19 "Bip01 Neck" 18
20 "Bip01 Head" 19
21 "Null 21" -1
22 "Box03" 20
23 "Box04" 22
24 "Bip01 R Clavicle" 19
25 "Bip01 R UpperArm" 24
26 "Bip01 R Forearm" 25
27 "Bip01 R Hand" 26
28 "Bip01 R Finger0" 27
29 "Bip01 R Finger01" 28
30 "Bip01 R Finger02" 29
31 "Null 31" -1
32 "Box08" 24
33 "Box09" 32
34 "Box10" 33
35 "Box11" 34
36 "Box12" 35
37 "Bip01 L Clavicle" 19
38 "Bip01 L UpperArm" 37
39 "Bip01 L Forearm" 38
40 "Bip01 L Hand" 39
41 "Bip01 L Finger0" 40
42 "Bip01 L Finger01" 41
43 "Bip01 L Finger02" 42
44 "Null 44" -1
45 "Box01" 37
46 "Box02" 45
47 "Box05" 46
48 "Box06" 47
49 "Box07" 48
50 "ewr" 2
end
skeleton
time 0
0 -0.225072 3.207345 98.783531 0.000000 0.000000 -1.570795
1 -0.000000 0.000000 -98.699150 0.000000 0.000000 1.570795
2 -13.820677 -0.430119 0.000000 0.000000 -1.483529 -1.570795
3 -0.000013 0.000019 10.281537 -0.118870 -3.044289 -0.078584
4 57.833656 -0.000000 0.000005 0.000000 0.000000 -0.787723
5 41.126144 0.000000 0.000003 -0.046461 -0.173501 0.684163
6 11.591199 22.213261 -0.000000 -0.000000 -0.000000 1.570796
7 4.161460 -0.000000 -0.000001 0.000000 0.000000 0.000000
8 4.161458 -0.000000 0.000001 0.000000 0.000000 0.000000
9 0.0 0.0 0.0 0.0 0.0 0.0
10 0.000015 -0.000011 -10.281537 0.352580 2.837004 -0.637738
11 57.833664 -0.000001 -0.000002 0.000000 0.000000 -0.860604
12 41.126144 0.000002 -0.000000 -0.113255 -0.056631 0.211253
13 11.591197 22.213259 0.000001 0.000000 -0.000000 1.570796
14 4.161459 0.000000 -0.000000 -0.000000 -0.000000 0.523599
15 4.161459 0.000001 0.000001 0.000000 0.000000 0.000000
16 0.0 0.0 0.0 0.0 0.0 0.0
17 3.592024 -0.007112 0.313641 -0.000341 -0.123335 0.790028
18 12.695189 -0.022112 -0.001935 0.087272 0.079270 0.094527
19 27.984335 -0.007272 -0.000000 -0.000001 -0.000002 0.815398
20 13.320759 -0.000011 0.000000 -0.101076 -0.101722 -1.518120
21 0.0 0.0 0.0 0.0 0.0 0.0
22 0.782557 8.800552 0.115179 0.000000 0.000030 -1.570794
23 -17.597872 -1.948087 -1.525802 0.000000 0.000000 0.000000
24 0.000002 0.010615 -9.133088 -1.071151 1.170538 1.289627
25 24.790308 -0.000003 0.000005 0.716696 -0.592053 -0.624207
26 42.522388 0.000000 0.000003 -0.000000 -0.000000 -0.813909
27 29.671488 -0.000002 -0.000001 1.569921 -0.000000 0.000000
28 12.717153 -2.207699 -0.037937 0.000670 -0.000562 0.698132
29 5.726300 -0.000001 0.000001 -0.000000 0.000000 0.523599
30 5.726302 -0.000005 -0.000003 -0.000000 -0.000000 0.523599
31 0.0 0.0 0.0 0.0 0.0 0.0
32 21.251345 5.875730 -5.732554 1.324930 -2.592969 -0.459508
33 -31.702124 -1.096463 0.492826 0.000000 0.872665 0.000000
34 -30.644955 0.216295 -0.985438 0.000000 0.000000 0.523599
35 -15.820283 -0.434254 0.497701 -0.000000 -0.000000 0.349066
36 -17.006529 -0.978982 -0.002434 0.000000 -0.000000 0.000000
37 0.000004 0.010581 9.133088 1.071155 -1.170543 1.289623
38 24.790304 0.000011 0.000007 -0.678550 0.607338 -0.966196
39 42.522381 -0.000002 -0.000003 0.000000 0.000000 -0.596883
40 29.671486 0.000001 -0.000002 -1.569921 -0.000000 -0.000000
41 12.717155 -2.207697 0.037933 -0.000670 0.000562 0.698132
42 5.726297 -0.000003 0.000002 -0.000000 -0.000000 0.523599
43 5.726304 -0.000003 0.000003 0.000000 -0.000000 0.523599
44 0.0 0.0 0.0 0.0 0.0 0.0
45 20.623091 6.852361 7.043076 1.456946 -0.399988 -0.592835
46 31.575485 0.620254 0.492836 0.000000 -1.134464 -0.000000
47 30.971260 0.930383 0.494043 0.000000 -0.000000 -0.610865
48 15.321680 -1.085427 0.492619 0.000000 0.000000 -0.261799
49 16.917139 -1.550611 -4.950779 -0.000000 -0.000000 -0.000000
50 -51.843414 0.032810 88.547806 -1.570796 -1.570796 0.000000
time 1
0 -0.111224 13.801762 98.835205 0.000000 0.000000 -1.570795
1 -0.000000 -0.000000 -98.749290 0.000000 0.000000 1.570795
2 -5.606600 -0.093129 0.000000 0.000000 -1.483529 -1.570795
3 -0.000015 0.000018 10.281537 -0.117889 -3.047752 -0.115792
4 57.833656 -0.000001 0.000005 -0.000000 0.000000 -0.817374
5 41.126141 0.000001 -0.000002 -0.044837 -0.165434 0.677171
6 11.591199 22.213261 0.000001 -0.000000 -0.000000 1.570796
7 4.161461 -0.000000 -0.000002 0.000000 0.000000 0.000000
8 4.161458 -0.000000 0.000001 0.000000 0.000000 0.000000
9 0.0 0.0 0.0 0.0 0.0 0.0
10 0.000012 -0.000012 -10.281537 0.351994 2.840794 -0.647544
11 57.833652 -0.000005 -0.000002 0.000000 -0.000000 -0.818881
12 41.126152 0.000002 0.000001 -0.110982 -0.063441 0.161916
13 11.591197 22.213263 -0.000000 0.000000 -0.000000 1.570796
14 4.161455 0.000000 0.000001 -0.000000 -0.000000 0.523599
15 4.161460 -0.000001 0.000000 0.000000 0.000000 0.000000
16 0.0 0.0 0.0 0.0 0.0 0.0
17 3.588839 -0.009272 0.313173 0.046349 -0.114334 0.401119
18 12.689263 -0.021906 -0.000575 0.025823 0.040420 -0.178637
19 27.984333 -0.007278 0.000000 -0.000001 -0.000002 0.815398
20 13.320765 -0.000006 0.000000 -0.105549 -0.040324 -0.990387
21 0.0 0.0 0.0 0.0 0.0 0.0
22 0.782563 8.800552 0.115179 0.000000 0.000030 -1.570794
23 -17.597874 -1.948094 -1.525802 0.000000 0.000000 0.000000
24 0.000011 0.010625 -9.133088 -1.071151 1.170538 1.289627
25 24.790304 0.000000 0.000005 1.577632 -0.475072 -0.431255
26 42.522385 0.000010 0.000005 -0.000000 -0.000000 -2.192409
27 29.671488 0.000002 0.000002 1.569921 0.000000 0.000000
28 12.717161 -2.207700 -0.037930 0.000670 -0.000562 0.698131
29 5.726305 0.000001 -0.000006 0.000000 0.000000 0.523599
30 5.726302 -0.000001 0.000002 -0.000000 0.000000 0.523599
31 0.0 0.0 0.0 0.0 0.0 0.0
32 21.251347 5.875727 -5.732544 -0.369531 -2.934635 0.121717
33 -31.702127 -1.096460 0.492825 0.291438 0.509682 0.675835
34 -30.644953 0.216292 -0.985446 -0.000000 -0.000000 0.523599
35 -15.820277 -0.434254 0.497698 -0.000000 -0.000000 0.349066
36 -17.006529 -0.978968 -0.002427 0.000000 0.000000 0.000000
37 0.000011 0.010578 9.133089 1.071155 -1.170543 1.289623
38 24.790306 0.000001 0.000002 -1.571924 0.524592 -0.648914
39 42.522377 0.000002 -0.000005 0.000000 0.000000 -2.192409
40 29.671490 -0.000001 -0.000002 -1.569921 0.000000 0.000000
41 12.717165 -2.207702 0.037932 -0.000670 0.000562 0.698132
42 5.726301 -0.000000 0.000000 0.000000 -0.000000 0.523599
43 5.726303 -0.000004 -0.000000 0.000000 -0.000000 0.523599
44 0.0 0.0 0.0 0.0 0.0 0.0
45 20.623091 6.852356 7.043082 -0.668065 -0.275645 0.005725
46 31.575487 0.620252 0.492830 0.367903 -0.562552 -0.787242
47 30.971252 0.930378 0.494044 0.000000 -0.000000 -0.610865
48 15.321679 -1.085429 0.492618 0.000000 0.000000 -0.261799
49 16.917149 -1.550600 -4.950780 -0.000000 -0.000000 -0.000000
50 -51.843418 0.032810 88.547813 -1.570796 -1.570796 0.000000
time 2
0 0.002624 22.888382 98.883034 0.000000 0.000000 -1.570795
1 0.000000 -0.000000 -98.797112 0.000000 0.000000 1.570795
2 4.014893 0.217721 0.000000 0.000000 -1.483529 -1.570795
3 -0.000013 0.000019 10.281536 -0.119922 -3.052418 -0.107679
4 57.833652 -0.000001 -0.000000 0.000000 0.000000 -0.811737
5 41.126141 -0.000002 0.000001 -0.044045 -0.161619 0.679980
6 11.591199 22.213263 0.000001 -0.000000 -0.000000 1.570796
7 4.161461 -0.000000 -0.000002 0.000000 0.000000 0.000000
8 4.161459 -0.000000 0.000001 0.000000 0.000000 0.000000
9 0.0 0.0 0.0 0.0 0.0 0.0
10 0.000015 -0.000010 -10.281537 0.350814 2.835202 -0.643949
11 57.833649 -0.000007 -0.000001 -0.000000 0.000000 -0.823277
12 41.126148 0.000001 0.000001 -0.113123 -0.056971 0.167737
13 11.591197 22.213263 -0.000000 0.000000 -0.000000 1.570796
14 4.161454 0.000000 0.000001 -0.000000 -0.000000 0.523599
15 4.161461 -0.000000 0.000000 0.000000 0.000000 0.000000
16 0.0 0.0 0.0 0.0 0.0 0.0
17 3.585054 -0.010063 0.312772 0.086057 -0.088456 0.013726
18 12.683579 -0.020059 0.000511 -0.022954 -0.013566 -0.448770
19 27.984337 -0.007274 0.000000 -0.000001 -0.000002 0.815398
20 13.320764 0.000002 -0.000000 -0.060785 -0.000709 -0.435008
21 0.0 0.0 0.0 0.0 0.0 0.0
22 0.782554 8.800551 0.115179 0.000000 0.000030 -1.570794
23 -17.597872 -1.948093 -1.525803 0.000000 0.000000 0.000000
24 -0.000002 0.010638 -9.133088 -1.071151 1.170538 1.289627
25 24.790308 0.000003 -0.000002 1.006995 -0.565101 0.219129
26 42.522381 0.000001 0.000001 0.000000 -0.000000 -1.498281
27 29.671482 -0.000001 0.000004 1.569921 0.000000 -0.000000
28 12.717154 -2.207695 -0.037936 0.000670 -0.000562 0.698131
29 5.726294 0.000002 -0.000011 0.000000 0.000000 0.523599
30 5.726304 -0.000008 0.000007 0.000000 0.000000 0.523599
31 0.0 0.0 0.0 0.0 0.0 0.0
32 21.251345 5.875730 -5.732554 -0.509067 3.086197 0.042847
33 -31.702122 -1.096458 0.492824 0.289756 0.197455 0.988832
34 -30.644953 0.216292 -0.985441 -0.000000 0.000000 0.523599
35 -15.820282 -0.434246 0.497701 -0.000000 0.000000 0.349066
36 -17.006529 -0.978978 -0.002433 0.000000 0.000000 -0.000000
37 0.000007 0.010585 9.133088 1.071155 -1.170543 1.289623
38 24.790308 0.000001 -0.000006 -0.990328 0.607091 0.115092
39 42.522377 0.000003 -0.000002 -0.000000 0.000000 -1.498281
40 29.671488 0.000003 -0.000001 -1.569921 -0.000000 -0.000000
41 12.717151 -2.207698 0.037936 -0.000670 0.000562 0.698132
42 5.726300 0.000004 0.000009 0.000000 -0.000000 0.523599
43 5.726306 0.000005 -0.000011 -0.000000 -0.000000 0.523599
44 0.0 0.0 0.0 0.0 0.0 0.0
45 20.623093 6.852352 7.043071 -0.421881 0.055849 0.053811
46 31.575485 0.620260 0.492828 0.305349 -0.171855 -1.073705
47 30.971258 0.930375 0.494046 0.000000 0.000000 -0.610865
48 15.321677 -1.085419 0.492622 0.000000 -0.000000 -0.261799
49 16.917145 -1.550604 -4.950774 -0.000000 0.000000 0.000000
50 -51.843414 0.032811 88.547813 -1.570796 -1.570796 0.000000
time 3
0 0.116472 39.406761 96.762878 0.000000 0.000000 -1.570795
1 0.000000 -0.000000 -96.676956 0.000000 0.000000 1.570795
2 7.840901 0.101512 0.000000 0.000000 -1.483529 -1.570795
3 -0.000013 0.000019 10.281537 -0.104202 -3.042635 -0.321504
4 57.833649 -0.000003 0.000002 -0.000000 0.000000 -1.004208
5 41.126137 0.000001 0.000000 -0.043067 -0.146880 0.659665
6 11.591199 22.213261 0.000000 -0.000000 -0.000000 1.570796
7 4.161460 -0.000000 -0.000001 0.000000 0.000000 0.000000
8 4.161458 -0.000000 0.000000 0.000000 0.000000 0.000000
9 0.0 0.0 0.0 0.0 0.0 0.0
10 0.000015 -0.000010 -10.281537 0.343984 2.872334 -0.720219
11 57.833649 0.000001 -0.000001 -0.000000 0.000000 -0.661347
12 41.126137 -0.000000 -0.000001 -0.086700 -0.112661 -0.052581
13 11.591197 22.213261 0.000000 0.000000 -0.000000 1.570796
14 4.161455 0.000000 0.000001 -0.000000 -0.000000 0.523599
15 4.161462 0.000001 0.000000 0.000000 0.000000 0.000000
16 0.0 0.0 0.0 0.0 0.0 0.0
17 3.583184 -0.009914 0.312622 0.101003 -0.070896 -0.173509
18 12.682067 -0.019222 0.001368 -0.061603 -0.059448 -0.522808
19 27.984333 -0.007265 -0.000000 -0.000001 -0.000002 0.815398
20 13.320753 -0.000003 0.000000 -0.001892 0.005991 -0.116767
21 0.0 0.0 0.0 0.0 0.0 0.0
22 0.782565 8.800555 0.115179 0.000000 0.000030 -1.570794
23 -17.597874 -1.948094 -1.525802 0.000000 0.000000 0.000000
24 -0.000009 0.010627 -9.133088 -1.071151 1.170538 1.289627
25 24.790308 0.000001 -0.000006 0.962964 -0.000514 0.927107
26 42.522381 0.000008 -0.000002 -0.000000 -0.000000 -1.032436
27 29.671488 0.000001 0.000006 1.569921 -0.000000 0.000000
28 12.717155 -2.207701 -0.037930 0.000670 -0.000562 0.698131
29 5.726305 0.000002 0.000005 0.000000 -0.000000 0.523599
30 5.726309 0.000001 -0.000003 -0.000000 0.000000 0.523599
31 0.0 0.0 0.0 0.0 0.0 0.0
32 21.251345 5.875734 -5.732553 -0.045015 -2.601521 -0.426016
33 -31.702122 -1.096459 0.492828 0.228822 0.221114 0.774342
34 -30.644945 0.216295 -0.985438 0.000000 0.000000 0.523599
35 -15.820284 -0.434251 0.497703 0.000000 0.000000 0.349066
36 -17.006531 -0.978969 -0.002436 -0.000000 -0.000000 -0.000000
37 0.000005 0.010579 9.133088 1.071155 -1.170543 1.289623
38 24.790304 0.000010 -0.000005 -0.965369 -0.006786 0.917176
39 42.522381 0.000013 0.000001 0.000000 0.000000 -1.032436
40 29.671492 0.000002 -0.000009 -1.569921 -0.000000 -0.000000
41 12.717145 -2.207699 0.037930 -0.000670 0.000562 0.698131
42 5.726308 0.000004 -0.000008 0.000000 0.000000 0.523599
43 5.726295 0.000006 -0.000001 -0.000000 0.000000 0.523599
44 0.0 0.0 0.0 0.0 0.0 0.0
45 20.623091 6.852354 7.043073 -0.887890 -0.297591 0.400730
46 31.575487 0.620258 0.492828 0.331975 -0.524706 -0.824566
47 30.971249 0.930373 0.494043 0.000000 -0.000000 -0.610865
48 15.321671 -1.085433 0.492618 0.000000 -0.000000 -0.261799
49 16.917131 -1.550607 -4.950780 -0.000000 0.000000 -0.000000
50 -51.843414 0.032811 88.547813 -1.570796 -1.570796 0.000000
time 4
0 0.230320 -28.727112 62.559990 0.000000 0.000000 -1.570795
1 0.000000 0.000000 -62.474072 0.000000 0.000000 1.570795
2 -14.535789 -1.112523 0.000000 0.000000 -1.483529 -1.570795
3 -0.000013 0.000017 10.281537 -0.068135 -2.950714 0.214404
4 57.833660 0.000001 0.000004 0.000000 -0.000000 -1.515021
5 41.126144 -0.000001 -0.000000 -0.146849 -0.288233 1.715218
6 11.591199 22.213263 0.000000 -0.000000 -0.000000 1.570796
7 4.161461 -0.000000 -0.000000 0.000000 0.000000 0.000000
8 4.161458 0.000000 0.000000 0.000000 0.000000 0.000000
9 0.0 0.0 0.0 0.0 0.0 0.0
10 0.000014 -0.000011 -10.281536 0.180969 2.645498 -0.682199
11 57.833649 -0.000008 -0.000006 0.000000 0.000000 -2.122082
12 41.126141 0.000002 0.000002 -0.106535 0.175407 1.382603
13 11.591197 22.213261 0.000001 0.000000 -0.000000 1.570796
14 4.161460 0.000000 -0.000000 -0.000000 -0.000000 0.523599
15 4.161457 0.000002 0.000001 0.000000 0.000000 0.000000
16 0.0 0.0 0.0 0.0 0.0 0.0
17 3.591383 -0.007706 0.313533 0.010464 -0.122892 0.702096
18 12.702619 -0.020126 0.001870 -0.084028 0.016262 0.434607
19 27.984331 -0.007272 0.000000 -0.000001 -0.000002 0.815398
20 13.320761 -0.000002 -0.000000 -0.004141 0.078328 -1.510426
21 0.0 0.0 0.0 0.0 0.0 0.0
22 0.782549 8.800552 0.115179 0.000000 0.000030 -1.570794
23 -17.597878 -1.948092 -1.525803 0.000000 0.000000 0.000000
24 0.000004 0.010627 -9.133089 -1.071151 1.170538 1.289627
25 24.790306 -0.000003 0.000002 1.088100 0.382993 -1.468173
26 42.522381 0.000008 0.000000 0.000000 0.000000 -0.001245
27 29.671495 0.000001 -0.000003 1.569921 0.349066 0.000000
28 12.717149 -2.207700 -0.037936 0.000822 -0.000299 0.349066
29 5.726303 -0.000001 -0.000003 0.000000 -0.000000 0.174533
30 5.726302 -0.000000 -0.000000 0.000000 0.000000 0.174533
31 0.0 0.0 0.0 0.0 0.0 0.0
32 21.251345 5.875730 -5.732556 0.814214 -2.500130 -1.302047
33 -31.702122 -1.096464 0.492826 0.123848 0.327201 0.369536
34 -30.644951 0.216291 -0.985437 0.000000 0.000000 0.523599
35 -15.820280 -0.434254 0.497697 -0.000000 -0.000000 0.349066
36 -17.006531 -0.978978 -0.002434 -0.000000 -0.000000 -0.000000
37 0.000004 0.010578 9.133087 1.071155 -1.170543 1.289623
38 24.790308 -0.000005 0.000002 -0.958816 -0.374889 -1.415410
39 42.522388 0.000002 0.000003 0.000000 -0.000000 -0.001245
40 29.671492 0.000002 0.000001 -1.569921 -0.349066 0.000000
41 12.717150 -2.207697 0.037932 -0.000822 0.000299 0.349066
42 5.726305 -0.000001 -0.000004 0.000000 -0.000000 0.174533
43 5.726299 0.000003 0.000004 0.000000 -0.000000 0.174533
44 0.0 0.0 0.0 0.0 0.0 0.0
45 20.623093 6.852354 7.043074 0.381271 -0.620288 -1.165166
46 31.575487 0.620255 0.492824 0.123172 -0.911531 -0.293554
47 30.971258 0.930380 0.494047 0.000000 -0.000000 -0.610865
48 15.321678 -1.085431 0.492621 0.000000 0.000000 -0.261799
49 16.917147 -1.550609 -4.950781 -0.000000 -0.000000 0.000000
50 -51.843414 0.032811 88.547813 -1.570796 -1.570796 0.000000
time 5
0 0.344168 -20.096395 76.312210 0.000000 0.000000 -1.570795
1 0.000000 -0.000000 -75.907394 0.000000 0.000000 1.570795
2 -14.535789 -1.112523 0.000000 0.000000 -1.483529 -1.570795
3 -0.000015 0.000018 10.281536 -0.089057 -2.990862 0.081016
4 57.833652 0.000001 0.000002 0.000000 0.000000 -1.268845
5 41.126141 0.000003 -0.000002 -0.095384 -0.244009 1.327543
6 11.591199 22.213263 0.000001 -0.000000 -0.000000 1.570796
7 4.161461 -0.000000 -0.000000 0.000000 0.000000 0.000000
8 4.161459 -0.000000 0.000000 0.000000 0.000000 0.000000
9 0.0 0.0 0.0 0.0 0.0 0.0
10 0.000013 -0.000011 -10.281537 0.228495 2.698766 -0.739708
11 57.833649 -0.000002 -0.000004 -0.000000 -0.000000 -1.770116
12 41.126141 0.000005 0.000002 -0.116807 0.079400 0.989897
13 11.591197 22.213263 -0.000000 0.000000 -0.000000 1.570796
14 4.161458 0.000000 0.000001 -0.000000 -0.000000 0.523599
15 4.161459 -0.000001 0.000000 0.000000 0.000000 0.000000
16 0.0 0.0 0.0 0.0 0.0 0.0
17 3.591381 -0.007708 0.313533 0.010464 -0.122892 0.702096
18 12.702615 -0.020124 0.001869 -0.084028 0.016262 0.434607
19 27.984331 -0.007272 0.000000 -0.000001 -0.000002 0.815398
20 13.320760 -0.000001 -0.000000 -0.016031 0.076785 -1.663595
21 0.0 0.0 0.0 0.0 0.0 0.0
22 0.782552 8.800550 0.115179 0.000000 0.000030 -1.570794
23 -17.597872 -1.948087 -1.525803 0.000000 0.000000 0.000000
24 0.000004 0.010628 -9.133089 -1.071151 1.170538 1.289627
25 24.790306 -0.000001 0.000004 0.964766 0.105526 -1.515935
26 42.522388 -0.000001 -0.000000 -0.000000 -0.000000 -0.207262
27 29.671484 0.000005 0.000003 1.569921 0.218166 0.000000
28 12.717153 -2.207698 -0.037936 0.000776 -0.000404 0.479965
29 5.726304 -0.000004 0.000003 -0.000000 -0.000000 0.305433
30 5.726299 0.000010 -0.000005 -0.000000 0.000000 0.305433
31 0.0 0.0 0.0 0.0 0.0 0.0
32 21.251345 5.875732 -5.732553 0.325784 -3.027451 -1.126317
33 -31.702120 -1.096458 0.492829 0.123848 0.327201 0.369536
34 -30.644949 0.216287 -0.985440 0.000000 0.000000 0.523599
35 -15.820286 -0.434246 0.497705 0.000000 -0.000000 0.349066
36 -17.006531 -0.978974 -0.002437 -0.000000 0.000000 0.000000
37 0.000004 0.010579 9.133088 1.071155 -1.170543 1.289623
38 24.790306 -0.000004 -0.000003 -0.844361 -0.093842 -1.427284
39 42.522392 0.000001 0.000002 0.000000 0.000000 -0.207262
40 29.671486 0.000005 -0.000003 -1.569921 -0.218166 -0.000000
41 12.717152 -2.207698 0.037934 -0.000776 0.000404 0.479965
42 5.726300 0.000001 0.000001 -0.000000 -0.000000 0.305433
43 5.726305 -0.000006 -0.000003 0.000000 0.000000 0.305433
44 0.0 0.0 0.0 0.0 0.0 0.0
45 20.623089 6.852353 7.043068 0.622135 -0.513324 -1.197698
46 31.575483 0.620259 0.492830 0.123848 -0.327201 -0.369536
47 30.971258 0.930381 0.494047 0.000000 -0.000000 -0.610865
48 15.321680 -1.085430 0.492616 0.000000 -0.000000 -0.261799
49 16.917145 -1.550607 -4.950777 -0.000000 0.000000 0.000000
50 -51.843418 0.032811 88.547813 -1.570796 -1.570796 0.000000
time 6
0 0.458016 2.491518 98.783531 0.000000 0.000000 -1.570795
1 -0.000000 -0.000000 -98.697609 0.000000 0.000000 1.570795
2 -14.535789 -1.112523 0.000000 0.000000 -1.483529 -1.570795
3 -0.000011 0.000019 10.281536 -0.106194 -3.048509 -0.079053
4 57.833652 -0.000000 0.000001 0.000000 -0.000000 -0.787718
5 41.126144 -0.000001 0.000003 -0.059654 -0.170569 0.686428
6 11.591199 22.213261 0.000001 -0.000000 -0.000000 1.570796
7 4.161460 -0.000000 -0.000002 0.000000 0.000000 0.000000
8 4.161458 -0.000000 0.000001 0.000000 0.000000 0.000000
9 0.0 0.0 0.0 0.0 0.0 0.0
10 0.000016 -0.000011 -10.281536 0.331962 2.843884 -0.640304
11 57.833652 -0.000007 -0.000002 -0.000000 -0.000000 -0.860611
12 41.126144 0.000002 0.000001 -0.092997 -0.050431 0.210177
13 11.591197 22.213261 0.000001 0.000000 -0.000000 1.570796
14 4.161455 0.000000 0.000001 -0.000000 -0.000000 0.523599
15 4.161460 -0.000001 0.000000 0.000000 0.000000 0.000000
16 0.0 0.0 0.0 0.0 0.0 0.0
17 3.591384 -0.007707 0.313533 0.010464 -0.122892 0.702096
18 12.702617 -0.020128 0.001870 -0.084028 0.016262 0.434607
19 27.984333 -0.007274 0.000000 -0.000001 -0.000002 0.815398
20 13.320758 -0.000006 -0.000000 -0.024309 0.074583 -1.772970
21 0.0 0.0 0.0 0.0 0.0 0.0
22 0.782550 8.800550 0.115179 0.000000 0.000030 -1.570794
23 -17.597874 -1.948092 -1.525802 0.000000 0.000000 0.000000
24 0.000002 0.010623 -9.133089 -1.071151 1.170538 1.289627
25 24.790306 -0.000003 -0.000000 1.102560 -0.069368 -1.317284
26 42.522377 -0.000000 -0.000002 -0.000000 0.000000 -0.638225
27 29.671495 0.000004 -0.000001 1.569921 -0.000000 0.000000
28 12.717155 -2.207700 -0.037933 0.000670 -0.000562 0.698132
29 5.726301 0.000004 -0.000001 -0.000000 0.000000 0.523599
30 5.726301 -0.000003 0.000000 0.000000 -0.000000 0.523599
31 0.0 0.0 0.0 0.0 0.0 0.0
32 21.251345 5.875731 -5.732556 -0.121493 -2.555903 -0.528263
33 -31.702124 -1.096456 0.492826 0.123848 0.327201 0.369536
34 -30.644949 0.216291 -0.985439 0.000000 -0.000000 0.523599
35 -15.820285 -0.434246 0.497703 0.000000 0.000000 0.349066
36 -17.006529 -0.978974 -0.002432 -0.000000 -0.000000 -0.000000
37 0.000001 0.010574 9.133088 1.071155 -1.170543 1.289623
38 24.790310 0.000000 -0.000001 -0.982696 0.055981 -1.209119
39 42.522388 0.000001 0.000001 -0.000000 -0.000000 -0.638225
40 29.671497 0.000007 -0.000001 -1.569921 -0.000000 -0.000000
41 12.717155 -2.207701 0.037931 -0.000670 0.000562 0.698132
42 5.726303 -0.000000 -0.000002 0.000000 -0.000000 0.523599
43 5.726301 0.000004 -0.000001 -0.000000 -0.000000 0.523599
44 0.0 0.0 0.0 0.0 0.0 0.0
45 20.623093 6.852356 7.043072 -0.085394 -0.622009 -0.658995
46 31.575487 0.620253 0.492834 0.123848 -0.327201 -0.369536
47 30.971254 0.930379 0.494046 0.000000 -0.000000 -0.610865
48 15.321680 -1.085428 0.492619 0.000000 0.000000 -0.261799
49 16.917147 -1.550609 -4.950784 -0.000000 0.000000 -0.000000
50 -51.843414 0.032810 88.547813 -1.570796 -1.570796 0.000000
end
