version 1
nodes
0 "Bip01" -1
1 "Bip01 Footsteps" 0
2 "Bip01 Pelvis" 0
3 "Bip01 L Thigh" 2
4 "Bip01 L Calf" 3
5 "Bip01 L Foot" 4
6 "Bip01 L Toe0" 5
7 "Bip01 L Toe01" 6
8 "Bip01 L Toe02" 7
9 "Null 9" -1
10 "Bip01 R Thigh" 2
11 "Bip01 R Calf" 10
12 "Bip01 R Foot" 11
13 "Bip01 R Toe0" 12
14 "Bip01 R Toe01" 13
15 "Bip01 R Toe02" 14
16 "Null 16" -1
17 "Bip01 Spine" 2
18 "Bip01 Spine1" 17
19 "Bip01 Neck" 18
20 "Bip01 Head" 19
21 "Null 21" -1
22 "Box03" 20
23 "Box04" 22
24 "Bip01 R Clavicle" 19
25 "Bip01 R UpperArm" 24
26 "Bip01 R Forearm" 25
27 "Bip01 R Hand" 26
28 "Bip01 R Finger0" 27
29 "Bip01 R Finger01" 28
30 "Bip01 R Finger02" 29
31 "Null 31" -1
32 "Box08" 24
33 "Box09" 32
34 "Box10" 33
35 "Box11" 34
36 "Box12" 35
37 "Bip01 L Clavicle" 19
38 "Bip01 L UpperArm" 37
39 "Bip01 L Forearm" 38
40 "Bip01 L Hand" 39
41 "Bip01 L Finger0" 40
42 "Bip01 L Finger01" 41
43 "Bip01 L Finger02" 42
44 "Null 44" -1
45 "Box01" 37
46 "Box02" 45
47 "Box05" 46
48 "Box06" 47
49 "Box07" 48
50 "ewr" 2
end
skeleton
time 0
0 -0.225072 3.648597 89.087563 0.000000 0.000000 -1.570795
1 -0.000000 -0.000000 -89.012688 0.000000 0.000000 1.570795
2 -12.631578 -0.486115 0.000000 0.000000 -1.483529 -1.570795
3 -0.000014 0.000019 10.281537 -0.095166 -3.011326 -0.217173
4 57.833660 -0.000000 0.000002 -0.000000 0.000000 -1.199334
5 41.126141 -0.000000 0.000001 -0.051287 -0.192586 0.956613
6 11.591197 22.213261 0.000001 -0.000000 -0.000000 1.570796
7 4.161460 0.000000 -0.000002 0.000000 0.000000 0.000000
8 4.161459 0.000000 0.000001 0.000000 0.000000 0.000000
9 0.0 0.0 0.0 0.0 0.0 0.0
10 0.000014 -0.000011 -10.281537 0.292553 2.782780 -0.830709
11 57.833652 -0.000003 -0.000002 0.000000 0.000000 -1.256654
12 41.126141 -0.000001 0.000002 -0.111245 -0.062711 0.424471
13 11.591199 22.213259 0.000001 0.000000 0.000000 1.570796
14 4.161463 -0.000000 -0.000001 0.000000 0.000000 0.523599
15 4.161456 0.000002 0.000001 0.000000 0.000000 0.000000
16 0.0 0.0 0.0 0.0 0.0 0.0
17 3.590686 -0.008242 0.313425 0.021187 -0.121510 0.614185
18 12.699005 -0.021414 -0.002212 0.099680 0.062937 0.268737
19 27.984337 -0.007273 0.000000 -0.000001 -0.000002 0.815398
20 13.320760 -0.000006 0.000000 -0.121189 -0.097316 -1.517326
21 0.0 0.0 0.0 0.0 0.0 0.0
22 0.782557 8.800552 0.115179 0.000000 0.000030 -1.570794
23 -17.597874 -1.948088 -1.525802 0.000000 0.000000 0.000000
24 0.000004 0.010626 -9.133088 -1.071151 1.170538 1.289627
25 24.790308 0.000000 0.000003 0.736064 -0.598851 -0.624206
26 42.522392 -0.000002 -0.000000 -0.000000 -0.000000 -0.813909
27 29.671488 -0.000003 -0.000000 1.569921 -0.000000 0.000000
28 12.717155 -2.207697 -0.037936 0.000670 -0.000562 0.698131
29 5.726305 0.000000 -0.000001 -0.000000 0.000000 0.523599
30 5.726298 0.000000 -0.000000 0.000000 -0.000000 0.523599
31 0.0 0.0 0.0 0.0 0.0 0.0
32 21.251347 5.875727 -5.732551 1.270348 -3.131009 -1.037804
33 -31.702122 -1.096457 0.492827 -0.000000 0.959931 -0.000000
34 -30.644951 0.216289 -0.985440 0.000000 0.000000 0.523599
35 -15.820282 -0.434252 0.497698 -0.000000 0.000000 0.349066
36 -17.006533 -0.978975 -0.002437 0.000000 -0.000000 -0.000000
37 0.000005 0.010584 9.133088 1.071155 -1.170543 1.289623
38 24.790306 0.000001 0.000005 -0.658112 0.604016 -0.965875
39 42.522385 -0.000002 -0.000002 0.000000 0.000000 -0.596883
40 29.671492 0.000000 0.000000 -1.569921 -0.000000 -0.000000
41 12.717152 -2.207700 0.037935 -0.000670 0.000562 0.698131
42 5.726302 -0.000001 0.000004 0.000000 -0.000000 0.523599
43 5.726302 -0.000001 -0.000000 -0.000000 0.000000 0.523599
44 0.0 0.0 0.0 0.0 0.0 0.0
45 20.623093 6.852354 7.043077 0.697486 0.160544 -0.954908
46 31.575487 0.620258 0.492829 -0.000000 -0.610865 0.000000
47 30.971258 0.930375 0.494039 0.000000 -0.000000 -0.610865
48 15.321678 -1.085430 0.492616 0.000000 -0.000000 -0.261799
49 16.917147 -1.550606 -4.950782 -0.000000 0.000000 0.000000
50 -51.843418 0.032810 88.547813 -1.570796 -1.570796 0.000000
time 1
0 -0.225072 4.582668 90.133957 0.000000 0.000000 -1.570795
1 0.000000 -0.000000 -90.063301 0.000000 0.000000 1.570795
2 -12.392185 -0.428503 0.000000 0.000000 -1.483529 -1.570795
3 -0.000015 0.000019 10.281537 -0.097252 -3.014911 -0.216935
4 57.833652 0.000000 0.000003 -0.000000 -0.000000 -1.169082
5 41.126144 0.000002 0.000001 -0.050114 -0.188651 0.926608
6 11.591198 22.213263 -0.000000 -0.000000 0.000000 1.570796
7 4.161460 0.000000 -0.000002 0.000000 0.000000 0.000000
8 4.161459 -0.000000 0.000001 0.000000 0.000000 0.000000
9 0.0 0.0 0.0 0.0 0.0 0.0
10 0.000013 -0.000011 -10.281536 0.297977 2.788752 -0.817673
11 57.833652 -0.000008 -0.000000 0.000000 0.000000 -1.212564
12 41.126141 0.000004 -0.000001 -0.110219 -0.064830 0.393765
13 11.591198 22.213261 0.000000 0.000000 -0.000000 1.570796
14 4.161460 0.000000 -0.000001 -0.000000 0.000000 0.523599
15 4.161457 0.000001 0.000002 0.000000 0.000000 0.000000
16 0.0 0.0 0.0 0.0 0.0 0.0
17 3.590686 -0.008242 0.313425 0.021187 -0.121510 0.614185
18 12.698181 -0.021626 -0.002157 0.097223 0.066678 0.230794
19 27.984200 -0.007421 0.000000 -0.000001 -0.000002 0.796374
20 13.320761 0.000004 0.000000 -0.123010 -0.094999 -1.441283
21 0.0 0.0 0.0 0.0 0.0 0.0
22 0.782548 8.800551 0.115179 -0.000000 0.000030 -1.581400
23 -17.597872 -1.948092 -1.525802 0.000000 0.000000 0.000000
24 0.000003 0.010631 -9.133088 -1.040282 1.189743 1.337196
25 24.790308 -0.000000 0.000004 0.686033 -0.620908 -0.567505
26 42.522388 -0.000001 0.000002 0.000000 0.000000 -0.942353
27 29.671490 0.000003 -0.000004 1.569921 0.022515 0.000000
28 12.717152 -2.207698 -0.037936 0.000683 -0.000547 0.675617
29 5.726303 -0.000003 -0.000001 0.000000 0.000000 0.501084
30 5.726304 -0.000002 0.000001 -0.000000 -0.000000 0.501084
31 0.0 0.0 0.0 0.0 0.0 0.0
32 21.251347 5.875731 -5.732553 1.279033 3.128535 -1.043234
33 -31.702129 -1.096461 0.492830 0.061236 0.958616 0.074778
34 -30.644955 0.216292 -0.985442 0.000000 -0.000000 0.523599
35 -15.820282 -0.434247 0.497702 -0.000000 0.000000 0.313419
36 -17.006533 -0.978979 -0.002438 -0.000000 -0.000000 -0.000000
37 0.000004 0.010590 9.133089 1.040285 -1.189748 1.337193
38 24.790304 0.000005 0.000002 -0.610215 0.639212 -0.899497
39 42.522385 -0.000001 -0.000002 0.000000 -0.000000 -0.756708
40 29.671484 0.000004 0.000001 -1.569921 -0.022515 0.000000
41 12.717155 -2.207700 0.037933 -0.000683 0.000547 0.675617
42 5.726303 0.000006 0.000003 -0.000000 -0.000000 0.501084
43 5.726302 -0.000004 -0.000002 0.000000 -0.000000 0.501084
44 0.0 0.0 0.0 0.0 0.0 0.0
45 20.623093 6.852359 7.043074 0.704764 0.184119 -0.977601
46 31.575491 0.620256 0.492830 0.018038 -0.610633 -0.031452
47 30.971256 0.930378 0.494048 0.000000 -0.000000 -0.610865
48 15.321681 -1.085429 0.492615 0.000000 0.000000 -0.221342
49 16.917143 -1.550607 -4.950780 -0.000000 0.000000 0.015867
50 -51.843418 0.032810 88.547806 -1.570796 -1.570796 0.000000
time 2
0 -0.225072 5.636711 91.314781 0.000000 0.000000 -1.570795
1 0.000000 -0.000000 -91.239929 0.000000 0.000000 1.570795
2 -12.109346 -0.363523 0.000000 0.000000 -1.483529 -1.570795
3 -0.000017 0.000019 10.281537 -0.099592 -3.019014 -0.215605
4 57.833649 -0.000001 0.000001 0.000000 -0.000000 -1.133431
5 41.126141 0.000002 0.000002 -0.048919 -0.184294 0.892347
6 11.591198 22.213263 0.000000 -0.000000 -0.000000 1.570796
7 4.161460 0.000000 0.000001 0.000000 0.000000 0.000000
8 4.161459 -0.000000 -0.000001 0.000000 0.000000 0.000000
9 0.0 0.0 0.0 0.0 0.0 0.0
10 0.000010 -0.000011 -10.281536 0.304339 2.795683 -0.802027
11 57.833656 -0.000002 -0.000001 -0.000000 -0.000000 -1.161374
12 41.126148 0.000003 0.000002 -0.109229 -0.067137 0.358492
13 11.591198 22.213259 0.000000 0.000000 0.000000 1.570796
14 4.161459 -0.000000 -0.000000 -0.000000 -0.000000 0.523599
15 4.161458 0.000000 -0.000002 0.000000 0.000000 0.000000
16 0.0 0.0 0.0 0.0 0.0 0.0
17 3.590683 -0.008241 0.313425 0.021187 -0.121510 0.614185
18 12.697250 -0.021824 -0.002091 0.094280 0.070783 0.187954
19 27.984034 -0.007582 0.000001 -0.000001 -0.000002 0.774906
20 13.320761 -0.000004 0.000000 -0.125011 -0.092344 -1.355484
21 0.0 0.0 0.0 0.0 0.0 0.0
22 0.782557 8.800552 0.115179 -0.000001 0.000030 -1.604731
23 -17.597874 -1.948090 -1.525803 0.000000 0.000000 0.000000
24 0.000005 0.010628 -9.133089 -1.005228 1.209163 1.391330
25 24.790312 0.000001 0.000003 0.623890 -0.643377 -0.497969
26 42.522381 -0.000001 -0.000001 0.000000 0.000000 -1.089559
27 29.671490 0.000001 -0.000000 1.569921 0.045728 -0.000000
28 12.717155 -2.207702 -0.037934 0.000695 -0.000531 0.652404
29 5.726305 0.000000 -0.000004 -0.000000 0.000000 0.477871
30 5.726301 0.000001 -0.000002 0.000000 -0.000000 0.477871
31 0.0 0.0 0.0 0.0 0.0 0.0
32 21.251347 5.875732 -5.732556 1.288632 3.101952 -1.049085
33 -31.702129 -1.096461 0.492830 0.129249 0.954029 0.158002
34 -30.644955 0.216287 -0.985442 -0.000000 0.000000 0.523599
35 -15.820284 -0.434251 0.497698 -0.000000 0.000000 0.270189
36 -17.006527 -0.978974 -0.002434 -0.000000 0.000000 0.000000
37 0.000005 0.010587 9.133089 1.005231 -1.209169 1.391327
38 24.790308 -0.000000 0.000003 -0.547108 0.676191 -0.817027
39 42.522388 -0.000002 -0.000006 -0.000000 -0.000000 -0.938034
40 29.671488 -0.000000 -0.000000 -1.569921 -0.045728 0.000000
41 12.717155 -2.207702 0.037933 -0.000695 0.000531 0.652404
42 5.726301 0.000001 -0.000000 0.000000 -0.000000 0.477871
43 5.726301 0.000001 0.000005 0.000000 -0.000000 0.477871
44 0.0 0.0 0.0 0.0 0.0 0.0
45 20.623096 6.852355 7.043077 0.712319 0.210758 -1.002984
46 31.575483 0.620263 0.492831 0.038250 -0.609819 -0.066720
47 30.971258 0.930375 0.494043 0.000000 -0.000000 -0.610865
48 15.321681 -1.085428 0.492620 0.000000 0.000000 -0.169397
49 16.917143 -1.550608 -4.950782 -0.000000 -0.000000 0.031733
50 -51.843422 0.032811 88.547813 -1.570796 -1.570796 0.000000
time 3
0 -0.225072 6.759310 92.572388 0.000000 0.000000 -1.570795
1 0.000000 -0.000000 -92.493774 0.000000 0.000000 1.570795
2 -11.793871 -0.294483 0.000000 0.000000 -1.483529 -1.570795
3 -0.000017 0.000019 10.281537 -0.102068 -3.023458 -0.212881
4 57.833656 -0.000001 0.000000 0.000000 -0.000000 -1.093507
5 41.126144 0.000001 0.000002 -0.047787 -0.179757 0.855329
6 11.591198 22.213261 0.000000 -0.000000 -0.000000 1.570796
7 4.161459 0.000000 0.000001 0.000000 0.000000 0.000000
8 4.161459 0.000000 0.000001 0.000000 0.000000 0.000000
9 0.0 0.0 0.0 0.0 0.0 0.0
10 0.000010 -0.000011 -10.281537 0.311144 2.803345 -0.784523
11 57.833664 0.000000 -0.000003 0.000000 -0.000000 -1.105428
12 41.126148 0.000004 0.000002 -0.108169 -0.069502 0.319786
13 11.591197 22.213261 -0.000000 0.000000 0.000000 1.570796
14 4.161462 0.000000 -0.000001 0.000000 0.000000 0.523599
15 4.161459 0.000002 0.000002 0.000000 0.000000 0.000000
16 0.0 0.0 0.0 0.0 0.0 0.0
17 3.590683 -0.008241 0.313425 0.021187 -0.121510 0.614185
18 12.696241 -0.021984 -0.002017 0.090955 0.075013 0.142302
19 27.983862 -0.007750 -0.000001 -0.000001 -0.000002 0.752043
20 13.320762 -0.000004 0.000000 -0.127079 -0.089470 -1.264116
21 0.0 0.0 0.0 0.0 0.0 0.0
22 0.782552 8.800553 0.115179 -0.000002 0.000030 -1.628063
23 -17.597874 -1.948094 -1.525803 0.000000 0.000000 0.000000
24 0.000005 0.010621 -9.133087 -0.967042 1.227852 1.450037
25 24.790308 0.000001 0.000001 0.555858 -0.660982 -0.426661
26 42.522385 -0.000004 0.000006 -0.000000 -0.000000 -1.227384
27 29.671492 0.000003 0.000002 1.569921 0.068591 0.000000
28 12.717155 -2.207697 -0.037933 0.000707 -0.000515 0.629540
29 5.726301 0.000002 -0.000004 -0.000000 0.000000 0.455007
30 5.726303 -0.000005 -0.000000 -0.000000 0.000000 0.455007
31 0.0 0.0 0.0 0.0 0.0 0.0
32 21.251350 5.875728 -5.732552 1.298727 3.073500 -1.055062
33 -31.702124 -1.096460 0.492830 0.200248 0.945581 0.245280
34 -30.644953 0.216290 -0.985436 0.000000 0.000000 0.523599
35 -15.820282 -0.434248 0.497702 -0.000000 0.000000 0.221444
36 -17.006529 -0.978975 -0.002435 -0.000000 -0.000000 -0.000000
37 0.000004 0.010580 9.133089 0.967044 -1.227858 1.450035
38 24.790306 -0.000001 0.000001 -0.475355 0.708220 -0.731013
39 42.522385 -0.000001 -0.000001 -0.000000 -0.000000 -1.108610
40 29.671490 0.000000 -0.000004 -1.569921 -0.068591 -0.000000
41 12.717155 -2.207699 0.037934 -0.000707 0.000515 0.629540
42 5.726304 0.000001 0.000003 -0.000000 0.000000 0.455007
43 5.726302 -0.000001 -0.000002 -0.000000 -0.000000 0.455007
44 0.0 0.0 0.0 0.0 0.0 0.0
45 20.623091 6.852355 7.043074 0.719668 0.239408 -1.030037
46 31.575491 0.620250 0.492830 0.059767 -0.608306 -0.104327
47 30.971258 0.930378 0.494046 0.000000 -0.000000 -0.610865
48 15.321675 -1.085427 0.492619 0.000000 0.000000 -0.109409
49 16.917143 -1.550608 -4.950778 -0.000000 -0.000000 0.047600
50 -51.843418 0.032811 88.547813 -1.570796 -1.570796 0.000000
time 4
0 -0.225072 7.899049 93.849197 0.000000 0.000000 -1.570795
1 0.000000 -0.000000 -93.769455 0.000000 0.000000 1.570795
2 -11.459218 -0.224710 0.000000 0.000000 -1.483529 -1.570795
3 -0.000017 0.000019 10.281536 -0.104557 -3.028052 -0.208738
4 57.833649 -0.000000 0.000000 0.000000 -0.000000 -1.050870
5 41.126141 0.000004 0.000001 -0.046776 -0.175260 0.817031
6 11.591197 22.213261 -0.000001 -0.000000 -0.000000 1.570796
7 4.161459 0.000000 0.000000 0.000000 0.000000 0.000000
8 4.161459 0.000000 0.000002 0.000000 0.000000 0.000000
9 0.0 0.0 0.0 0.0 0.0 0.0
10 0.000011 -0.000010 -10.281536 0.318033 2.811406 -0.765999
11 57.833645 0.000000 0.000002 0.000000 0.000000 -1.047217
12 41.126141 0.000003 -0.000003 -0.107075 -0.071851 0.278974
13 11.591198 22.213259 0.000001 0.000000 -0.000000 1.570796
14 4.161458 -0.000000 -0.000000 -0.000000 -0.000000 0.523599
15 4.161459 -0.000001 0.000000 0.000000 0.000000 0.000000
16 0.0 0.0 0.0 0.0 0.0 0.0
17 3.590683 -0.008241 0.313425 0.021187 -0.121510 0.614185
18 12.695224 -0.022109 -0.001938 0.087383 0.079149 0.095923
19 27.983679 -0.007916 0.000000 -0.000001 -0.000002 0.728830
20 13.320760 0.000008 -0.000001 -0.129110 -0.086504 -1.171366
21 0.0 0.0 0.0 0.0 0.0 0.0
22 0.782560 8.800550 0.115179 -0.000002 0.000030 -1.638668
23 -17.597874 -1.948092 -1.525802 0.000000 0.000000 0.000000
24 0.000004 0.010634 -9.133089 -0.927414 1.244935 1.510685
25 24.790310 -0.000003 -0.000002 0.491035 -0.671441 -0.366775
26 42.522385 -0.000003 0.000002 -0.000000 0.000000 -1.327683
27 29.671488 0.000001 0.000002 1.569921 0.090059 0.000000
28 12.717155 -2.207699 -0.037933 0.000718 -0.000500 0.608073
29 5.726305 0.000000 -0.000002 -0.000000 -0.000000 0.433540
30 5.726302 -0.000003 0.000004 0.000000 0.000000 0.433540
31 0.0 0.0 0.0 0.0 0.0 0.0
32 21.251348 5.875723 -5.732555 1.308927 3.044262 -1.060906
33 -31.702129 -1.096459 0.492828 0.270469 0.933263 0.332250
34 -30.644949 0.216288 -0.985440 0.000000 -0.000000 0.523599
35 -15.820282 -0.434248 0.497703 -0.000000 -0.000000 0.169253
36 -17.006531 -0.978978 -0.002431 0.000000 -0.000000 -0.000000
37 0.000004 0.010586 9.133089 0.927415 -1.244941 1.510684
38 24.790310 -0.000001 -0.000000 -0.406417 0.731976 -0.657573
39 42.522381 -0.000001 -0.000003 0.000000 -0.000000 -1.236181
40 29.671492 0.000000 0.000001 -1.569922 -0.090059 -0.000000
41 12.717152 -2.207696 0.037933 -0.000718 0.000500 0.608073
42 5.726306 -0.000003 -0.000000 0.000000 -0.000000 0.433540
43 5.726298 0.000005 0.000001 -0.000000 -0.000000 0.433540
44 0.0 0.0 0.0 0.0 0.0 0.0
45 20.623093 6.852361 7.043079 0.726424 0.268977 -1.057763
46 31.575491 0.620263 0.492829 0.081715 -0.606067 -0.142792
47 30.971256 0.930380 0.494046 0.000000 -0.000000 -0.610865
48 15.321673 -1.085428 0.492620 0.000000 0.000000 -0.044826
49 16.917145 -1.550606 -4.950776 -0.000000 -0.000000 0.063466
50 -51.843418 0.032811 88.547813 -1.570796 -1.570796 0.000000
time 5
0 -0.225072 9.004508 95.087593 0.000000 0.000000 -1.570795
1 -0.000000 0.000000 -95.006729 0.000000 0.000000 1.570795
2 -11.121483 -0.157486 0.000000 0.000000 -1.483529 -1.570795
3 -0.000014 0.000020 10.281537 -0.106945 -3.032597 -0.203331
4 57.833656 -0.000001 0.000003 -0.000000 -0.000000 -1.007301
5 41.126141 0.000003 -0.000000 -0.045918 -0.171006 0.779112
6 11.591198 22.213263 -0.000001 -0.000000 -0.000000 1.570796
7 4.161460 -0.000000 -0.000002 0.000000 0.000000 0.000000
8 4.161460 -0.000000 0.000001 0.000000 0.000000 0.000000
9 0.0 0.0 0.0 0.0 0.0 0.0
10 0.000013 -0.000010 -10.281537 0.324918 2.819731 -0.746561
11 57.833652 0.000004 0.000002 0.000000 0.000000 -0.987949
12 41.126137 0.000002 -0.000004 -0.106035 -0.073975 0.238165
13 11.591198 22.213261 0.000001 0.000000 -0.000000 1.570796
14 4.161458 -0.000000 -0.000000 0.000000 -0.000000 0.523599
15 4.161461 -0.000000 -0.000001 0.000000 0.000000 0.000000
16 0.0 0.0 0.0 0.0 0.0 0.0
17 3.590686 -0.008241 0.313425 0.021187 -0.121510 0.614185
18 12.694227 -0.022184 -0.001856 0.083737 0.082997 0.050910
19 27.983503 -0.008078 0.000000 -0.000001 -0.000002 0.706315
20 13.320759 0.000006 -0.000001 -0.131013 -0.083584 -1.081416
21 0.0 0.0 0.0 0.0 0.0 0.0
22 0.782548 8.800554 0.115179 -0.000002 0.000030 -1.623821
23 -17.597874 -1.948101 -1.525803 0.000000 0.000000 0.000000
24 0.000004 0.010639 -9.133091 -0.888845 1.259636 1.569831
25 24.790306 0.000000 -0.000004 0.440048 -0.675635 -0.332442
26 42.522385 -0.000002 0.000005 0.000000 0.000000 -1.362315
27 29.671492 -0.000004 -0.000002 1.569921 0.109083 -0.000000
28 12.717152 -2.207702 -0.037932 0.000727 -0.000486 0.589048
29 5.726306 -0.000005 -0.000004 -0.000000 -0.000000 0.414516
30 5.726302 0.000000 -0.000002 -0.000000 0.000000 0.414516
31 0.0 0.0 0.0 0.0 0.0 0.0
32 21.251347 5.875732 -5.732564 1.318864 3.015332 -1.066400
33 -31.702126 -1.096455 0.492829 0.336566 0.917673 0.414965
34 -30.644951 0.216288 -0.985440 0.000000 0.000000 0.523599
35 -15.820282 -0.434249 0.497704 -0.000000 -0.000000 0.115683
36 -17.006533 -0.978976 -0.002437 0.000000 0.000000 -0.000000
37 0.000006 0.010583 9.133089 0.888844 -1.259642 1.569831
38 24.790308 -0.000003 -0.000007 -0.355220 0.748024 -0.615229
39 42.522392 -0.000002 -0.000009 -0.000000 0.000000 -1.288493
40 29.671488 -0.000005 -0.000001 -1.569921 -0.109083 0.000000
41 12.717150 -2.207701 0.037934 -0.000727 0.000486 0.589048
42 5.726304 -0.000002 0.000003 0.000000 0.000000 0.414516
43 5.726296 0.000003 -0.000004 -0.000000 -0.000000 0.414516
44 0.0 0.0 0.0 0.0 0.0 0.0
45 20.623096 6.852355 7.043068 0.732309 0.298346 -1.085174
46 31.575487 0.620254 0.492828 0.103233 -0.603179 -0.180643
47 30.971260 0.930379 0.494045 0.000000 -0.000000 -0.610865
48 15.321676 -1.085430 0.492621 0.000000 0.000000 0.020906
49 16.917141 -1.550604 -4.950778 -0.000000 -0.000000 0.079333
50 -51.843418 0.032811 88.547806 -1.570796 -1.570796 0.000000
time 6
0 -0.225072 10.024274 96.230003 0.000000 0.000000 -1.570795
1 -0.000000 0.000000 -96.147980 0.000000 0.000000 1.570795
2 -10.799047 -0.095985 0.000000 0.000000 -1.483529 -1.570795
3 -0.000018 0.000018 10.281537 -0.109124 -3.036880 -0.197055
4 57.833649 -0.000001 0.000003 0.000000 0.000000 -0.964959
5 41.126141 0.000000 0.000001 -0.045228 -0.167177 0.743295
6 11.591197 22.213261 0.000000 -0.000000 -0.000000 1.570796
7 4.161460 -0.000000 -0.000001 0.000000 0.000000 0.000000
8 4.161459 -0.000000 0.000002 0.000000 0.000000 0.000000
9 0.0 0.0 0.0 0.0 0.0 0.0
10 0.000010 -0.000012 -10.281537 0.331468 2.827934 -0.727205
11 57.833652 -0.000002 -0.000001 0.000000 -0.000000 -0.930367
12 41.126144 0.000001 0.000000 -0.105090 -0.075816 0.199115
13 11.591198 22.213259 0.000001 0.000000 -0.000000 1.570796
14 4.161457 -0.000000 -0.000001 0.000000 -0.000000 0.523599
15 4.161461 0.000001 0.000000 0.000000 0.000000 0.000000
16 0.0 0.0 0.0 0.0 0.0 0.0
17 3.590683 -0.008243 0.313425 0.021187 -0.121510 0.614185
18 12.693299 -0.022207 -0.001778 0.080221 0.086400 0.009362
19 27.983320 -0.008210 -0.000001 -0.000001 -0.000002 0.685545
20 13.320763 -0.000004 0.000000 -0.132709 -0.080854 -0.998449
21 0.0 0.0 0.0 0.0 0.0 0.0
22 0.782556 8.800553 0.115179 0.000000 0.000030 -1.570794
23 -17.597874 -1.948091 -1.525802 0.000000 0.000000 0.000000
24 0.000008 0.010624 -9.133088 -0.848731 1.273200 1.628871
25 24.790306 0.000001 -0.000006 0.415384 -0.672446 -0.341665
26 42.522385 -0.000001 0.000003 0.000000 -0.000000 -1.300395
27 29.671486 -0.000000 -0.000002 1.569921 0.127205 0.000000
28 12.717152 -2.207702 -0.037934 0.000736 -0.000473 0.570926
29 5.726303 -0.000002 -0.000006 -0.000000 -0.000000 0.396393
30 5.726304 0.000001 0.000005 0.000000 0.000000 0.396393
31 0.0 0.0 0.0 0.0 0.0 0.0
32 21.251348 5.875725 -5.732553 1.328189 2.987808 -1.071370
33 -31.702131 -1.096467 0.492828 0.395894 0.899935 0.490165
34 -30.644951 0.216288 -0.985441 0.000000 0.000000 0.523599
35 -15.820284 -0.434249 0.497701 -0.000000 -0.000000 0.062802
36 -17.006531 -0.978977 -0.002431 0.000000 0.000000 0.000000
37 0.000010 0.010569 9.133090 0.848730 -1.273206 1.628872
38 24.790308 -0.000006 -0.000006 -0.339456 0.755390 -0.626689
39 42.522381 -0.000002 -0.000001 0.000000 -0.000000 -1.231667
40 29.671486 -0.000003 -0.000003 -1.569921 -0.127205 -0.000000
41 12.717152 -2.207700 0.037932 -0.000736 0.000473 0.570926
42 5.726301 0.000002 0.000001 0.000000 -0.000000 0.396393
43 5.726302 -0.000002 0.000001 0.000000 0.000000 0.396393
44 0.0 0.0 0.0 0.0 0.0 0.0
45 20.623096 6.852351 7.043068 0.737161 0.326371 -1.111279
46 31.575493 0.620256 0.492829 0.123489 -0.599819 -0.216436
47 30.971252 0.930378 0.494049 0.000000 -0.000000 -0.610865
48 15.321676 -1.085427 0.492620 0.000000 -0.000000 0.084341
49 16.917145 -1.550606 -4.950782 -0.000000 0.000000 0.095200
50 -51.843422 0.032809 88.547813 -1.570796 -1.570796 0.000000
time 7
0 -0.225072 10.906928 97.218803 0.000000 0.000000 -1.570795
1 -0.000000 0.000000 -97.135658 0.000000 0.000000 1.570795
2 -10.511971 -0.043235 0.000000 0.000000 -1.483529 -1.570795
3 -0.000016 0.000018 10.281536 -0.110992 -3.040668 -0.190552
4 57.833656 -0.000001 0.000002 -0.000000 0.000000 -0.926448
5 41.126137 0.000004 0.000002 -0.044702 -0.163936 0.711471
6 11.591198 22.213261 -0.000000 -0.000000 -0.000000 1.570796
7 4.161459 -0.000000 0.000001 0.000000 0.000000 0.000000
8 4.161460 -0.000000 -0.000002 0.000000 0.000000 0.000000
9 0.0 0.0 0.0 0.0 0.0 0.0
10 0.000011 -0.000012 -10.281537 0.337321 2.835520 -0.709177
11 57.833660 0.000002 -0.000001 0.000000 0.000000 -0.877823
12 41.126148 0.000001 -0.000001 -0.104283 -0.077321 0.163986
13 11.591198 22.213257 0.000001 0.000000 -0.000000 1.570796
14 4.161466 -0.000000 0.000000 0.000000 0.000000 0.523599
15 4.161460 0.000001 -0.000000 0.000000 0.000000 0.000000
16 0.0 0.0 0.0 0.0 0.0 0.0
17 3.590684 -0.008242 0.313425 0.021187 -0.121510 0.614185
18 12.692506 -0.022201 -0.001708 0.077066 0.089225 -0.026620
19 27.983189 -0.008334 0.000001 -0.000000 -0.000002 0.667569
20 13.320761 -0.000001 0.000000 -0.134131 -0.078462 -0.926644
21 0.0 0.0 0.0 0.0 0.0 0.0
22 0.782549 8.800551 0.115179 0.000012 0.000029 -1.246272
23 -17.597876 -1.948093 -1.525802 0.000000 0.000000 0.000000
24 0.000002 0.010640 -9.133090 -0.805490 1.286128 1.688270
25 24.790310 -0.000002 -0.000006 0.415991 -0.663428 -0.389335
26 42.522385 -0.000002 0.000009 -0.000000 -0.000000 -1.160685
27 29.671490 0.000003 -0.000007 1.569921 0.145124 -0.000000
28 12.717150 -2.207702 -0.037932 0.000744 -0.000459 0.553007
29 5.726306 0.000005 -0.000003 -0.000000 -0.000000 0.378475
30 5.726300 -0.000000 -0.000001 -0.000000 0.000000 0.378475
31 0.0 0.0 0.0 0.0 0.0 0.0
32 21.251348 5.875724 -5.732556 1.336567 2.962798 -1.075672
33 -31.702127 -1.096456 0.492830 0.446587 0.881563 0.555349
34 -30.644947 0.216296 -0.985435 -0.000000 0.000000 0.523599
35 -15.820282 -0.434251 0.497698 -0.000000 0.000000 0.012679
36 -17.006531 -0.978974 -0.002435 0.000000 0.000000 -0.000000
37 0.000005 0.010585 9.133089 0.805488 -1.286133 1.688273
38 24.790312 -0.000005 -0.000006 -0.357555 0.754845 -0.685574
39 42.522385 -0.000002 -0.000001 -0.000000 -0.000000 -1.087205
40 29.671494 -0.000000 -0.000003 -1.569921 -0.145124 0.000000
41 12.717155 -2.207700 0.037934 -0.000744 0.000460 0.553007
42 5.726297 0.000001 -0.000001 0.000000 0.000000 0.378475
43 5.726312 0.000000 0.000003 -0.000000 -0.000000 0.378475
44 0.0 0.0 0.0 0.0 0.0 0.0
45 20.623095 6.852357 7.043077 0.740930 0.351895 -1.135063
46 31.575485 0.620253 0.492832 0.141687 -0.596256 -0.248756
47 30.971258 0.930373 0.494046 0.000000 -0.000000 -0.610865
48 15.321684 -1.085428 0.492618 0.000000 0.000000 0.142031
49 16.917141 -1.550604 -4.950778 -0.000000 0.000000 0.111066
50 -51.843418 0.032810 88.547813 -1.570796 -1.570796 0.000000
time 8
0 -0.225072 11.601055 97.996407 0.000000 0.000000 -1.570795
1 -0.000000 0.000000 -97.912315 0.000000 0.000000 1.570795
2 -10.281261 -0.002112 0.000000 0.000000 -1.483529 -1.570795
3 -0.000014 0.000018 10.281536 -0.112449 -3.043707 -0.184691
4 57.833652 -0.000001 0.000004 -0.000000 -0.000000 -0.894815
5 41.126144 0.000003 -0.000000 -0.044334 -0.161437 0.685913
6 11.591198 22.213263 0.000000 -0.000000 -0.000000 1.570796
7 4.161460 -0.000000 -0.000000 0.000000 0.000000 0.000000
8 4.161459 -0.000000 -0.000001 0.000000 0.000000 0.000000
9 0.0 0.0 0.0 0.0 0.0 0.0
10 0.000014 -0.000012 -10.281537 0.342062 2.841860 -0.694052
11 57.833656 -0.000001 -0.000001 -0.000000 0.000000 -0.834409
12 41.126137 0.000001 -0.000003 -0.103653 -0.078450 0.135300
13 11.591197 22.213257 0.000000 0.000000 0.000000 1.570796
14 4.161458 -0.000000 -0.000001 -0.000000 0.000000 0.523599
15 4.161461 0.000001 0.000001 0.000000 0.000000 0.000000
16 0.0 0.0 0.0 0.0 0.0 0.0
17 3.590687 -0.008242 0.313425 0.021187 -0.121510 0.614185
18 12.691889 -0.022181 -0.001651 0.074513 0.091366 -0.054928
19 27.983051 -0.008414 -0.000001 -0.000000 -0.000002 0.653432
20 13.320763 -0.000003 0.000001 -0.135219 -0.076564 -0.870181
21 0.0 0.0 0.0 0.0 0.0 0.0
22 0.782548 8.800551 0.115179 0.000022 0.000023 -0.959929
23 -17.597876 -1.948095 -1.525803 0.000000 0.000000 0.000000
24 0.000007 0.010626 -9.133087 -0.765211 1.296803 1.741126
25 24.790306 -0.000004 -0.000001 0.431414 -0.652926 -0.453985
26 42.522381 -0.000002 0.000007 0.000000 -0.000000 -0.989511
27 29.671488 0.000001 0.000000 1.569921 0.160527 0.000000
28 12.717152 -2.207700 -0.037934 0.000751 -0.000448 0.537605
29 5.726305 0.000004 -0.000002 0.000000 0.000000 0.363072
30 5.726302 -0.000001 -0.000004 -0.000000 -0.000000 0.363072
31 0.0 0.0 0.0 0.0 0.0 0.0
32 21.251347 5.875723 -5.732552 1.343666 2.941411 -1.079194
33 -31.702124 -1.096459 0.492825 0.487432 0.864289 0.608649
34 -30.644949 0.216289 -0.985437 -0.000000 0.000000 0.523599
35 -15.820280 -0.434248 0.497697 -0.000000 -0.000000 -0.032619
36 -17.006529 -0.978974 -0.002432 0.000000 -0.000000 0.000000
37 0.000010 0.010571 9.133091 0.765208 -1.296809 1.741130
38 24.790308 -0.000006 -0.000005 -0.394236 0.749355 -0.765724
39 42.522381 0.000001 0.000000 0.000000 -0.000000 -0.905926
40 29.671488 0.000002 -0.000000 -1.569921 -0.160527 0.000000
41 12.717153 -2.207700 0.037932 -0.000751 0.000448 0.537605
42 5.726299 -0.000001 0.000002 0.000000 -0.000000 0.363072
43 5.726303 0.000003 -0.000002 -0.000000 0.000000 0.363072
44 0.0 0.0 0.0 0.0 0.0 0.0
45 20.623095 6.852350 7.043066 0.743661 0.373754 -1.155476
46 31.575483 0.620254 0.492828 0.157075 -0.592831 -0.276227
47 30.971256 0.930378 0.494047 -0.000000 -0.000000 -0.610865
48 15.321678 -1.085427 0.492615 0.000000 0.000000 0.190530
49 16.917147 -1.550608 -4.950782 -0.000000 -0.000000 0.126933
50 -51.843418 0.032810 88.547813 -1.570796 -1.570796 0.000000
time 9
0 -0.225072 12.055235 98.505211 0.000000 0.000000 -1.570795
1 -0.000000 0.000000 -98.420380 0.000000 0.000000 1.570795
2 -10.128038 0.024607 0.000000 0.000000 -1.483529 -1.570795
3 -0.000014 0.000018 10.281537 -0.113397 -3.045729 -0.180475
4 57.833656 -0.000001 0.000004 0.000000 0.000000 -0.873411
5 41.126144 -0.000000 0.000000 -0.044114 -0.159825 0.668871
6 11.591197 22.213263 -0.000001 -0.000000 0.000000 1.570796
7 4.161460 -0.000000 -0.000001 0.000000 0.000000 0.000000
8 4.161459 -0.000000 0.000002 0.000000 0.000000 0.000000
9 0.0 0.0 0.0 0.0 0.0 0.0
10 0.000014 -0.000012 -10.281537 0.345237 2.846213 -0.683649
11 57.833649 0.000001 -0.000002 -0.000000 0.000000 -0.804852
12 41.126141 0.000002 0.000002 -0.103240 -0.079165 0.115914
13 11.591197 22.213261 -0.000000 0.000000 -0.000000 1.570796
14 4.161458 -0.000000 -0.000000 0.000000 0.000000 0.523599
15 4.161461 -0.000001 -0.000000 0.000000 0.000000 0.000000
16 0.0 0.0 0.0 0.0 0.0 0.0
17 3.590687 -0.008242 0.313425 0.021187 -0.121510 0.614185
18 12.691469 -0.022148 -0.001613 0.072810 0.092727 -0.073457
19 27.982988 -0.008486 0.000000 -0.000000 -0.000002 0.644181
20 13.320762 -0.000001 -0.000000 -0.135917 -0.075314 -0.833239
21 0.0 0.0 0.0 0.0 0.0 0.0
22 0.782553 8.800551 0.115179 0.000012 0.000024 -1.234818
23 -17.597878 -1.948093 -1.525802 0.000000 0.000000 0.000000
24 0.000003 0.010637 -9.133090 -0.735773 1.303871 1.778745
25 24.790304 0.000002 -0.000003 0.451194 -0.644367 -0.514383
26 42.522377 -0.000001 0.000001 0.000000 -0.000000 -0.833199
27 29.671490 -0.000001 0.000002 1.569922 0.171100 0.000000
28 12.717154 -2.207696 -0.037937 0.000756 -0.000440 0.527031
29 5.726304 0.000004 0.000002 0.000000 0.000000 0.352498
30 5.726305 -0.000001 -0.000006 0.000000 -0.000000 0.352498
31 0.0 0.0 0.0 0.0 0.0 0.0
32 21.251345 5.875732 -5.732557 1.349157 2.924761 -1.081836
33 -31.702112 -1.096448 0.492835 0.517625 0.849919 0.648587
34 -30.644953 0.216291 -0.985438 -0.000000 0.000000 0.523599
35 -15.820279 -0.434248 0.497700 -0.000000 0.000000 -0.071023
36 -17.006531 -0.978975 -0.002435 -0.000000 -0.000000 0.000000
37 0.000006 0.010583 9.133088 0.735769 -1.303877 1.778749
38 24.790308 -0.000003 -0.000005 -0.433044 0.742120 -0.840778
39 42.522385 0.000001 -0.000003 -0.000000 0.000000 -0.738650
40 29.671486 -0.000003 -0.000005 -1.569922 -0.171100 -0.000000
41 12.717151 -2.207699 0.037936 -0.000756 0.000440 0.527031
42 5.726304 -0.000004 -0.000001 -0.000000 0.000000 0.352498
43 5.726305 -0.000002 0.000002 -0.000000 -0.000000 0.352498
44 0.0 0.0 0.0 0.0 0.0 0.0
45 20.623093 6.852355 7.043070 0.745467 0.390789 -1.171432
46 31.575485 0.620258 0.492831 0.168937 -0.589926 -0.297502
47 30.971256 0.930381 0.494045 0.000000 -0.000000 -0.610865
48 15.321679 -1.085427 0.492615 0.000000 -0.000000 0.226392
49 16.917143 -1.550605 -4.950778 -0.000000 0.000000 0.142800
50 -51.843418 0.032810 88.547813 -1.570796 -1.570796 0.000000
time 10
0 -0.225072 12.218055 98.687614 0.000000 0.000000 -1.570795
1 -0.000000 0.000000 -98.602310 0.000000 0.000000 1.570795
2 -10.072686 0.034146 0.000000 0.000000 -1.483529 -1.570795
3 -0.000013 0.000018 10.281536 -0.113735 -3.046460 -0.178887
4 57.833649 -0.000000 0.000000 -0.000000 -0.000000 -0.865594
5 41.126137 0.000002 0.000003 -0.044039 -0.159251 0.662696
6 11.591198 22.213263 -0.000001 -0.000000 0.000000 1.570796
7 4.161460 0.000000 -0.000001 0.000000 0.000000 0.000000
8 4.161459 0.000000 -0.000001 0.000000 0.000000 0.000000
9 0.0 0.0 0.0 0.0 0.0 0.0
10 0.000014 -0.000012 -10.281536 0.346386 2.847820 -0.679811
11 57.833656 -0.000001 -0.000000 -0.000000 0.000000 -0.794006
12 41.126141 0.000000 -0.000004 -0.103087 -0.079415 0.108829
13 11.591198 22.213259 0.000000 0.000000 -0.000000 1.570796
14 4.161462 -0.000000 -0.000001 -0.000000 -0.000000 0.523599
15 4.161458 0.000001 0.000000 0.000000 0.000000 0.000000
16 0.0 0.0 0.0 0.0 0.0 0.0
17 3.590687 -0.008242 0.313425 0.021187 -0.121510 0.614185
18 12.691334 -0.022141 -0.001599 0.072193 0.093208 -0.080100
19 27.982952 -0.008503 -0.000001 -0.000000 -0.000002 0.640865
20 13.320765 -0.000003 0.000001 -0.136164 -0.074864 -0.819996
21 0.0 0.0 0.0 0.0 0.0 0.0
22 0.782546 8.800553 0.115179 -0.000000 0.000022 -1.570794
23 -17.597868 -1.948094 -1.525803 0.000000 0.000000 0.000000
24 0.000004 0.010637 -9.133089 -0.725891 1.306117 1.791597
25 24.790300 0.000001 -0.000002 0.465437 -0.641830 -0.550079
26 42.522385 -0.000002 0.000004 0.000000 -0.000000 -0.738074
27 29.671494 -0.000002 0.000001 1.569921 0.174533 -0.000000
28 12.717153 -2.207695 -0.037934 0.000758 -0.000437 0.523599
29 5.726302 0.000001 -0.000000 -0.000000 0.000000 0.349066
30 5.726303 0.000000 -0.000007 -0.000000 -0.000000 0.349066
31 0.0 0.0 0.0 0.0 0.0 0.0
32 21.251345 5.875727 -5.732552 1.352704 2.913958 -1.083505
33 -31.702124 -1.096460 0.492825 0.536466 0.840189 0.673775
34 -30.644947 0.216292 -0.985437 -0.000000 -0.000000 0.523599
35 -15.820287 -0.434248 0.497700 -0.000000 0.000000 -0.100466
36 -17.006531 -0.978973 -0.002435 0.000000 0.000000 -0.000000
37 0.000007 0.010582 9.133089 0.725886 -1.306122 1.791601
38 24.790308 -0.000000 0.000001 -0.458190 0.738539 -0.885604
39 42.522385 -0.000001 -0.000005 0.000000 0.000000 -0.636196
40 29.671494 0.000003 0.000000 -1.569921 -0.174533 0.000000
41 12.717151 -2.207695 0.037937 -0.000758 0.000437 0.523599
42 5.726308 -0.000006 -0.000003 0.000000 0.000000 0.349066
43 5.726306 0.000001 -0.000001 -0.000000 -0.000000 0.349066
44 0.0 0.0 0.0 0.0 0.0 0.0
45 20.623093 6.852356 7.043074 0.746488 0.401847 -1.181820
46 31.575487 0.620252 0.492829 0.176574 -0.587931 -0.311251
47 30.971256 0.930375 0.494053 0.000000 -0.000000 -0.610865
48 15.321674 -1.085426 0.492624 0.000000 0.000000 0.246169
49 16.917143 -1.550605 -4.950778 -0.000000 0.000000 0.158666
50 -51.843414 0.032810 88.547813 -1.570796 -1.570796 0.000000
time 11
0 -0.225072 12.055235 98.505211 0.000000 0.000000 -1.570795
1 -0.000000 0.000000 -98.419708 0.000000 0.000000 1.570795
2 -10.128038 0.024606 0.000000 0.000000 -1.483529 -1.570795
3 -0.000014 0.000018 10.281537 -0.113396 -3.045729 -0.180476
4 57.833652 0.000001 -0.000001 -0.000000 -0.000000 -0.873412
5 41.126141 -0.000001 0.000001 -0.044116 -0.159825 0.668896
6 11.591199 22.213263 0.000000 -0.000000 -0.000000 1.570796
7 4.161460 0.000000 0.000002 0.000000 0.000000 0.000000
8 4.161459 0.000000 -0.000001 0.000000 0.000000 0.000000
9 0.0 0.0 0.0 0.0 0.0 0.0
10 0.000014 -0.000012 -10.281537 0.345218 2.846218 -0.683654
11 57.833660 -0.000001 -0.000001 0.000000 0.000000 -0.804853
12 41.126144 0.000000 -0.000001 -0.103223 -0.079159 0.115911
13 11.591198 22.213261 0.000000 0.000000 -0.000000 1.570796
14 4.161460 0.000000 0.000001 0.000000 -0.000000 0.523599
15 4.161457 0.000002 0.000001 0.000000 0.000000 0.000000
16 0.0 0.0 0.0 0.0 0.0 0.0
17 3.590687 -0.008242 0.313425 0.021187 -0.121510 0.614185
18 12.691469 -0.022148 -0.001613 0.072810 0.092727 -0.073457
19 27.982988 -0.008486 0.000001 -0.000000 -0.000002 0.644181
20 13.320762 -0.000001 -0.000000 -0.135917 -0.075314 -0.833239
21 0.0 0.0 0.0 0.0 0.0 0.0
22 0.782553 8.800550 0.115179 -0.000003 0.000022 -1.641254
23 -17.597876 -1.948098 -1.525803 0.000000 0.000000 0.000000
24 0.000003 0.010637 -9.133089 -0.741766 1.302480 1.772966
25 24.790308 0.000004 -0.000000 0.470473 -0.649329 -0.553193
26 42.522377 0.000000 0.000002 0.000000 -0.000000 -0.719313
27 29.671484 0.000001 -0.000001 1.569921 0.168992 -0.000000
28 12.717156 -2.207702 -0.037935 0.000755 -0.000442 0.529140
29 5.726305 0.000003 0.000001 0.000000 -0.000000 0.354607
30 5.726298 -0.000001 0.000000 -0.000000 0.000000 0.354607
31 0.0 0.0 0.0 0.0 0.0 0.0
32 21.251350 5.875728 -5.732547 1.353964 2.910111 -1.084090
33 -31.702127 -1.096462 0.492827 0.543034 0.836651 0.682607
34 -30.644951 0.216291 -0.985440 -0.000000 0.000000 0.523599
35 -15.820286 -0.434250 0.497702 -0.000000 -0.000000 -0.118880
36 -17.006529 -0.978974 -0.002433 -0.000000 -0.000000 0.000000
37 0.000006 0.010583 9.133088 0.741761 -1.302485 1.772970
38 24.790312 -0.000003 -0.000006 -0.464077 0.743690 -0.891186
39 42.522385 -0.000000 0.000000 -0.000000 0.000000 -0.615450
40 29.671492 0.000002 0.000001 -1.569921 -0.168992 -0.000000
41 12.717152 -2.207697 0.037934 -0.000755 0.000442 0.529140
42 5.726301 0.000001 0.000000 -0.000000 -0.000000 0.354607
43 5.726303 -0.000003 0.000002 0.000000 0.000000 0.354607
44 0.0 0.0 0.0 0.0 0.0 0.0
45 20.623095 6.852358 7.043075 0.746822 0.405786 -1.185527
46 31.575485 0.620254 0.492826 0.179281 -0.587200 -0.316135
47 30.971258 0.930376 0.494050 0.000000 -0.000000 -0.610865
48 15.321680 -1.085428 0.492615 0.000000 -0.000000 0.246416
49 16.917147 -1.550607 -4.950779 -0.000000 0.000000 0.174533
50 -51.843418 0.032810 88.547813 -1.570796 -1.570796 0.000000
time 12
0 -0.225072 11.601055 97.996407 0.000000 0.000000 -1.570795
1 -0.000000 0.000000 -97.911079 0.000000 0.000000 1.570795
2 -10.281261 -0.002112 0.000000 0.000000 -1.483529 -1.570795
3 -0.000014 0.000018 10.281536 -0.112446 -3.043709 -0.184691
4 57.833660 -0.000001 0.000004 0.000000 0.000000 -0.894815
5 41.126144 -0.000001 -0.000001 -0.044337 -0.161437 0.685914
6 11.591198 22.213261 0.000001 -0.000000 -0.000000 1.570796
7 4.161459 -0.000000 0.000000 0.000000 0.000000 0.000000
8 4.161459 -0.000000 -0.000000 0.000000 0.000000 0.000000
9 0.0 0.0 0.0 0.0 0.0 0.0
10 0.000014 -0.000012 -10.281537 0.342028 2.841871 -0.694056
11 57.833652 0.000001 -0.000003 -0.000000 0.000000 -0.834409
12 41.126144 0.000001 0.000001 -0.103620 -0.078438 0.135296
13 11.591197 22.213261 0.000001 0.000000 -0.000000 1.570796
14 4.161461 -0.000000 -0.000001 0.000000 0.000000 0.523599
15 4.161460 0.000000 0.000001 0.000000 0.000000 0.000000
16 0.0 0.0 0.0 0.0 0.0 0.0
17 3.590687 -0.008242 0.313425 0.021187 -0.121510 0.614185
18 12.691889 -0.022181 -0.001651 0.074513 0.091366 -0.054928
19 27.983051 -0.008421 -0.000002 -0.000000 -0.000002 0.653432
20 13.320762 -0.000003 0.000001 -0.135219 -0.076564 -0.870181
21 0.0 0.0 0.0 0.0 0.0 0.0
22 0.782555 8.800551 0.115179 -0.000003 0.000022 -1.630265
23 -17.597872 -1.948084 -1.525803 0.000000 0.000000 0.000000
24 0.000007 0.010625 -9.133087 -0.777315 1.293723 1.729480
25 24.790304 -0.000000 -0.000008 0.472715 -0.663863 -0.537453
26 42.522388 -0.000000 0.000006 -0.000000 -0.000000 -0.746030
27 29.671486 0.000001 0.000002 1.569921 0.156018 -0.000000
28 12.717154 -2.207695 -0.037936 0.000749 -0.000451 0.542113
29 5.726302 0.000001 -0.000001 0.000000 -0.000000 0.367581
30 5.726302 -0.000001 0.000001 0.000000 0.000000 0.367581
31 0.0 0.0 0.0 0.0 0.0 0.0
32 21.251348 5.875723 -5.732554 1.352101 2.915796 -1.083223
33 -31.702129 -1.096470 0.492827 0.533301 0.841867 0.669528
34 -30.644949 0.216294 -0.985440 -0.000000 0.000000 0.523599
35 -15.820284 -0.434252 0.497699 -0.000000 -0.000000 -0.124197
36 -17.006531 -0.978975 -0.002434 0.000000 0.000000 -0.000000
37 0.000010 0.010571 9.133091 0.777311 -1.293729 1.729483
38 24.790308 -0.000004 -0.000006 -0.460623 0.754172 -0.874143
39 42.522388 -0.000002 -0.000008 0.000000 0.000000 -0.642532
40 29.671497 -0.000000 -0.000001 -1.569921 -0.156018 -0.000000
41 12.717154 -2.207700 0.037937 -0.000749 0.000451 0.542113
42 5.726299 -0.000001 0.000003 0.000000 0.000000 0.367581
43 5.726305 0.000002 -0.000001 -0.000000 -0.000000 0.367581
44 0.0 0.0 0.0 0.0 0.0 0.0
45 20.623095 6.852353 7.043067 0.746322 0.399965 -1.180050
46 31.575489 0.620260 0.492828 0.175277 -0.588277 -0.308914
47 30.971254 0.930376 0.494054 0.000000 0.000000 -0.610865
48 15.321676 -1.085429 0.492623 0.000000 -0.000000 0.223687
49 16.917145 -1.550606 -4.950782 -0.000000 -0.000000 0.174533
50 -51.843418 0.032810 88.547813 -1.570796 -1.570796 0.000000
time 13
0 -0.225072 10.906928 97.218803 0.000000 0.000000 -1.570795
1 -0.000000 0.000000 -97.133972 0.000000 0.000000 1.570795
2 -10.511971 -0.043235 0.000000 0.000000 -1.483529 -1.570795
3 -0.000016 0.000018 10.281536 -0.110988 -3.040670 -0.190552
4 57.833652 -0.000001 0.000002 0.000000 0.000000 -0.926449
5 41.126133 0.000006 -0.000001 -0.044706 -0.163936 0.711472
6 11.591198 22.213261 0.000000 -0.000000 -0.000000 1.570796
7 4.161460 -0.000000 0.000002 0.000000 0.000000 0.000000
8 4.161459 -0.000000 -0.000001 0.000000 0.000000 0.000000
9 0.0 0.0 0.0 0.0 0.0 0.0
10 0.000011 -0.000012 -10.281537 0.337275 2.835536 -0.709181
11 57.833652 -0.000005 0.000000 0.000000 -0.000000 -0.877821
12 41.126144 0.000001 0.000003 -0.104238 -0.077303 0.163995
13 11.591197 22.213261 0.000001 0.000000 -0.000000 1.570796
14 4.161461 -0.000000 -0.000001 -0.000000 -0.000000 0.523599
15 4.161462 -0.000001 0.000000 0.000000 0.000000 0.000000
16 0.0 0.0 0.0 0.0 0.0 0.0
17 3.590684 -0.008242 0.313425 0.021187 -0.121510 0.614185
18 12.692506 -0.022201 -0.001708 0.077066 0.089225 -0.026620
19 27.983189 -0.008334 0.000001 -0.000000 -0.000002 0.667569
20 13.320761 -0.000001 0.000000 -0.134131 -0.078462 -0.926644
21 0.0 0.0 0.0 0.0 0.0 0.0
22 0.782549 8.800551 0.115179 -0.000001 0.000023 -1.570794
23 -17.597876 -1.948105 -1.525802 0.000000 0.000000 0.000000
24 0.000002 0.010640 -9.133090 -0.822251 1.281309 1.672196
25 24.790308 0.000000 -0.000002 0.477899 -0.679733 -0.515426
26 42.522385 -0.000002 0.000004 -0.000000 -0.000000 -0.795463
27 29.671488 0.000003 0.000001 1.569921 0.138361 -0.000000
28 12.717153 -2.207704 -0.037935 0.000741 -0.000465 0.559770
29 5.726303 0.000002 0.000002 -0.000000 0.000000 0.385238
30 5.726300 -0.000003 -0.000004 0.000000 -0.000000 0.385238
31 0.0 0.0 0.0 0.0 0.0 0.0
32 21.251347 5.875728 -5.732555 1.346937 2.931505 -1.080776
33 -31.702124 -1.096461 0.492826 0.505564 0.855833 0.632574
34 -30.644951 0.216290 -0.985444 0.000000 0.000000 0.523599
35 -15.820281 -0.434246 0.497696 -0.000000 0.000000 -0.114348
36 -17.006533 -0.978976 -0.002434 0.000000 0.000000 -0.000000
37 0.000005 0.010585 9.133089 0.822249 -1.281315 1.672197
38 24.790308 0.000002 -0.000003 -0.456338 0.763946 -0.848825
39 42.522388 -0.000000 -0.000001 0.000000 0.000000 -0.692114
40 29.671490 -0.000001 -0.000000 -1.569921 -0.138361 -0.000000
41 12.717153 -2.207698 0.037935 -0.000741 0.000465 0.559770
42 5.726304 0.000001 0.000002 -0.000000 -0.000000 0.385238
43 5.726300 0.000002 -0.000003 0.000000 0.000000 0.385238
44 0.0 0.0 0.0 0.0 0.0 0.0
45 20.623095 6.852360 7.043072 0.744770 0.383888 -1.164961
46 31.575493 0.620254 0.492834 0.164145 -0.591128 -0.288897
47 30.971252 0.930373 0.494050 0.000000 -0.000000 -0.610865
48 15.321678 -1.085426 0.492615 0.000000 0.000000 0.174533
49 16.917145 -1.550606 -4.950778 -0.000000 -0.000000 0.174533
50 -51.843418 0.032810 88.547813 -1.570796 -1.570796 0.000000
time 14
0 -0.225072 10.024274 96.230003 0.000000 0.000000 -1.570795
1 -0.000000 0.000000 -96.145905 0.000000 0.000000 1.570795
2 -10.799047 -0.095985 0.000000 0.000000 -1.483529 -1.570795
3 -0.000018 0.000018 10.281537 -0.109120 -3.036882 -0.197055
4 57.833660 -0.000002 0.000003 0.000000 -0.000000 -0.964959
5 41.126144 0.000003 0.000000 -0.045232 -0.167176 0.743296
6 11.591197 22.213263 -0.000001 -0.000000 -0.000000 1.570796
7 4.161459 -0.000000 -0.000001 0.000000 0.000000 0.000000
8 4.161459 -0.000000 -0.000000 0.000000 0.000000 0.000000
9 0.0 0.0 0.0 0.0 0.0 0.0
10 0.000010 -0.000012 -10.281537 0.331413 2.827954 -0.727213
11 57.833649 -0.000003 -0.000003 0.000000 -0.000000 -0.930368
12 41.126144 0.000001 0.000001 -0.105036 -0.075796 0.199117
13 11.591199 22.213263 -0.000001 0.000000 0.000000 1.570796
14 4.161459 0.000000 -0.000000 -0.000000 -0.000000 0.523599
15 4.161459 -0.000000 0.000000 0.000000 0.000000 0.000000
16 0.0 0.0 0.0 0.0 0.0 0.0
17 3.590683 -0.008243 0.313425 0.021187 -0.121510 0.614185
18 12.693299 -0.022208 -0.001778 0.080221 0.086400 0.009362
19 27.983320 -0.008210 -0.000001 -0.000001 -0.000002 0.685545
20 13.320763 -0.000004 0.000000 -0.132709 -0.080854 -0.998449
21 0.0 0.0 0.0 0.0 0.0 0.0
22 0.782554 8.800553 0.115179 0.000004 0.000022 -1.425350
23 -17.597872 -1.948088 -1.525803 0.000000 0.000000 0.000000
24 0.000008 0.010624 -9.133088 -0.867835 1.266944 1.610624
25 24.790308 0.000002 -0.000006 0.492090 -0.691052 -0.499912
26 42.522377 -0.000002 0.000006 0.000000 0.000000 -0.844849
27 29.671482 0.000001 -0.000006 1.569921 0.118770 -0.000000
28 12.717155 -2.207701 -0.037933 0.000732 -0.000479 0.579362
29 5.726305 0.000002 0.000001 -0.000000 0.000000 0.404829
30 5.726301 0.000001 -0.000005 0.000000 -0.000000 0.404829
31 0.0 0.0 0.0 0.0 0.0 0.0
32 21.251343 5.875727 -5.732556 1.339092 2.955211 -1.076938
33 -31.702127 -1.096458 0.492830 0.461341 0.875594 0.574514
34 -30.644949 0.216294 -0.985441 -0.000000 0.000000 0.523599
35 -15.820278 -0.434250 0.497700 -0.000000 -0.000000 -0.087266
36 -17.006533 -0.978974 -0.002436 -0.000000 -0.000000 -0.000000
37 0.000010 0.010569 9.133090 0.867834 -1.266949 1.610625
38 24.790310 -0.000000 -0.000000 -0.460060 0.766973 -0.830015
39 42.522392 -0.000004 -0.000006 0.000000 -0.000000 -0.738865
40 29.671488 0.000003 -0.000003 -1.569921 -0.118770 0.000000
41 12.717154 -2.207697 0.037936 -0.000732 0.000479 0.579362
42 5.726305 -0.000003 0.000001 -0.000000 -0.000000 0.404829
43 5.726297 -0.000000 -0.000000 0.000000 -0.000000 0.404829
44 0.0 0.0 0.0 0.0 0.0 0.0
45 20.623095 6.852357 7.043074 0.741951 0.359646 -1.142295
46 31.575489 0.620259 0.492831 0.147165 -0.595081 -0.258519
47 30.971256 0.930380 0.494044 0.000000 -0.000000 -0.610865
48 15.321674 -1.085431 0.492620 0.000000 0.000000 -1.151001
49 16.917143 -1.550604 -4.950777 -0.000000 0.000000 0.174533
50 -51.843422 0.032809 88.547813 -1.570796 -1.570796 0.000000
time 15
0 -0.225072 9.004508 95.087593 0.000000 0.000000 -1.570795
1 -0.000000 0.000000 -95.004456 0.000000 0.000000 1.570795
2 -11.121483 -0.157486 0.000000 0.000000 -1.483529 -1.570795
3 -0.000014 0.000020 10.281537 -0.106941 -3.032598 -0.203334
4 57.833656 -0.000002 0.000002 -0.000000 0.000000 -1.007304
5 41.126141 0.000001 -0.000001 -0.045923 -0.171005 0.779113
6 11.591198 22.213263 -0.000000 -0.000000 -0.000000 1.570796
7 4.161460 -0.000000 -0.000001 0.000000 0.000000 0.000000
8 4.161459 -0.000000 0.000001 0.000000 0.000000 0.000000
9 0.0 0.0 0.0 0.0 0.0 0.0
10 0.000013 -0.000010 -10.281537 0.324859 2.819754 -0.746570
11 57.833656 -0.000001 -0.000002 0.000000 -0.000000 -0.987950
12 41.126141 0.000001 0.000001 -0.105977 -0.073954 0.238166
13 11.591198 22.213259 0.000001 0.000000 0.000000 1.570796
14 4.161458 0.000000 -0.000001 -0.000000 -0.000000 0.523599
15 4.161461 -0.000002 -0.000000 0.000000 0.000000 0.000000
16 0.0 0.0 0.0 0.0 0.0 0.0
17 3.590686 -0.008241 0.313425 0.021187 -0.121510 0.614185
18 12.694227 -0.022184 -0.001856 0.083737 0.082997 0.050910
19 27.983503 -0.008078 0.000000 -0.000001 -0.000002 0.706315
20 13.320759 0.000006 -0.000001 -0.131013 -0.083584 -1.081416
21 0.0 0.0 0.0 0.0 0.0 0.0
22 0.782548 8.800554 0.115179 0.000011 0.000021 -1.231424
23 -17.597874 -1.948090 -1.525803 0.000000 0.000000 0.000000
24 0.000004 0.010639 -9.133091 -0.907704 1.252667 1.551897
25 24.790310 0.000001 0.000001 0.521072 -0.691254 -0.503281
26 42.522392 -0.000002 0.000003 -0.000000 -0.000000 -0.871425
27 29.671488 -0.000004 0.000005 1.569921 0.099993 -0.000000
28 12.717154 -2.207697 -0.037934 0.000723 -0.000493 0.598139
29 5.726301 -0.000003 -0.000002 -0.000000 0.000000 0.423606
30 5.726304 0.000007 -0.000000 -0.000000 -0.000000 0.423606
31 0.0 0.0 0.0 0.0 0.0 0.0
32 21.251348 5.875731 -5.732555 1.329173 2.984885 -1.071883
33 -31.702133 -1.096469 0.492830 0.401980 0.897895 0.497941
34 -30.644953 0.216293 -0.985436 -0.000000 0.000000 0.523599
35 -15.820282 -0.434249 0.497698 0.000000 -0.000000 0.894885
36 -17.006535 -0.978977 -0.002433 0.000000 0.000000 0.000000
37 0.000006 0.010583 9.133089 0.907704 -1.252672 1.551897
38 24.790310 -0.000006 -0.000008 -0.479996 0.756885 -0.832172
39 42.522388 -0.000001 -0.000003 0.000000 -0.000000 -0.757457
40 29.671484 0.000001 0.000001 -1.569922 -0.099993 0.000000
41 12.717155 -2.207702 0.037935 -0.000723 0.000493 0.598139
42 5.726302 0.000001 0.000002 0.000000 0.000000 0.423606
43 5.726304 -0.000001 -0.000001 -0.000000 0.000000 0.423606
44 0.0 0.0 0.0 0.0 0.0 0.0
45 20.623096 6.852356 7.043073 0.737634 0.329352 -1.114055
46 31.575485 0.620260 0.492830 0.125627 -0.599427 -0.220224
47 30.971258 0.930375 0.494049 0.000000 -0.000000 -0.610865
48 15.321676 -1.085424 0.492615 0.000000 0.000000 -0.538140
49 16.917141 -1.550605 -4.950779 -0.000000 -0.000000 0.174533
50 -51.843418 0.032811 88.547806 -1.570796 -1.570796 0.000000
time 16
0 -0.225072 7.899047 93.849190 0.000000 0.000000 -1.570795
1 0.000000 -0.000000 -93.767128 0.000000 0.000000 1.570795
2 -11.459218 -0.224710 0.000000 0.000000 -1.483529 -1.570795
3 -0.000017 0.000019 10.281537 -0.104553 -3.028053 -0.208739
4 57.833656 -0.000000 0.000003 0.000000 0.000000 -1.050871
5 41.126137 0.000001 -0.000002 -0.046780 -0.175259 0.817032
6 11.591199 22.213261 0.000001 -0.000000 -0.000000 1.570796
7 4.161459 -0.000000 0.000000 0.000000 0.000000 0.000000
8 4.161459 0.000000 -0.000000 0.000000 0.000000 0.000000
9 0.0 0.0 0.0 0.0 0.0 0.0
10 0.000011 -0.000010 -10.281536 0.317977 2.811430 -0.766005
11 57.833656 -0.000003 0.000000 -0.000000 0.000000 -1.047215
12 41.126144 0.000002 -0.000002 -0.107019 -0.071830 0.278980
13 11.591198 22.213259 0.000001 0.000000 0.000000 1.570796
14 4.161459 -0.000000 0.000001 -0.000000 -0.000000 0.523599
15 4.161459 0.000002 0.000000 0.000000 0.000000 0.000000
16 0.0 0.0 0.0 0.0 0.0 0.0
17 3.590683 -0.008241 0.313425 0.021187 -0.121510 0.614185
18 12.695231 -0.022117 -0.001938 0.087383 0.079149 0.095923
19 27.983679 -0.007915 -0.000000 -0.000001 -0.000002 0.728830
20 13.320760 0.000008 -0.000000 -0.129110 -0.086504 -1.171366
21 0.0 0.0 0.0 0.0 0.0 0.0
22 0.782560 8.800550 0.115179 0.000014 0.000019 -1.134462
23 -17.597876 -1.948097 -1.525804 0.000000 0.000000 0.000000
24 0.000004 0.010635 -9.133088 -0.943453 1.238281 1.495507
25 24.790310 -0.000006 0.000003 0.563329 -0.679552 -0.524514
26 42.522381 -0.000002 -0.000003 0.000000 0.000000 -0.872137
27 29.671490 -0.000000 0.000003 1.569921 0.081623 -0.000000
28 12.717156 -2.207702 -0.037935 0.000714 -0.000506 0.616509
29 5.726302 0.000004 -0.000003 0.000000 -0.000000 0.441976
30 5.726306 -0.000003 0.000001 -0.000000 0.000000 0.441976
31 0.0 0.0 0.0 0.0 0.0 0.0
32 21.251348 5.875727 -5.732558 1.317784 3.018497 -1.065813
33 -31.702131 -1.096457 0.492827 0.329514 0.919535 0.406093
34 -30.644947 0.216288 -0.985443 0.000000 0.000000 0.523599
35 -15.820280 -0.434248 0.497699 0.000000 -0.000000 0.601563
36 -17.006535 -0.978976 -0.002433 0.000000 0.000000 0.000000
37 0.000004 0.010586 9.133090 0.943454 -1.238286 1.495505
38 24.790306 -0.000005 -0.000000 -0.515051 0.733328 -0.854986
39 42.522385 -0.000002 -0.000004 -0.000000 0.000000 -0.743380
40 29.671486 0.000001 0.000001 -1.569921 -0.081623 -0.000000
41 12.717155 -2.207700 0.037935 -0.000714 0.000506 0.616509
42 5.726307 0.000000 -0.000000 0.000000 0.000000 0.441976
43 5.726297 0.000002 -0.000001 -0.000000 -0.000000 0.441976
44 0.0 0.0 0.0 0.0 0.0 0.0
45 20.623091 6.852356 7.043078 0.731704 0.295129 -1.082174
46 31.575489 0.620258 0.492829 0.100890 -0.603527 -0.176513
47 30.971258 0.930379 0.494045 0.000000 -0.000000 -0.610865
48 15.321681 -1.085430 0.492615 0.000000 0.000000 -0.753712
49 16.917141 -1.550606 -4.950775 -0.000000 0.000000 0.174533
50 -51.843418 0.032811 88.547813 -1.570796 -1.570796 0.000000
time 17
0 -0.225072 6.759310 92.572380 0.000000 0.000000 -1.570795
1 0.000000 -0.000000 -92.491501 0.000000 0.000000 1.570795
2 -11.793871 -0.294483 0.000000 0.000000 -1.483529 -1.570795
3 -0.000017 0.000019 10.281537 -0.102065 -3.023459 -0.212882
4 57.833656 -0.000002 0.000002 0.000000 0.000000 -1.093507
5 41.126137 0.000002 0.000001 -0.047790 -0.179756 0.855304
6 11.591198 22.213259 -0.000000 -0.000000 0.000000 1.570796
7 4.161459 -0.000000 0.000001 0.000000 0.000000 0.000000
8 4.161459 0.000000 -0.000002 0.000000 0.000000 0.000000
9 0.0 0.0 0.0 0.0 0.0 0.0
10 0.000010 -0.000011 -10.281536 0.311094 2.803367 -0.784528
11 57.833656 -0.000002 -0.000000 -0.000000 0.000000 -1.105427
12 41.126144 0.000001 -0.000002 -0.108120 -0.069484 0.319792
13 11.591198 22.213259 0.000001 0.000000 -0.000000 1.570796
14 4.161463 0.000000 -0.000001 -0.000000 -0.000000 0.523599
15 4.161457 0.000001 -0.000000 0.000000 0.000000 0.000000
16 0.0 0.0 0.0 0.0 0.0 0.0
17 3.590683 -0.008241 0.313425 0.021187 -0.121510 0.614185
18 12.696242 -0.021987 -0.002017 0.090955 0.075013 0.142302
19 27.983864 -0.007753 -0.000001 -0.000001 -0.000002 0.752043
20 13.320761 -0.000004 0.000001 -0.127079 -0.089470 -1.264116
21 0.0 0.0 0.0 0.0 0.0 0.0
22 0.782560 8.800553 0.115179 0.000008 0.000020 -1.298086
23 -17.597872 -1.948096 -1.525803 0.000000 0.000000 0.000000
24 0.000004 0.010620 -9.133087 -0.978746 1.222374 1.439026
25 24.790308 -0.000002 -0.000002 0.610454 -0.661523 -0.551581
26 42.522377 -0.000001 0.000002 -0.000000 0.000000 -0.862161
27 29.671490 0.000001 -0.000001 1.569921 0.061828 -0.000000
28 12.717153 -2.207699 -0.037936 0.000704 -0.000520 0.636304
29 5.726301 -0.000001 0.000001 0.000000 -0.000000 0.461771
30 5.726302 0.000000 -0.000000 0.000000 0.000000 0.461771
31 0.0 0.0 0.0 0.0 0.0 0.0
32 21.251348 5.875726 -5.732556 1.305539 3.054028 -1.058987
33 -31.702120 -1.096459 0.492828 0.247368 0.937774 0.303550
34 -30.644953 0.216289 -0.985434 -0.000000 0.000000 0.523599
35 -15.820283 -0.434249 0.497698 0.000000 -0.000000 0.283917
36 -17.006529 -0.978975 -0.002437 0.000000 -0.000000 -0.000000
37 0.000004 0.010580 9.133089 0.978748 -1.222379 1.439024
38 24.790306 0.000005 0.000005 -0.555255 0.702579 -0.884934
39 42.522388 0.000000 -0.000004 -0.000000 -0.000000 -0.713519
40 29.671492 0.000002 -0.000000 -1.569921 -0.061828 0.000000
41 12.717154 -2.207696 0.037935 -0.000704 0.000520 0.636304
42 5.726304 -0.000004 0.000001 0.000000 -0.000000 0.461771
43 5.726305 0.000001 0.000001 -0.000000 0.000000 0.461771
44 0.0 0.0 0.0 0.0 0.0 0.0
45 20.623095 6.852362 7.043078 0.724257 0.259087 -1.048507
46 31.575489 0.620254 0.492829 0.074404 -0.606892 -0.129966
47 30.971254 0.930382 0.494055 -0.000000 -0.000000 -0.610865
48 15.321680 -1.085426 0.492619 0.000000 0.000000 -0.971557
49 16.917143 -1.550606 -4.950778 0.000000 -0.000000 0.174533
50 -51.843418 0.032811 88.547813 -1.570796 -1.570796 0.000000
time 18
0 -0.225072 5.636711 91.314781 0.000000 0.000000 -1.570795
1 0.000000 -0.000000 -91.235046 0.000000 0.000000 1.570795
2 -12.109346 -0.363523 0.000000 0.000000 -1.483529 -1.570795
3 -0.000017 0.000019 10.281537 -0.099590 -3.019015 -0.215603
4 57.833656 -0.000001 0.000001 0.000000 -0.000000 -1.133430
5 41.126148 -0.000002 0.000003 -0.048921 -0.184294 0.892322
6 11.591199 22.213263 0.000001 -0.000000 -0.000000 1.570796
7 4.161460 -0.000000 0.000000 0.000000 0.000000 0.000000
8 4.161459 -0.000000 -0.000001 0.000000 0.000000 0.000000
9 0.0 0.0 0.0 0.0 0.0 0.0
10 0.000010 -0.000011 -10.281536 0.304301 2.795700 -0.802036
11 57.833660 -0.000006 -0.000001 -0.000000 -0.000000 -1.161378
12 41.126141 0.000003 0.000001 -0.109191 -0.067125 0.358483
13 11.591198 22.213264 -0.000001 0.000000 -0.000000 1.570796
14 4.161456 -0.000000 0.000002 -0.000000 0.000000 0.523599
15 4.161461 0.000001 -0.000001 0.000000 0.000000 0.000000
16 0.0 0.0 0.0 0.0 0.0 0.0
17 3.590683 -0.008241 0.313425 0.021187 -0.121510 0.614185
18 12.697250 -0.021824 -0.002091 0.094280 0.070783 0.187954
19 27.984034 -0.007582 0.000000 -0.000001 -0.000002 0.774906
20 13.320761 -0.000004 0.000000 -0.125011 -0.092344 -1.355484
21 0.0 0.0 0.0 0.0 0.0 0.0
22 0.782555 8.800552 0.115179 -0.000001 0.000019 -1.570794
23 -17.597872 -1.948088 -1.525803 0.000000 0.000000 0.000000
24 0.000005 0.010628 -9.133089 -1.012314 1.205424 1.384707
25 24.790304 -0.000001 0.000002 0.657403 -0.639739 -0.579640
26 42.522392 -0.000001 0.000000 -0.000000 -0.000000 -0.846077
27 29.671495 0.000002 0.000002 1.569921 0.041218 0.000000
28 12.717152 -2.207699 -0.037935 0.000693 -0.000534 0.656913
29 5.726299 -0.000001 0.000000 -0.000000 0.000000 0.482380
30 5.726306 -0.000002 -0.000003 -0.000000 -0.000000 0.482380
31 0.0 0.0 0.0 0.0 0.0 0.0
32 21.251345 5.875729 -5.732554 1.293081 3.089473 -1.051743
33 -31.702126 -1.096452 0.492829 0.160665 0.950766 0.196556
34 -30.644953 0.216287 -0.985440 -0.000000 0.000000 0.523599
35 -15.820278 -0.434252 0.497702 0.000000 -0.000000 1.120129
36 -17.006533 -0.978976 -0.002436 0.000000 0.000000 0.000000
37 0.000005 0.010587 9.133089 1.012317 -1.205430 1.384704
38 24.790304 -0.000000 0.000002 -0.594885 0.667970 -0.916159
39 42.522400 -0.000001 -0.000004 0.000000 0.000000 -0.674641
40 29.671484 -0.000001 0.000003 -1.569922 -0.041218 0.000000
41 12.717153 -2.207700 0.037935 -0.000693 0.000534 0.656913
42 5.726304 0.000000 -0.000000 0.000000 0.000000 0.482380
43 5.726296 -0.000000 -0.000000 -0.000000 -0.000000 0.482380
44 0.0 0.0 0.0 0.0 0.0 0.0
45 20.623096 6.852352 7.043072 0.715636 0.223307 -1.014861
46 31.575487 0.620260 0.492829 0.047704 -0.609237 -0.083234
47 30.971256 0.930378 0.494043 0.000000 -0.000000 -0.610865
48 15.321681 -1.085428 0.492616 0.000000 0.000000 -0.815557
49 16.917143 -1.550604 -4.950781 -0.000000 0.000000 0.174533
50 -51.843422 0.032811 88.547813 -1.570796 -1.570796 0.000000
time 19
0 -0.225072 4.582668 90.133972 0.000000 0.000000 -1.570795
1 0.000000 -0.000000 -90.055374 0.000000 0.000000 1.570795
2 -12.392185 -0.428503 0.000000 0.000000 -1.483529 -1.570795
3 -0.000015 0.000019 10.281537 -0.097251 -3.014912 -0.216935
4 57.833656 -0.000001 0.000002 0.000000 -0.000000 -1.169082
5 41.126144 0.000001 -0.000000 -0.050115 -0.188651 0.926608
6 11.591198 22.213263 -0.000000 -0.000000 0.000000 1.570796
7 4.161460 0.000000 -0.000002 0.000000 0.000000 0.000000
8 4.161459 0.000000 0.000001 0.000000 0.000000 0.000000
9 0.0 0.0 0.0 0.0 0.0 0.0
10 0.000013 -0.000011 -10.281536 0.297957 2.788762 -0.817675
11 57.833649 -0.000003 -0.000000 0.000000 0.000000 -1.212563
12 41.126141 0.000004 0.000001 -0.110198 -0.064823 0.393767
13 11.591197 22.213261 -0.000001 0.000000 -0.000000 1.570796
14 4.161457 0.000000 0.000001 0.000000 0.000000 0.523599
15 4.161461 -0.000001 0.000001 0.000000 0.000000 0.000000
16 0.0 0.0 0.0 0.0 0.0 0.0
17 3.590686 -0.008242 0.313425 0.021187 -0.121510 0.614185
18 12.698186 -0.021619 -0.002157 0.097223 0.066678 0.230794
19 27.984198 -0.007425 0.000000 -0.000001 -0.000002 0.796374
20 13.320761 0.000004 0.000000 -0.123010 -0.094999 -1.441283
21 0.0 0.0 0.0 0.0 0.0 0.0
22 0.782554 8.800551 0.115179 -0.000001 0.000019 -1.570794
23 -17.597872 -1.948092 -1.525804 0.000000 0.000000 0.000000
24 0.000003 0.010631 -9.133088 -1.043298 1.187958 1.334398
25 24.790308 0.000000 0.000001 0.700218 -0.617527 -0.604813
26 42.522388 -0.000001 0.000001 -0.000000 0.000000 -0.828467
27 29.671492 0.000002 0.000001 1.569921 0.020406 -0.000000
28 12.717151 -2.207701 -0.037935 0.000682 -0.000549 0.677726
29 5.726303 -0.000001 -0.000002 -0.000000 -0.000000 0.503193
30 5.726300 -0.000000 -0.000001 -0.000000 -0.000000 0.503193
31 0.0 0.0 0.0 0.0 0.0 0.0
32 21.251347 5.875726 -5.732553 1.281102 3.122844 -1.044508
33 -31.702127 -1.096463 0.492829 0.075895 0.957908 0.092694
34 -30.644951 0.216290 -0.985440 -0.000000 0.000000 0.523599
35 -15.820281 -0.434249 0.497700 -0.000000 -0.000000 0.836409
36 -17.006533 -0.978974 -0.002438 -0.000000 -0.000000 -0.000000
37 0.000004 0.010590 9.133089 1.043301 -1.187964 1.334394
38 24.790306 0.000003 0.000007 -0.629959 0.633568 -0.944210
39 42.522392 -0.000002 -0.000002 0.000000 0.000000 -0.633507
40 29.671488 -0.000001 0.000001 -1.569921 -0.020406 0.000000
41 12.717154 -2.207701 0.037937 -0.000682 0.000549 0.677726
42 5.726302 -0.000003 0.000002 0.000000 -0.000000 0.503193
43 5.726299 0.000002 -0.000003 -0.000000 0.000000 0.503193
44 0.0 0.0 0.0 0.0 0.0 0.0
45 20.623095 6.852353 7.043076 0.706437 0.189810 -0.983046
46 31.575487 0.620260 0.492831 0.022372 -0.610508 -0.039012
47 30.971260 0.930380 0.494043 0.000000 -0.000000 -0.610865
48 15.321678 -1.085430 0.492618 0.000000 0.000000 -0.538678
49 16.917147 -1.550609 -4.950778 -0.000000 0.000000 0.174533
50 -51.843418 0.032810 88.547806 -1.570796 -1.570796 0.000000
end
